{"glyphs":{"0":{"ha":690,"x_min":39,"x_max":640,"o":"m 340 -14 q 183 24 251 -14 q 77 126 115 63 q 39 265 39 189 l 40 706 q 78 844 40 782 q 185 944 117 907 q 340 982 253 982 q 496 944 429 982 q 601 844 563 907 q 639 706 639 782 l 640 265 q 602 126 640 189 q 497 24 564 63 q 340 -14 429 -14 m 472 265 l 471 706 q 435 785 471 754 q 340 815 399 815 q 244 785 281 815 q 208 706 208 754 l 208 265 q 244 184 208 214 q 340 154 281 154 q 435 184 399 154 q 472 265 472 214 z "},"1":{"ha":292,"x_min":56,"x_max":225,"o":"m 63 0 q 56 7 56 0 l 57 961 q 63 967 57 967 l 218 967 q 224 961 224 967 l 225 7 q 219 0 225 0 l 63 0 z "},"2":{"ha":610,"x_min":24,"x_max":565,"o":"m 36 0 q 29 7 29 0 l 29 164 q 32 169 29 167 l 375 640 q 391 673 385 653 q 397 708 397 693 q 368 783 397 749 q 294 817 339 817 q 222 784 251 817 q 192 701 192 751 l 192 633 q 185 626 192 626 l 29 626 q 24 633 24 626 l 24 701 q 62 843 24 779 q 162 944 100 907 q 294 982 224 982 q 431 944 369 982 q 528 843 492 906 q 565 708 565 781 q 549 615 565 663 q 506 532 533 568 l 242 169 l 554 169 q 560 164 560 169 l 560 7 q 554 0 560 0 l 36 0 z "},"3":{"ha":611,"x_min":24,"x_max":567,"o":"m 294 -15 q 159 23 221 -15 q 60 125 97 61 q 24 265 24 189 l 24 328 q 29 335 24 335 l 185 335 q 192 328 192 335 l 192 265 q 221 187 192 219 q 294 154 250 154 q 371 188 343 154 q 399 265 399 222 l 399 303 q 372 381 399 346 q 303 415 344 415 l 249 415 q 242 422 242 415 l 243 578 q 249 583 243 583 l 303 583 q 369 613 340 583 q 399 689 399 642 l 399 708 q 369 784 399 753 q 294 815 339 815 q 222 784 251 815 q 192 708 192 753 l 192 642 q 186 635 192 635 l 31 635 q 25 642 25 635 l 25 715 q 63 851 25 792 q 163 947 101 911 q 294 982 225 982 q 431 945 369 982 q 529 847 493 908 q 565 713 565 786 l 565 690 q 545 585 565 629 q 489 500 525 540 q 546 409 525 458 q 567 307 567 360 l 567 265 q 530 124 567 188 q 431 22 493 60 q 294 -15 369 -15 z "},"4":{"ha":626,"x_min":19,"x_max":597,"o":"m 331 0 q 325 7 325 0 l 325 169 l 25 169 q 19 176 19 169 l 19 329 l 322 961 q 331 967 325 967 l 488 967 q 492 961 492 967 l 493 335 l 590 335 q 597 328 597 335 l 597 176 q 592 169 597 169 l 493 169 l 493 7 q 488 0 493 0 l 331 0 m 183 335 l 325 335 l 325 638 l 183 335 z "},"5":{"ha":601,"x_min":31,"x_max":576,"o":"m 304 -14 q 168 24 231 -14 q 68 123 106 61 q 31 257 31 185 l 31 299 q 38 304 31 304 l 194 304 q 200 299 200 304 l 200 267 q 231 188 200 219 q 304 156 261 156 q 377 188 347 156 q 407 267 407 221 l 407 361 q 376 433 407 404 q 299 463 344 463 q 200 415 239 463 l 197 411 l 49 422 q 42 429 42 422 l 58 810 l 67 961 q 72 967 67 967 l 539 967 q 544 961 544 967 l 544 810 q 539 803 544 803 l 214 803 l 207 611 q 251 625 224 619 q 300 631 278 631 q 438 594 375 631 q 539 496 501 557 q 576 361 576 435 l 576 267 q 540 126 576 190 q 441 24 503 63 q 304 -14 379 -14 z "},"6":{"ha":632,"x_min":39,"x_max":585,"o":"m 313 -14 q 177 24 239 -14 q 78 125 115 63 q 40 263 40 188 l 39 701 q 76 842 39 778 q 176 944 114 906 q 313 982 239 982 q 449 944 388 982 q 548 842 511 906 q 585 701 585 779 l 585 674 q 578 668 585 668 l 422 668 q 417 674 417 668 l 417 701 q 387 780 417 747 q 313 813 357 813 q 239 780 269 813 q 208 701 208 747 l 208 606 q 313 626 258 626 q 449 589 388 626 q 547 488 511 551 q 583 349 583 425 l 583 263 q 547 124 583 188 q 449 24 510 61 q 313 -14 388 -14 m 313 153 q 385 185 356 153 q 415 263 415 217 l 415 349 q 385 426 415 393 q 313 458 356 458 q 239 426 269 458 q 208 349 208 394 l 208 263 q 239 185 208 218 q 313 153 269 153 z "},"7":{"ha":614,"x_min":26,"x_max":575,"o":"m 128 0 q 125 7 122 0 l 411 803 l 32 803 q 26 808 26 803 l 26 960 q 32 967 26 967 l 569 967 q 575 960 575 967 l 575 804 l 308 7 q 300 0 306 0 l 128 0 z "},"8":{"ha":624,"x_min":31,"x_max":574,"o":"m 303 -14 q 167 24 229 -14 q 68 125 106 63 q 31 263 31 188 l 31 349 q 53 458 31 407 q 113 547 75 508 q 65 626 82 581 q 47 722 47 671 q 81 853 47 794 q 174 947 115 913 q 303 982 232 982 q 431 947 374 982 q 524 853 489 911 q 558 722 558 794 q 541 626 558 671 q 493 547 524 582 q 552 458 531 510 q 574 349 574 407 l 574 263 q 537 124 574 188 q 439 24 500 61 q 303 -14 378 -14 m 303 629 q 365 656 339 629 q 390 722 390 683 q 365 789 390 761 q 303 817 339 817 q 240 789 267 817 q 214 722 214 761 q 240 657 214 685 q 303 629 267 629 m 303 153 q 376 185 346 153 q 406 263 406 217 l 406 349 q 376 426 406 393 q 303 458 346 458 q 229 426 260 458 q 199 349 199 394 l 199 263 q 229 185 199 218 q 303 153 260 153 z "},"9":{"ha":624,"x_min":28,"x_max":574,"o":"m 300 -14 q 164 24 226 -14 q 65 126 101 63 q 28 267 28 190 l 28 294 q 35 300 28 300 l 190 300 q 196 294 196 300 l 196 267 q 226 188 196 221 q 300 156 257 156 q 374 188 343 156 q 404 267 404 221 l 404 363 q 300 342 354 342 q 164 379 225 342 q 66 480 103 417 q 29 619 29 543 l 29 706 q 66 844 29 782 q 165 944 103 907 q 300 982 226 982 q 435 944 374 982 q 535 844 497 907 q 572 706 572 781 l 572 619 l 574 267 q 536 126 574 190 q 437 24 499 63 q 300 -14 375 -14 m 300 510 q 374 542 344 510 q 404 619 404 574 l 404 706 q 374 783 404 750 q 300 815 343 815 q 227 783 257 815 q 197 706 197 751 l 197 619 q 227 542 197 575 q 300 510 257 510 z "},"A":{"ha":593,"x_min":8,"x_max":563,"o":"m 8 7 l 181 961 q 188 967 182 967 l 389 967 q 396 961 394 967 l 561 7 q 556 0 563 0 l 401 0 q 394 7 396 0 l 379 108 l 190 108 l 175 7 q 168 0 174 0 l 14 0 q 8 7 8 0 m 218 257 l 351 257 l 294 647 l 286 699 l 281 647 l 218 257 z "},"Á":{"ha":593,"x_min":8,"x_max":563,"o":"m 8 7 l 181 961 q 188 967 182 967 l 389 967 q 396 961 394 967 l 561 7 q 556 0 563 0 l 401 0 q 394 7 396 0 l 379 108 l 190 108 l 175 7 q 168 0 174 0 l 14 0 q 8 7 8 0 m 218 257 l 351 257 l 294 647 l 286 699 l 281 647 l 218 257 m 201 1038 q 196 1043 194 1038 l 307 1283 q 314 1289 308 1289 l 472 1289 q 478 1283 481 1289 l 349 1043 q 340 1038 346 1038 l 201 1038 z "},"Ă":{"ha":593,"x_min":8,"x_max":563,"o":"m 8 7 l 181 961 q 188 967 182 967 l 389 967 q 396 961 394 967 l 561 7 q 556 0 563 0 l 401 0 q 394 7 396 0 l 379 108 l 190 108 l 175 7 q 168 0 174 0 l 14 0 q 8 7 8 0 m 218 257 l 351 257 l 294 647 l 286 699 l 281 647 l 218 257 m 283 1038 q 163 1067 217 1038 q 78 1143 110 1096 q 47 1244 47 1190 q 53 1250 44 1250 l 178 1250 q 209 1180 178 1211 q 288 1149 240 1149 q 367 1180 336 1149 q 399 1250 399 1211 l 524 1250 q 529 1244 529 1250 q 497 1142 529 1189 q 408 1066 464 1094 q 283 1038 353 1038 z "},"Â":{"ha":593,"x_min":8,"x_max":563,"o":"m 8 7 l 181 961 q 188 967 182 967 l 389 967 q 396 961 394 967 l 561 7 q 556 0 563 0 l 401 0 q 394 7 396 0 l 379 108 l 190 108 l 175 7 q 168 0 174 0 l 14 0 q 8 7 8 0 m 218 257 l 351 257 l 294 647 l 286 699 l 281 647 l 218 257 m 21 1039 q 15 1044 13 1039 l 196 1257 q 204 1263 199 1263 l 364 1263 q 372 1257 369 1263 l 553 1044 q 547 1039 556 1039 l 385 1039 q 378 1044 379 1039 l 281 1165 l 182 1044 q 175 1039 181 1039 l 21 1039 z "},"Ä":{"ha":593,"x_min":8,"x_max":563,"o":"m 8 7 l 181 961 q 188 967 182 967 l 389 967 q 396 961 394 967 l 561 7 q 556 0 563 0 l 401 0 q 394 7 396 0 l 379 108 l 190 108 l 175 7 q 168 0 174 0 l 14 0 q 8 7 8 0 m 218 257 l 351 257 l 294 647 l 286 699 l 281 647 l 218 257 m 351 1061 q 346 1067 346 1061 l 346 1224 q 351 1229 346 1229 l 508 1229 q 514 1224 514 1229 l 514 1067 q 508 1061 514 1061 l 351 1061 m 63 1061 q 57 1067 57 1061 l 57 1224 q 63 1229 57 1229 l 219 1229 q 225 1224 225 1229 l 225 1067 q 219 1061 225 1061 l 63 1061 z "},"À":{"ha":593,"x_min":8,"x_max":563,"o":"m 8 7 l 181 961 q 188 967 182 967 l 389 967 q 396 961 394 967 l 561 7 q 556 0 563 0 l 401 0 q 394 7 396 0 l 379 108 l 190 108 l 175 7 q 168 0 174 0 l 14 0 q 8 7 8 0 m 218 257 l 351 257 l 294 647 l 286 699 l 281 647 l 218 257 m 221 1038 q 213 1043 215 1038 l 83 1283 q 89 1289 81 1289 l 247 1289 q 254 1283 253 1289 l 365 1043 q 360 1038 367 1038 l 221 1038 z "},"Ā":{"ha":593,"x_min":8,"x_max":563,"o":"m 8 7 l 181 961 q 188 967 182 967 l 389 967 q 396 961 394 967 l 561 7 q 556 0 563 0 l 401 0 q 394 7 396 0 l 379 108 l 190 108 l 175 7 q 168 0 174 0 l 14 0 q 8 7 8 0 m 218 257 l 351 257 l 294 647 l 286 699 l 281 647 l 218 257 m 74 1072 q 68 1078 68 1072 l 68 1190 q 74 1196 68 1196 l 489 1196 q 494 1190 494 1196 l 494 1078 q 489 1072 494 1072 l 74 1072 z "},"Ą":{"ha":593,"x_min":8,"x_max":563,"o":"m 8 7 l 181 961 q 188 967 182 967 l 389 967 q 396 961 394 967 l 561 7 q 556 0 563 0 l 401 0 q 394 7 396 0 l 379 108 l 190 108 l 175 7 q 168 0 174 0 l 14 0 q 8 7 8 0 m 218 257 l 351 257 l 294 647 l 286 699 l 281 647 l 218 257 m 550 -410 q 390 -379 451 -410 q 301 -297 329 -349 q 272 -186 272 -246 q 337 -40 272 -100 q 504 61 401 21 l 556 0 q 444 -76 471 -43 q 417 -150 417 -110 q 450 -219 417 -193 q 549 -244 483 -244 q 554 -248 553 -244 q 556 -262 556 -251 l 557 -399 q 550 -410 557 -410 z "},"Å":{"ha":593,"x_min":8,"x_max":563,"o":"m 8 7 l 181 961 q 188 967 182 967 l 389 967 q 396 961 394 967 l 561 7 q 556 0 563 0 l 401 0 q 394 7 396 0 l 379 108 l 190 108 l 175 7 q 168 0 174 0 l 14 0 q 8 7 8 0 m 218 257 l 351 257 l 294 647 l 286 699 l 281 647 l 218 257 m 286 1029 q 196 1069 235 1029 q 157 1160 157 1108 q 196 1253 157 1214 q 286 1292 235 1292 q 375 1253 336 1292 q 414 1160 414 1214 q 374 1067 414 1104 q 286 1029 335 1029 m 285 1094 q 328 1114 310 1094 q 346 1160 346 1133 q 328 1207 346 1188 q 285 1226 310 1226 q 240 1207 258 1226 q 222 1160 222 1188 q 240 1114 222 1133 q 285 1094 258 1094 z "},"Ǻ":{"ha":593,"x_min":8,"x_max":563,"o":"m 288 1028 q 197 1067 236 1028 q 158 1158 158 1107 q 179 1230 158 1197 q 233 1278 200 1263 l 286 1392 q 292 1397 288 1397 l 422 1397 q 426 1392 429 1397 l 358 1267 q 399 1220 383 1249 q 415 1158 415 1192 q 376 1065 415 1103 q 288 1028 336 1028 m 286 1093 q 329 1113 311 1093 q 347 1158 347 1132 q 329 1206 347 1186 q 286 1225 311 1225 q 242 1206 260 1225 q 224 1158 224 1186 q 242 1113 224 1132 q 286 1093 260 1093 m 8 7 l 181 961 q 188 967 182 967 l 389 967 q 396 961 394 967 l 561 7 q 556 0 563 0 l 401 0 q 394 7 396 0 l 379 108 l 190 108 l 175 7 q 168 0 174 0 l 14 0 q 8 7 8 0 m 218 257 l 351 257 l 294 647 l 286 699 l 281 647 l 218 257 z "},"Ã":{"ha":593,"x_min":8,"x_max":569,"o":"m 8 7 l 181 961 q 188 967 182 967 l 389 967 q 396 961 394 967 l 561 7 q 556 0 563 0 l 401 0 q 394 7 396 0 l 379 108 l 190 108 l 175 7 q 168 0 174 0 l 14 0 q 8 7 8 0 m 218 257 l 351 257 l 294 647 l 286 699 l 281 647 l 218 257 m 410 1046 q 338 1060 371 1046 q 279 1090 306 1075 q 229 1104 253 1104 q 189 1091 203 1104 q 175 1058 175 1078 q 169 1053 175 1053 l 44 1053 q 39 1058 39 1053 q 60 1133 39 1094 q 122 1197 82 1171 q 217 1224 161 1224 q 288 1210 257 1224 q 342 1183 318 1197 q 385 1169 367 1169 q 419 1182 404 1169 q 433 1221 433 1194 q 439 1226 433 1226 l 564 1226 q 569 1221 569 1226 q 547 1125 569 1164 q 487 1066 524 1086 q 410 1046 450 1046 z "},"Æ":{"ha":967,"x_min":0,"x_max":899,"o":"m 8 0 q 3 8 0 0 l 390 963 q 399 967 393 967 l 892 967 q 897 960 897 967 l 897 804 q 892 799 897 799 l 607 799 l 607 582 l 892 582 q 897 576 897 582 l 899 419 q 893 414 899 414 l 607 414 l 607 171 l 893 171 q 899 164 899 171 l 899 6 q 893 0 899 0 l 444 0 q 439 7 439 0 l 439 108 l 219 108 l 178 3 q 174 0 178 0 l 8 0 m 276 257 l 439 257 l 440 678 l 421 626 l 276 257 z "},"Ǽ":{"ha":967,"x_min":0,"x_max":899,"o":"m 8 0 q 3 8 0 0 l 390 963 q 399 967 393 967 l 892 967 q 897 960 897 967 l 897 804 q 892 799 897 799 l 607 799 l 607 582 l 892 582 q 897 576 897 582 l 899 419 q 893 414 899 414 l 607 414 l 607 171 l 893 171 q 899 164 899 171 l 899 6 q 893 0 899 0 l 444 0 q 439 7 439 0 l 439 108 l 219 108 l 178 3 q 174 0 178 0 l 8 0 m 276 257 l 439 257 l 440 678 l 421 626 l 276 257 m 426 1038 q 421 1043 419 1038 l 532 1283 q 539 1289 533 1289 l 697 1289 q 703 1283 706 1289 l 574 1043 q 565 1038 571 1038 l 426 1038 z "},"B":{"ha":644,"x_min":56,"x_max":607,"o":"m 61 0 q 56 7 56 0 l 58 961 q 64 967 58 967 l 331 967 q 472 928 410 967 q 571 828 535 890 q 607 692 607 765 q 580 581 607 632 q 515 497 553 529 q 578 404 556 457 q 600 293 600 351 q 561 146 600 213 q 456 40 522 79 q 310 0 390 0 l 61 0 m 225 583 l 331 583 q 409 617 379 583 q 439 692 439 651 q 407 769 439 736 q 331 801 375 801 l 225 801 l 225 583 m 224 169 l 310 169 q 396 206 360 169 q 432 293 432 243 q 396 379 432 343 q 310 415 360 415 l 225 415 l 224 169 z "},"C":{"ha":629,"x_min":39,"x_max":583,"o":"m 311 -14 q 173 24 235 -14 q 75 126 111 63 q 39 269 39 190 l 40 703 q 76 842 40 779 q 173 944 111 906 q 311 982 235 982 q 449 944 388 982 q 546 844 510 907 q 582 703 582 781 l 582 639 q 576 633 582 633 l 421 633 q 415 639 415 633 l 415 703 q 385 782 415 749 q 311 815 356 815 q 235 781 261 815 q 208 703 208 747 l 208 269 q 238 186 208 218 q 311 154 268 154 q 385 190 356 154 q 415 269 415 225 l 415 333 q 421 339 415 339 l 578 339 q 583 333 583 339 l 583 269 q 547 126 583 190 q 449 24 510 63 q 311 -14 388 -14 z "},"Ć":{"ha":629,"x_min":39,"x_max":583,"o":"m 311 -14 q 173 24 235 -14 q 75 126 111 63 q 39 269 39 190 l 40 703 q 76 842 40 779 q 173 944 111 906 q 311 982 235 982 q 449 944 388 982 q 546 844 510 907 q 582 703 582 781 l 582 639 q 576 633 582 633 l 421 633 q 415 639 415 633 l 415 703 q 385 782 415 749 q 311 815 356 815 q 235 781 261 815 q 208 703 208 747 l 208 269 q 238 186 208 218 q 311 154 268 154 q 385 190 356 154 q 415 269 415 225 l 415 333 q 421 339 415 339 l 578 339 q 583 333 583 339 l 583 269 q 547 126 583 190 q 449 24 510 63 q 311 -14 388 -14 m 229 1038 q 224 1043 222 1038 l 335 1283 q 342 1289 336 1289 l 500 1289 q 506 1283 508 1289 l 376 1043 q 368 1038 374 1038 l 229 1038 z "},"Č":{"ha":629,"x_min":39,"x_max":583,"o":"m 311 -14 q 173 24 235 -14 q 75 126 111 63 q 39 269 39 190 l 40 703 q 76 842 40 779 q 173 944 111 906 q 311 982 235 982 q 449 944 388 982 q 546 844 510 907 q 582 703 582 781 l 582 639 q 576 633 582 633 l 421 633 q 415 639 415 633 l 415 703 q 385 782 415 749 q 311 815 356 815 q 235 781 261 815 q 208 703 208 747 l 208 269 q 238 186 208 218 q 311 154 268 154 q 385 190 356 154 q 415 269 415 225 l 415 333 q 421 339 415 339 l 578 339 q 583 333 583 339 l 583 269 q 547 126 583 190 q 449 24 510 63 q 311 -14 388 -14 m 232 1042 q 224 1047 226 1042 l 43 1260 q 49 1265 40 1265 l 207 1265 q 214 1260 213 1265 l 311 1139 l 410 1260 q 417 1265 411 1265 l 575 1265 q 581 1260 583 1265 l 400 1047 q 392 1042 397 1042 l 232 1042 z "},"Ç":{"ha":629,"x_min":39,"x_max":583,"o":"m 311 -14 q 173 24 235 -14 q 75 126 111 63 q 39 269 39 190 l 40 703 q 76 842 40 779 q 173 944 111 906 q 311 982 235 982 q 449 944 388 982 q 546 844 510 907 q 582 703 582 781 l 582 639 q 576 633 582 633 l 421 633 q 415 639 415 633 l 415 703 q 385 782 415 749 q 311 815 356 815 q 235 781 261 815 q 208 703 208 747 l 208 269 q 238 186 208 218 q 311 154 268 154 q 385 190 356 154 q 415 269 415 225 l 415 333 q 421 339 415 339 l 578 339 q 583 333 583 339 l 583 269 q 547 126 583 190 q 449 24 510 63 q 311 -14 388 -14 m 168 -136 q 163 -131 160 -136 l 256 22 q 264 28 258 28 l 379 28 q 385 22 386 28 l 340 -57 q 456 -110 413 -68 q 499 -210 499 -151 q 469 -311 499 -265 q 389 -383 439 -357 q 275 -410 339 -410 q 199 -403 238 -410 q 142 -386 161 -397 q 139 -382 139 -383 l 135 -260 q 143 -254 135 -251 q 217 -273 185 -268 q 272 -278 250 -278 q 340 -261 317 -278 q 364 -217 364 -244 q 321 -158 364 -181 q 183 -136 278 -136 l 168 -136 z "},"Ĉ":{"ha":629,"x_min":39,"x_max":583,"o":"m 311 -14 q 173 24 235 -14 q 75 126 111 63 q 39 269 39 190 l 40 703 q 76 842 40 779 q 173 944 111 906 q 311 982 235 982 q 449 944 388 982 q 546 844 510 907 q 582 703 582 781 l 582 639 q 576 633 582 633 l 421 633 q 415 639 415 633 l 415 703 q 385 782 415 749 q 311 815 356 815 q 235 781 261 815 q 208 703 208 747 l 208 269 q 238 186 208 218 q 311 154 268 154 q 385 190 356 154 q 415 269 415 225 l 415 333 q 421 339 415 339 l 578 339 q 583 333 583 339 l 583 269 q 547 126 583 190 q 449 24 510 63 q 311 -14 388 -14 m 49 1039 q 43 1044 40 1039 l 224 1257 q 232 1263 226 1263 l 392 1263 q 400 1257 397 1263 l 581 1044 q 575 1039 583 1039 l 413 1039 q 406 1044 407 1039 l 308 1165 l 210 1044 q 203 1039 208 1039 l 49 1039 z "},"Ċ":{"ha":629,"x_min":39,"x_max":583,"o":"m 311 -14 q 173 24 235 -14 q 75 126 111 63 q 39 269 39 190 l 40 703 q 76 842 40 779 q 173 944 111 906 q 311 982 235 982 q 449 944 388 982 q 546 844 510 907 q 582 703 582 781 l 582 639 q 576 633 582 633 l 421 633 q 415 639 415 633 l 415 703 q 385 782 415 749 q 311 815 356 815 q 235 781 261 815 q 208 703 208 747 l 208 269 q 238 186 208 218 q 311 154 268 154 q 385 190 356 154 q 415 269 415 225 l 415 333 q 421 339 415 339 l 578 339 q 583 333 583 339 l 583 269 q 547 126 583 190 q 449 24 510 63 q 311 -14 388 -14 m 232 1061 q 226 1067 226 1061 l 226 1224 q 232 1229 226 1229 l 389 1229 q 394 1224 394 1229 l 394 1067 q 389 1061 394 1061 l 232 1061 z "},"D":{"ha":656,"x_min":56,"x_max":601,"o":"m 63 0 q 56 7 56 0 l 58 961 q 64 967 58 967 l 324 968 q 463 932 400 969 q 564 831 526 894 q 601 692 601 768 l 601 293 q 563 147 601 213 q 458 42 524 81 q 311 1 393 3 l 63 0 m 225 171 l 311 171 q 398 207 363 171 q 433 293 433 243 l 433 693 q 401 770 433 738 q 324 801 368 803 l 226 800 l 225 171 z "},"Ð":{"ha":656,"x_min":-19,"x_max":601,"o":"m 63 0 q 56 7 56 0 l 57 431 l -14 431 q -19 438 -19 431 l -19 582 q -12 589 -19 589 l 57 589 l 58 961 q 64 967 58 967 l 324 968 q 463 932 400 969 q 564 831 526 894 q 601 692 601 768 l 601 293 q 563 147 601 213 q 458 42 524 81 q 311 1 393 3 l 63 0 m 225 171 l 311 171 q 398 207 363 171 q 433 293 433 243 l 433 693 q 401 770 433 738 q 324 801 368 803 l 226 800 l 226 589 l 335 589 q 340 582 340 589 l 340 438 q 335 431 340 431 l 225 431 l 225 171 z "},"Ď":{"ha":656,"x_min":35,"x_max":601,"o":"m 63 0 q 56 7 56 0 l 58 961 q 64 967 58 967 l 324 968 q 463 932 400 969 q 564 831 526 894 q 601 692 601 768 l 601 293 q 563 147 601 213 q 458 42 524 81 q 311 1 393 3 l 63 0 m 225 171 l 311 171 q 398 207 363 171 q 433 293 433 243 l 433 693 q 401 770 433 738 q 324 801 368 803 l 226 800 l 225 171 m 226 1042 q 218 1047 221 1042 l 38 1260 q 43 1265 35 1265 l 201 1265 q 208 1260 207 1265 l 306 1139 l 404 1260 q 411 1265 406 1265 l 569 1265 q 575 1260 578 1265 l 394 1047 q 386 1042 392 1042 l 226 1042 z "},"Đ":{"ha":656,"x_min":-19,"x_max":601,"o":"m 63 0 q 56 7 56 0 l 57 431 l -14 431 q -19 438 -19 431 l -19 582 q -12 589 -19 589 l 57 589 l 58 961 q 64 967 58 967 l 324 968 q 463 932 400 969 q 564 831 526 894 q 601 692 601 768 l 601 293 q 563 147 601 213 q 458 42 524 81 q 311 1 393 3 l 63 0 m 225 171 l 311 171 q 398 207 363 171 q 433 293 433 243 l 433 693 q 401 770 433 738 q 324 801 368 803 l 226 800 l 226 589 l 335 589 q 340 582 340 589 l 340 438 q 335 431 340 431 l 225 431 l 225 171 z "},"E":{"ha":583,"x_min":56,"x_max":515,"o":"m 61 0 q 56 7 56 0 l 57 961 q 63 967 57 967 l 508 967 q 514 960 514 967 l 514 804 q 508 799 514 799 l 224 799 l 224 582 l 508 582 q 514 576 514 582 l 515 419 q 510 414 515 414 l 224 414 l 224 171 l 510 171 q 515 164 515 171 l 515 6 q 510 0 515 0 l 61 0 z "},"É":{"ha":583,"x_min":56,"x_max":515,"o":"m 61 0 q 56 7 56 0 l 57 961 q 63 967 57 967 l 508 967 q 514 960 514 967 l 514 804 q 508 799 514 799 l 224 799 l 224 582 l 508 582 q 514 576 514 582 l 515 419 q 510 414 515 414 l 224 414 l 224 171 l 510 171 q 515 164 515 171 l 515 6 q 510 0 515 0 l 61 0 m 199 1038 q 193 1043 192 1038 l 304 1283 q 311 1289 306 1289 l 469 1289 q 475 1283 478 1289 l 346 1043 q 338 1038 343 1038 l 199 1038 z "},"Ĕ":{"ha":583,"x_min":42,"x_max":526,"o":"m 61 0 q 56 7 56 0 l 57 961 q 63 967 57 967 l 508 967 q 514 960 514 967 l 514 804 q 508 799 514 799 l 224 799 l 224 582 l 508 582 q 514 576 514 582 l 515 419 q 510 414 515 414 l 224 414 l 224 171 l 510 171 q 515 164 515 171 l 515 6 q 510 0 515 0 l 61 0 z "},"Ě":{"ha":583,"x_min":10,"x_max":553,"o":"m 61 0 q 56 7 56 0 l 57 961 q 63 967 57 967 l 508 967 q 514 960 514 967 l 514 804 q 508 799 514 799 l 224 799 l 224 582 l 508 582 q 514 576 514 582 l 515 419 q 510 414 515 414 l 224 414 l 224 171 l 510 171 q 515 164 515 171 l 515 6 q 510 0 515 0 l 61 0 m 201 1042 q 193 1047 196 1042 l 13 1260 q 18 1265 10 1265 l 176 1265 q 183 1260 182 1265 l 281 1139 l 379 1260 q 386 1265 381 1265 l 544 1265 q 550 1260 553 1265 l 369 1047 q 361 1042 367 1042 l 201 1042 z "},"Ê":{"ha":583,"x_min":10,"x_max":553,"o":"m 61 0 q 56 7 56 0 l 57 961 q 63 967 57 967 l 508 967 q 514 960 514 967 l 514 804 q 508 799 514 799 l 224 799 l 224 582 l 508 582 q 514 576 514 582 l 515 419 q 510 414 515 414 l 224 414 l 224 171 l 510 171 q 515 164 515 171 l 515 6 q 510 0 515 0 l 61 0 m 18 1039 q 13 1044 10 1039 l 193 1257 q 201 1263 196 1263 l 361 1263 q 369 1257 367 1263 l 550 1044 q 544 1039 553 1039 l 382 1039 q 375 1044 376 1039 l 278 1165 l 179 1044 q 172 1039 178 1039 l 18 1039 z "},"Ë":{"ha":583,"x_min":54,"x_max":515,"o":"m 61 0 q 56 7 56 0 l 57 961 q 63 967 57 967 l 508 967 q 514 960 514 967 l 514 804 q 508 799 514 799 l 224 799 l 224 582 l 508 582 q 514 576 514 582 l 515 419 q 510 414 515 414 l 224 414 l 224 171 l 510 171 q 515 164 515 171 l 515 6 q 510 0 515 0 l 61 0 m 349 1061 q 343 1067 343 1061 l 343 1224 q 349 1229 343 1229 l 506 1229 q 511 1224 511 1229 l 511 1067 q 506 1061 511 1061 l 349 1061 m 60 1061 q 54 1067 54 1061 l 54 1224 q 60 1229 54 1229 l 217 1229 q 222 1224 222 1229 l 222 1067 q 217 1061 222 1061 l 60 1061 z "},"Ė":{"ha":583,"x_min":56,"x_max":515,"o":"m 61 0 q 56 7 56 0 l 57 961 q 63 967 57 967 l 508 967 q 514 960 514 967 l 514 804 q 508 799 514 799 l 224 799 l 224 582 l 508 582 q 514 576 514 582 l 515 419 q 510 414 515 414 l 224 414 l 224 171 l 510 171 q 515 164 515 171 l 515 6 q 510 0 515 0 l 61 0 m 201 1061 q 196 1067 196 1061 l 196 1224 q 201 1229 196 1229 l 358 1229 q 364 1224 364 1229 l 364 1067 q 358 1061 364 1061 l 201 1061 z "},"È":{"ha":583,"x_min":56,"x_max":515,"o":"m 61 0 q 56 7 56 0 l 57 961 q 63 967 57 967 l 508 967 q 514 960 514 967 l 514 804 q 508 799 514 799 l 224 799 l 224 582 l 508 582 q 514 576 514 582 l 515 419 q 510 414 515 414 l 224 414 l 224 171 l 510 171 q 515 164 515 171 l 515 6 q 510 0 515 0 l 61 0 m 218 1038 q 210 1043 213 1038 l 81 1283 q 86 1289 78 1289 l 244 1289 q 251 1283 250 1289 l 363 1043 q 357 1038 364 1038 l 218 1038 z "},"Ē":{"ha":583,"x_min":56,"x_max":515,"o":"m 61 0 q 56 7 56 0 l 57 961 q 63 967 57 967 l 508 967 q 514 960 514 967 l 514 804 q 508 799 514 799 l 224 799 l 224 582 l 508 582 q 514 576 514 582 l 515 419 q 510 414 515 414 l 224 414 l 224 171 l 510 171 q 515 164 515 171 l 515 6 q 510 0 515 0 l 61 0 m 71 1072 q 65 1078 65 1072 l 65 1190 q 71 1196 65 1196 l 486 1196 q 492 1190 492 1196 l 492 1078 q 486 1072 492 1072 l 71 1072 z "},"Ę":{"ha":583,"x_min":56,"x_max":515,"o":"m 61 0 q 56 7 56 0 l 57 961 q 63 967 57 967 l 508 967 q 514 960 514 967 l 514 804 q 508 799 514 799 l 224 799 l 224 582 l 508 582 q 514 576 514 582 l 515 419 q 510 414 515 414 l 224 414 l 224 171 l 510 171 q 515 164 515 171 l 515 6 q 510 0 515 0 l 61 0 m 506 -410 q 346 -379 407 -410 q 256 -297 285 -349 q 228 -186 228 -246 q 292 -40 228 -100 q 460 61 357 21 l 511 0 q 399 -76 426 -43 q 372 -150 372 -110 q 406 -219 372 -193 q 504 -244 439 -244 q 510 -248 508 -244 q 511 -262 511 -251 l 513 -399 q 506 -410 513 -410 z "},"F":{"ha":585,"x_min":56,"x_max":517,"o":"m 63 0 q 56 7 56 0 l 58 961 q 64 967 58 967 l 508 967 q 515 961 515 967 l 515 804 q 510 799 515 799 l 225 799 l 225 583 l 510 583 q 515 576 515 583 l 517 419 q 510 414 517 414 l 225 414 l 225 7 q 218 0 225 0 l 63 0 z "},"G":{"ha":625,"x_min":39,"x_max":582,"o":"m 310 -14 q 174 24 235 -14 q 76 124 113 61 q 39 265 39 188 l 39 706 q 76 844 39 781 q 174 944 113 907 q 310 982 236 982 q 448 945 386 982 q 546 846 510 908 q 582 706 582 783 l 582 642 q 575 636 582 636 l 419 636 q 414 642 414 636 l 414 694 q 384 782 414 747 q 310 817 354 817 q 238 783 269 817 q 207 706 207 750 l 207 265 q 238 187 207 219 q 310 154 268 154 q 384 186 354 154 q 414 265 414 218 l 414 333 l 317 333 q 310 340 310 333 l 310 496 q 317 503 310 503 l 576 503 q 582 496 582 503 l 582 265 q 545 124 582 188 q 447 24 508 61 q 310 -14 386 -14 z "},"Ğ":{"ha":625,"x_min":39,"x_max":582,"o":"m 310 -14 q 174 24 235 -14 q 76 124 113 61 q 39 265 39 188 l 39 706 q 76 844 39 781 q 174 944 113 907 q 310 982 236 982 q 448 945 386 982 q 546 846 510 908 q 582 706 582 783 l 582 642 q 575 636 582 636 l 419 636 q 414 642 414 636 l 414 694 q 384 782 414 747 q 310 817 354 817 q 238 783 269 817 q 207 706 207 750 l 207 265 q 238 187 207 219 q 310 154 268 154 q 384 186 354 154 q 414 265 414 218 l 414 333 l 317 333 q 310 340 310 333 l 310 496 q 317 503 310 503 l 576 503 q 582 496 582 503 l 582 265 q 545 124 582 188 q 447 24 508 61 q 310 -14 386 -14 m 311 1038 q 191 1067 244 1038 q 106 1143 138 1096 q 75 1244 75 1190 q 81 1250 72 1250 l 206 1250 q 237 1180 206 1211 q 315 1149 268 1149 q 395 1180 364 1149 q 426 1250 426 1211 l 551 1250 q 557 1244 557 1250 q 524 1142 557 1189 q 436 1066 492 1094 q 311 1038 381 1038 z "},"Ĝ":{"ha":625,"x_min":39,"x_max":583,"o":"m 310 -14 q 174 24 235 -14 q 76 124 113 61 q 39 265 39 188 l 39 706 q 76 844 39 781 q 174 944 113 907 q 310 982 236 982 q 448 945 386 982 q 546 846 510 908 q 582 706 582 783 l 582 642 q 575 636 582 636 l 419 636 q 414 642 414 636 l 414 694 q 384 782 414 747 q 310 817 354 817 q 238 783 269 817 q 207 706 207 750 l 207 265 q 238 187 207 219 q 310 154 268 154 q 384 186 354 154 q 414 265 414 218 l 414 333 l 317 333 q 310 340 310 333 l 310 496 q 317 503 310 503 l 576 503 q 582 496 582 503 l 582 265 q 545 124 582 188 q 447 24 508 61 q 310 -14 386 -14 m 49 1039 q 43 1044 40 1039 l 224 1257 q 232 1263 226 1263 l 392 1263 q 400 1257 397 1263 l 581 1044 q 575 1039 583 1039 l 413 1039 q 406 1044 407 1039 l 308 1165 l 210 1044 q 203 1039 208 1039 l 49 1039 z "},"Ģ":{"ha":625,"x_min":39,"x_max":582,"o":"m 310 -14 q 174 24 235 -14 q 76 124 113 61 q 39 265 39 188 l 39 706 q 76 844 39 781 q 174 944 113 907 q 310 982 236 982 q 448 945 386 982 q 546 846 510 908 q 582 706 582 783 l 582 642 q 575 636 582 636 l 419 636 q 414 642 414 636 l 414 694 q 384 782 414 747 q 310 817 354 817 q 238 783 269 817 q 207 706 207 750 l 207 265 q 238 187 207 219 q 310 154 268 154 q 384 186 354 154 q 414 265 414 218 l 414 333 l 317 333 q 310 340 310 333 l 310 496 q 317 503 310 503 l 576 503 q 582 496 582 503 l 582 265 q 545 124 582 188 q 447 24 508 61 q 310 -14 386 -14 m 231 -410 l 231 -324 q 290 -297 265 -324 q 314 -235 314 -271 l 236 -235 q 231 -229 231 -235 l 231 -74 q 236 -68 231 -68 l 393 -68 q 399 -74 399 -68 l 399 -235 q 375 -324 399 -283 q 313 -387 351 -364 q 231 -410 275 -410 z "},"Ġ":{"ha":625,"x_min":39,"x_max":582,"o":"m 310 -14 q 174 24 235 -14 q 76 124 113 61 q 39 265 39 188 l 39 706 q 76 844 39 781 q 174 944 113 907 q 310 982 236 982 q 448 945 386 982 q 546 846 510 908 q 582 706 582 783 l 582 642 q 575 636 582 636 l 419 636 q 414 642 414 636 l 414 694 q 384 782 414 747 q 310 817 354 817 q 238 783 269 817 q 207 706 207 750 l 207 265 q 238 187 207 219 q 310 154 268 154 q 384 186 354 154 q 414 265 414 218 l 414 333 l 317 333 q 310 340 310 333 l 310 496 q 317 503 310 503 l 576 503 q 582 496 582 503 l 582 265 q 545 124 582 188 q 447 24 508 61 q 310 -14 386 -14 m 232 1061 q 226 1067 226 1061 l 226 1224 q 232 1229 226 1229 l 389 1229 q 394 1224 394 1229 l 394 1067 q 389 1061 394 1061 l 232 1061 z "},"H":{"ha":660,"x_min":56,"x_max":601,"o":"m 61 0 q 56 7 56 0 l 57 961 q 64 967 57 967 l 218 967 q 225 961 225 967 l 224 583 l 432 583 l 432 961 q 438 967 432 967 l 592 967 q 599 961 599 967 l 601 7 q 594 0 601 0 l 439 0 q 432 7 432 0 l 432 415 l 224 415 l 224 7 q 218 0 224 0 l 61 0 z "},"Ħ":{"ha":660,"x_min":-18,"x_max":672,"o":"m 61 0 q 56 7 56 0 l 57 711 l -12 711 q -18 718 -18 711 l -18 850 q -11 857 -18 857 l 57 857 l 57 961 q 64 967 57 967 l 218 967 q 225 961 225 967 l 225 857 l 432 857 l 432 961 q 438 967 432 967 l 592 967 q 599 961 599 967 l 599 857 l 667 857 q 672 850 672 857 l 672 718 q 667 711 672 711 l 600 711 l 601 7 q 594 0 601 0 l 439 0 q 432 7 432 0 l 432 415 l 224 415 l 224 7 q 218 0 224 0 l 61 0 m 224 583 l 432 583 l 432 711 l 224 711 l 224 583 z "},"Ȟ":{"ha":660,"x_min":53,"x_max":601,"o":"m 61 0 q 56 7 56 0 l 57 961 q 64 967 57 967 l 218 967 q 225 961 225 967 l 224 583 l 432 583 l 432 961 q 438 967 432 967 l 592 967 q 599 961 599 967 l 601 7 q 594 0 601 0 l 439 0 q 432 7 432 0 l 432 415 l 224 415 l 224 7 q 218 0 224 0 l 61 0 m 244 1042 q 236 1047 239 1042 l 56 1260 q 61 1265 53 1265 l 219 1265 q 226 1260 225 1265 l 324 1139 l 422 1260 q 429 1265 424 1265 l 588 1265 q 593 1260 596 1265 l 413 1047 q 404 1042 410 1042 l 244 1042 z "},"Ĥ":{"ha":660,"x_min":53,"x_max":601,"o":"m 61 0 q 56 7 56 0 l 57 961 q 64 967 57 967 l 218 967 q 225 961 225 967 l 224 583 l 432 583 l 432 961 q 438 967 432 967 l 592 967 q 599 961 599 967 l 601 7 q 594 0 601 0 l 439 0 q 432 7 432 0 l 432 415 l 224 415 l 224 7 q 218 0 224 0 l 61 0 m 61 1039 q 56 1044 53 1039 l 236 1257 q 244 1263 239 1263 l 404 1263 q 413 1257 410 1263 l 593 1044 q 588 1039 596 1039 l 425 1039 q 418 1044 419 1039 l 321 1165 l 222 1044 q 215 1039 221 1039 l 61 1039 z "},"I":{"ha":292,"x_min":56,"x_max":225,"o":"m 63 0 q 56 7 56 0 l 57 961 q 63 967 57 967 l 218 967 q 224 961 224 967 l 225 7 q 219 0 225 0 l 63 0 z "},"Ĳ":{"ha":828,"x_min":56,"x_max":778,"o":"m 63 0 q 56 7 56 0 l 57 961 q 63 967 57 967 l 218 967 q 224 961 224 967 l 225 7 q 219 0 225 0 l 63 0 m 539 -14 q 405 23 461 -14 q 319 124 349 60 q 290 269 290 189 l 290 333 q 296 339 290 339 l 453 339 q 458 332 458 339 l 458 269 q 475 186 458 218 q 538 154 492 154 q 594 189 579 154 q 610 269 610 224 l 610 960 q 615 965 610 965 l 771 965 q 776 958 776 965 l 778 269 q 712 63 778 140 q 539 -14 646 -14 z "},"Í":{"ha":292,"x_min":54,"x_max":340,"o":"m 63 0 q 56 7 56 0 l 57 961 q 63 967 57 967 l 218 967 q 224 961 224 967 l 225 7 q 219 0 225 0 l 63 0 m 61 1038 q 56 1043 54 1038 l 167 1283 q 174 1289 168 1289 l 332 1289 q 338 1283 340 1289 l 208 1043 q 200 1038 206 1038 l 61 1038 z "},"Ĭ":{"ha":292,"x_min":-96,"x_max":389,"o":"m 63 0 q 56 7 56 0 l 57 961 q 63 967 57 967 l 218 967 q 224 961 224 967 l 225 7 q 219 0 225 0 l 63 0 m 143 1038 q 23 1067 76 1038 q -62 1143 -31 1096 q -93 1244 -93 1190 q -87 1250 -96 1250 l 38 1250 q 69 1180 38 1211 q 147 1149 100 1149 q 227 1180 196 1149 q 258 1250 258 1211 l 383 1250 q 389 1244 389 1250 q 356 1142 389 1189 q 268 1066 324 1094 q 143 1038 213 1038 z "},"Î":{"ha":292,"x_min":-128,"x_max":415,"o":"m 63 0 q 56 7 56 0 l 57 961 q 63 967 57 967 l 218 967 q 224 961 224 967 l 225 7 q 219 0 225 0 l 63 0 m -119 1039 q -125 1044 -128 1039 l 56 1257 q 64 1263 58 1263 l 224 1263 q 232 1257 229 1263 l 413 1044 q 407 1039 415 1039 l 244 1039 q 238 1044 239 1039 l 140 1165 l 42 1044 q 35 1039 40 1039 l -119 1039 z "},"Ï":{"ha":292,"x_min":-83,"x_max":374,"o":"m 63 0 q 56 7 56 0 l 57 961 q 63 967 57 967 l 218 967 q 224 961 224 967 l 225 7 q 219 0 225 0 l 63 0 m 211 1061 q 206 1067 206 1061 l 206 1224 q 211 1229 206 1229 l 368 1229 q 374 1224 374 1229 l 374 1067 q 368 1061 374 1061 l 211 1061 m -78 1061 q -83 1067 -83 1061 l -83 1224 q -78 1229 -83 1229 l 79 1229 q 85 1224 85 1229 l 85 1067 q 79 1061 85 1061 l -78 1061 z "},"İ":{"ha":292,"x_min":56,"x_max":226,"o":"m 63 0 q 56 7 56 0 l 57 961 q 63 967 57 967 l 218 967 q 224 961 224 967 l 225 7 q 219 0 225 0 l 63 0 m 64 1061 q 58 1067 58 1061 l 58 1224 q 64 1229 58 1229 l 221 1229 q 226 1224 226 1229 l 226 1067 q 221 1061 226 1061 l 64 1061 z "},"Ì":{"ha":292,"x_min":-60,"x_max":226,"o":"m 63 0 q 56 7 56 0 l 57 961 q 63 967 57 967 l 218 967 q 224 961 224 967 l 225 7 q 219 0 225 0 l 63 0 m 81 1038 q 72 1043 75 1038 l -57 1283 q -51 1289 -60 1289 l 107 1289 q 114 1283 113 1289 l 225 1043 q 219 1038 226 1038 l 81 1038 z "},"Ī":{"ha":292,"x_min":-72,"x_max":354,"o":"m 63 0 q 56 7 56 0 l 57 961 q 63 967 57 967 l 218 967 q 224 961 224 967 l 225 7 q 219 0 225 0 l 63 0 m -67 1072 q -72 1078 -72 1072 l -72 1190 q -67 1196 -72 1196 l 349 1196 q 354 1190 354 1196 l 354 1078 q 349 1072 354 1072 l -67 1072 z "},"Į":{"ha":292,"x_min":-62,"x_max":225,"o":"m 63 0 q 56 7 56 0 l 57 961 q 63 967 57 967 l 218 967 q 224 961 224 967 l 225 7 q 219 0 225 0 l 63 0 m 215 -410 q 56 -379 117 -410 q -34 -297 -6 -349 q -62 -186 -62 -246 q 2 -40 -62 -100 q 169 61 67 21 l 221 0 q 109 -76 136 -43 q 82 -150 82 -110 q 115 -219 82 -193 q 214 -244 149 -244 q 219 -248 218 -244 q 221 -262 221 -251 l 222 -399 q 215 -410 222 -410 z "},"Ĩ":{"ha":293,"x_min":-121,"x_max":410,"o":"m 250 1046 q 178 1060 211 1046 q 119 1090 146 1075 q 69 1104 93 1104 q 29 1091 43 1104 q 15 1058 15 1078 q 10 1053 15 1053 l -115 1053 q -121 1058 -121 1053 q -99 1133 -121 1094 q -38 1197 -78 1171 q 57 1224 1 1224 q 128 1210 97 1224 q 183 1183 158 1197 q 225 1169 207 1169 q 259 1182 244 1169 q 274 1221 274 1194 q 279 1226 274 1226 l 404 1226 q 410 1221 410 1226 q 387 1125 410 1164 q 327 1066 364 1086 q 250 1046 290 1046 m 63 0 q 56 7 56 0 l 57 961 q 63 967 57 967 l 218 967 q 224 961 224 967 l 225 7 q 219 0 225 0 l 63 0 z "},"J":{"ha":604,"x_min":11,"x_max":554,"o":"m 283 -14 q 144 23 206 -14 q 47 124 82 60 q 11 269 11 189 l 11 333 q 17 339 11 339 l 174 339 q 179 332 179 339 l 179 269 q 208 186 179 218 q 283 154 238 154 q 356 189 325 154 q 386 269 386 224 l 386 960 q 392 965 386 965 l 547 965 q 553 958 553 965 l 554 269 q 517 128 554 193 q 419 25 481 64 q 283 -14 358 -14 z "},"Ĵ":{"ha":604,"x_min":11,"x_max":746,"o":"m 283 -14 q 144 23 206 -14 q 47 124 82 60 q 11 269 11 189 l 11 333 q 17 339 11 339 l 174 339 q 179 332 179 339 l 179 269 q 208 186 179 218 q 283 154 238 154 q 356 189 325 154 q 386 269 386 224 l 386 960 q 392 965 386 965 l 547 965 q 553 958 553 965 l 554 269 q 517 128 554 193 q 419 25 481 64 q 283 -14 358 -14 z "},"K":{"ha":651,"x_min":56,"x_max":647,"o":"m 61 0 q 56 7 56 0 l 58 960 q 64 967 58 967 l 219 967 q 225 960 225 967 l 225 631 l 443 961 q 453 967 447 967 l 613 967 q 615 961 618 967 l 375 578 l 644 6 q 638 0 647 0 l 468 0 q 460 6 461 0 l 272 414 l 224 338 l 224 7 q 218 0 224 0 l 61 0 z "},"Ķ":{"ha":651,"x_min":56,"x_max":647,"o":"m 61 0 q 56 7 56 0 l 58 960 q 64 967 58 967 l 219 967 q 225 960 225 967 l 225 631 l 443 961 q 453 967 447 967 l 613 967 q 615 961 618 967 l 375 578 l 644 6 q 638 0 647 0 l 468 0 q 460 6 461 0 l 272 414 l 224 338 l 224 7 q 218 0 224 0 l 61 0 m 240 -410 l 240 -324 q 299 -297 275 -324 q 324 -235 324 -271 l 246 -235 q 240 -229 240 -235 l 240 -74 q 246 -68 240 -68 l 403 -68 q 408 -74 408 -68 l 408 -235 q 385 -324 408 -283 q 323 -387 361 -364 q 240 -410 285 -410 z "},"L":{"ha":551,"x_min":56,"x_max":517,"o":"m 61 0 q 56 7 56 0 l 57 960 q 64 967 57 967 l 218 967 q 225 960 225 967 l 224 171 l 510 171 q 517 164 517 171 l 517 7 q 510 0 517 0 l 61 0 z "},"Ĺ":{"ha":551,"x_min":56,"x_max":517,"o":"m 61 0 q 56 7 56 0 l 57 960 q 64 967 57 967 l 218 967 q 225 960 225 967 l 224 171 l 510 171 q 517 164 517 171 l 517 7 q 510 0 517 0 l 61 0 m 63 1038 q 57 1043 56 1038 l 168 1283 q 175 1289 169 1289 l 333 1289 q 339 1283 342 1289 l 210 1043 q 201 1038 207 1038 l 63 1038 z "},"Ľ":{"ha":551,"x_min":56,"x_max":517,"o":"m 301 674 q 296 679 294 674 l 339 963 q 346 968 340 968 l 504 968 q 510 963 513 968 l 449 679 q 440 674 446 674 l 301 674 m 61 0 q 56 7 56 0 l 57 960 q 64 967 57 967 l 218 967 q 225 960 225 967 l 224 171 l 510 171 q 517 164 517 171 l 517 7 q 510 0 517 0 l 61 0 z "},"Ļ":{"ha":551,"x_min":56,"x_max":517,"o":"m 61 0 q 56 7 56 0 l 57 960 q 64 967 57 967 l 218 967 q 225 960 225 967 l 224 171 l 510 171 q 517 164 517 171 l 517 7 q 510 0 517 0 l 61 0 m 206 -410 l 206 -324 q 265 -297 240 -324 q 289 -235 289 -271 l 211 -235 q 206 -229 206 -235 l 206 -74 q 211 -68 206 -68 l 368 -68 q 374 -74 374 -68 l 374 -235 q 350 -324 374 -283 q 288 -387 326 -364 q 206 -410 250 -410 z "},"Ŀ":{"ha":551,"x_min":56,"x_max":517,"o":"m 61 0 q 56 7 56 0 l 57 960 q 64 967 57 967 l 218 967 q 225 960 225 967 l 224 171 l 510 171 q 517 164 517 171 l 517 7 q 510 0 517 0 l 61 0 z "},"Ł":{"ha":551,"x_min":-56,"x_max":517,"o":"m 61 0 q 56 7 56 0 l 56 419 l -3 399 q -11 403 -8 397 l -53 522 q -49 532 -56 529 l 57 568 l 57 960 q 64 967 57 967 l 218 967 q 225 960 225 967 l 225 625 l 365 674 q 374 669 371 676 l 414 549 q 411 540 417 542 l 224 476 l 224 171 l 510 171 q 517 164 517 171 l 517 7 q 510 0 517 0 l 61 0 z "},"M":{"ha":746,"x_min":56,"x_max":685,"o":"m 61 0 q 56 7 56 0 l 58 961 q 64 967 58 967 l 233 967 q 243 961 239 967 l 369 778 l 496 961 q 506 967 500 967 l 676 967 q 682 961 682 967 l 685 7 q 679 0 685 0 l 522 0 q 517 7 517 0 l 515 715 l 369 504 l 225 715 l 224 7 q 218 0 224 0 l 61 0 z "},"N":{"ha":644,"x_min":56,"x_max":579,"o":"m 68 0 q 57 10 57 0 l 56 956 q 67 967 56 967 l 192 967 l 426 419 l 419 956 q 432 967 419 967 l 569 967 q 578 956 578 967 l 579 8 q 572 0 579 0 l 450 0 l 210 511 l 219 11 q 207 0 219 0 l 68 0 z "},"Ń":{"ha":644,"x_min":56,"x_max":579,"o":"m 68 0 q 57 10 57 0 l 56 956 q 67 967 56 967 l 192 967 l 426 419 l 419 956 q 432 967 419 967 l 569 967 q 578 956 578 967 l 579 8 q 572 0 579 0 l 450 0 l 210 511 l 219 11 q 207 0 219 0 l 68 0 m 215 1038 q 210 1043 208 1038 l 321 1283 q 328 1289 322 1289 l 486 1289 q 492 1283 494 1289 l 363 1043 q 354 1038 360 1038 l 215 1038 z "},"Ň":{"ha":644,"x_min":26,"x_max":579,"o":"m 68 0 q 57 10 57 0 l 56 956 q 67 967 56 967 l 192 967 l 426 419 l 419 956 q 432 967 419 967 l 569 967 q 578 956 578 967 l 579 8 q 572 0 579 0 l 450 0 l 210 511 l 219 11 q 207 0 219 0 l 68 0 m 218 1042 q 210 1047 213 1042 l 29 1260 q 35 1265 26 1265 l 193 1265 q 200 1260 199 1265 l 297 1139 l 396 1260 q 403 1265 397 1265 l 561 1265 q 567 1260 569 1265 l 386 1047 q 378 1042 383 1042 l 218 1042 z "},"Ņ":{"ha":644,"x_min":56,"x_max":579,"o":"m 68 0 q 57 10 57 0 l 56 956 q 67 967 56 967 l 192 967 l 426 419 l 419 956 q 432 967 419 967 l 569 967 q 578 956 578 967 l 579 8 q 572 0 579 0 l 450 0 l 210 511 l 219 11 q 207 0 219 0 l 68 0 m 244 -410 l 244 -324 q 303 -297 279 -324 q 328 -235 328 -271 l 250 -235 q 244 -229 244 -235 l 244 -74 q 250 -68 244 -68 l 407 -68 q 413 -74 413 -68 l 413 -235 q 389 -324 413 -283 q 327 -387 365 -364 q 244 -410 289 -410 z "},"Ŋ":{"ha":644,"x_min":56,"x_max":579,"o":"m 68 0 q 57 10 57 0 l 56 956 q 67 967 56 967 l 192 967 l 426 419 l 419 956 q 432 967 419 967 l 569 967 q 578 956 578 967 l 579 42 l 579 42 l 579 -112 q 552 -274 579 -215 q 475 -358 525 -333 q 353 -382 425 -382 l 313 -382 q 307 -376 307 -382 l 307 -225 q 313 -219 307 -219 l 349 -219 q 417 -199 400 -219 q 435 -117 435 -178 l 435 32 l 210 511 l 219 11 q 207 0 219 0 l 68 0 z "},"Ñ":{"ha":644,"x_min":53,"x_max":583,"o":"m 68 0 q 57 10 57 0 l 56 956 q 67 967 56 967 l 192 967 l 426 419 l 419 956 q 432 967 419 967 l 569 967 q 578 956 578 967 l 579 8 q 572 0 579 0 l 450 0 l 210 511 l 219 11 q 207 0 219 0 l 68 0 m 424 1046 q 352 1060 385 1046 q 293 1090 319 1075 q 243 1104 267 1104 q 203 1091 217 1104 q 189 1058 189 1078 q 183 1053 189 1053 l 58 1053 q 53 1058 53 1053 q 74 1133 53 1094 q 135 1197 96 1171 q 231 1224 175 1224 q 301 1210 271 1224 q 356 1183 332 1197 q 399 1169 381 1169 q 433 1182 418 1169 q 447 1221 447 1194 q 453 1226 447 1226 l 578 1226 q 583 1221 583 1226 q 560 1125 583 1164 q 501 1066 538 1086 q 424 1046 464 1046 z "},"O":{"ha":635,"x_min":39,"x_max":585,"o":"m 313 -14 q 176 24 238 -14 q 76 126 114 63 q 39 265 39 189 l 40 706 q 77 844 40 782 q 176 944 114 907 q 313 982 239 982 q 449 944 388 982 q 547 844 510 907 q 583 706 583 782 l 585 265 q 548 126 585 189 q 449 24 511 63 q 313 -14 388 -14 m 313 154 q 385 188 354 154 q 417 265 417 222 l 415 706 q 386 783 415 751 q 313 815 357 815 q 239 784 269 815 q 208 706 208 753 l 208 265 q 239 187 208 219 q 313 154 269 154 z "},"Ó":{"ha":635,"x_min":39,"x_max":585,"o":"m 313 -14 q 176 24 238 -14 q 76 126 114 63 q 39 265 39 189 l 40 706 q 77 844 40 782 q 176 944 114 907 q 313 982 239 982 q 449 944 388 982 q 547 844 510 907 q 583 706 583 782 l 585 265 q 548 126 585 189 q 449 24 511 63 q 313 -14 388 -14 m 313 154 q 385 188 354 154 q 417 265 417 222 l 415 706 q 386 783 415 751 q 313 815 357 815 q 239 784 269 815 q 208 706 208 753 l 208 265 q 239 187 208 219 q 313 154 269 154 m 228 1038 q 222 1043 221 1038 l 333 1283 q 340 1289 335 1289 l 499 1289 q 504 1283 507 1289 l 375 1043 q 367 1038 372 1038 l 228 1038 z "},"Ŏ":{"ha":635,"x_min":39,"x_max":585,"o":"m 313 -14 q 176 24 238 -14 q 76 126 114 63 q 39 265 39 189 l 40 706 q 77 844 40 782 q 176 944 114 907 q 313 982 239 982 q 449 944 388 982 q 547 844 510 907 q 583 706 583 782 l 585 265 q 548 126 585 189 q 449 24 511 63 q 313 -14 388 -14 m 313 154 q 385 188 354 154 q 417 265 417 222 l 415 706 q 386 783 415 751 q 313 815 357 815 q 239 784 269 815 q 208 706 208 753 l 208 265 q 239 187 208 219 q 313 154 269 154 m 310 1038 q 190 1067 243 1038 q 105 1143 136 1096 q 74 1244 74 1190 q 79 1250 71 1250 l 204 1250 q 235 1180 204 1211 q 314 1149 267 1149 q 394 1180 363 1149 q 425 1250 425 1211 l 550 1250 q 556 1244 556 1250 q 523 1142 556 1189 q 435 1066 490 1094 q 310 1038 379 1038 z "},"Ô":{"ha":635,"x_min":39,"x_max":585,"o":"m 313 -14 q 176 24 238 -14 q 76 126 114 63 q 39 265 39 189 l 40 706 q 77 844 40 782 q 176 944 114 907 q 313 982 239 982 q 449 944 388 982 q 547 844 510 907 q 583 706 583 782 l 585 265 q 548 126 585 189 q 449 24 511 63 q 313 -14 388 -14 m 313 154 q 385 188 354 154 q 417 265 417 222 l 415 706 q 386 783 415 751 q 313 815 357 815 q 239 784 269 815 q 208 706 208 753 l 208 265 q 239 187 208 219 q 313 154 269 154 m 47 1039 q 42 1044 39 1039 l 222 1257 q 231 1263 225 1263 l 390 1263 q 399 1257 396 1263 l 579 1044 q 574 1039 582 1039 l 411 1039 q 404 1044 406 1039 l 307 1165 l 208 1044 q 201 1039 207 1039 l 47 1039 z "},"Ö":{"ha":635,"x_min":39,"x_max":585,"o":"m 313 -14 q 176 24 238 -14 q 76 126 114 63 q 39 265 39 189 l 40 706 q 77 844 40 782 q 176 944 114 907 q 313 982 239 982 q 449 944 388 982 q 547 844 510 907 q 583 706 583 782 l 585 265 q 548 126 585 189 q 449 24 511 63 q 313 -14 388 -14 m 313 154 q 385 188 354 154 q 417 265 417 222 l 415 706 q 386 783 415 751 q 313 815 357 815 q 239 784 269 815 q 208 706 208 753 l 208 265 q 239 187 208 219 q 313 154 269 154 m 378 1061 q 372 1067 372 1061 l 372 1224 q 378 1229 372 1229 l 535 1229 q 540 1224 540 1229 l 540 1067 q 535 1061 540 1061 l 378 1061 m 89 1061 q 83 1067 83 1061 l 83 1224 q 89 1229 83 1229 l 246 1229 q 251 1224 251 1229 l 251 1067 q 246 1061 251 1061 l 89 1061 z "},"Ò":{"ha":635,"x_min":39,"x_max":585,"o":"m 313 -14 q 176 24 238 -14 q 76 126 114 63 q 39 265 39 189 l 40 706 q 77 844 40 782 q 176 944 114 907 q 313 982 239 982 q 449 944 388 982 q 547 844 510 907 q 583 706 583 782 l 585 265 q 548 126 585 189 q 449 24 511 63 q 313 -14 388 -14 m 313 154 q 385 188 354 154 q 417 265 417 222 l 415 706 q 386 783 415 751 q 313 815 357 815 q 239 784 269 815 q 208 706 208 753 l 208 265 q 239 187 208 219 q 313 154 269 154 m 247 1038 q 239 1043 242 1038 l 110 1283 q 115 1289 107 1289 l 274 1289 q 281 1283 279 1289 l 392 1043 q 386 1038 393 1038 l 247 1038 z "},"Ő":{"ha":635,"x_min":39,"x_max":639,"o":"m 313 -14 q 176 24 238 -14 q 76 126 114 63 q 39 265 39 189 l 40 706 q 77 844 40 782 q 176 944 114 907 q 313 982 239 982 q 449 944 388 982 q 547 844 510 907 q 583 706 583 782 l 585 265 q 548 126 585 189 q 449 24 511 63 q 313 -14 388 -14 m 313 154 q 385 188 354 154 q 417 265 417 222 l 415 706 q 386 783 415 751 q 313 815 357 815 q 239 784 269 815 q 208 706 208 753 l 208 265 q 239 187 208 219 q 313 154 269 154 m 376 1038 q 371 1043 369 1038 l 465 1283 q 472 1289 467 1289 l 631 1289 q 636 1283 639 1289 l 524 1043 q 515 1038 521 1038 l 376 1038 m 76 1038 q 71 1043 69 1038 l 161 1283 q 168 1289 163 1289 l 326 1289 q 332 1283 335 1289 l 224 1043 q 215 1038 221 1038 l 76 1038 z "},"Ō":{"ha":635,"x_min":39,"x_max":585,"o":"m 313 -14 q 176 24 238 -14 q 76 126 114 63 q 39 265 39 189 l 40 706 q 77 844 40 782 q 176 944 114 907 q 313 982 239 982 q 449 944 388 982 q 547 844 510 907 q 583 706 583 782 l 585 265 q 548 126 585 189 q 449 24 511 63 q 313 -14 388 -14 m 313 154 q 385 188 354 154 q 417 265 417 222 l 415 706 q 386 783 415 751 q 313 815 357 815 q 239 784 269 815 q 208 706 208 753 l 208 265 q 239 187 208 219 q 313 154 269 154 m 100 1072 q 94 1078 94 1072 l 94 1190 q 100 1196 94 1196 l 515 1196 q 521 1190 521 1196 l 521 1078 q 515 1072 521 1072 l 100 1072 z "},"Ø":{"ha":636,"x_min":-36,"x_max":669,"o":"m -29 -51 q -34 -49 -32 -51 q -35 -43 -36 -46 l 67 143 q 39 265 39 200 l 40 706 q 77 844 40 782 q 176 944 114 907 q 313 982 239 982 q 409 964 364 982 q 490 914 454 946 l 544 1013 q 553 1017 547 1017 l 658 1017 q 664 1006 669 1017 l 561 817 q 583 706 583 764 l 585 265 q 548 126 585 189 q 449 24 511 63 q 313 -14 388 -14 q 220 3 264 -14 q 140 49 176 19 l 88 -49 q 81 -51 85 -51 l -29 -51 m 208 706 l 208 400 l 404 757 q 367 799 392 783 q 313 815 343 815 q 239 784 269 815 q 208 706 208 753 m 313 154 q 385 188 354 154 q 417 265 417 222 l 415 551 l 226 204 q 263 168 240 182 q 313 154 286 154 z "},"Ǿ":{"ha":636,"x_min":-36,"x_max":669,"o":"m -29 -51 q -34 -49 -32 -51 q -35 -43 -36 -46 l 67 143 q 39 265 39 200 l 40 706 q 77 844 40 782 q 176 944 114 907 q 313 982 239 982 q 409 964 364 982 q 490 914 454 946 l 544 1013 q 553 1017 547 1017 l 658 1017 q 664 1006 669 1017 l 561 817 q 583 706 583 764 l 585 265 q 548 126 585 189 q 449 24 511 63 q 313 -14 388 -14 q 220 3 264 -14 q 140 49 176 19 l 88 -49 q 81 -51 85 -51 l -29 -51 m 208 706 l 208 400 l 404 757 q 367 799 392 783 q 313 815 343 815 q 239 784 269 815 q 208 706 208 753 m 313 154 q 385 188 354 154 q 417 265 417 222 l 415 551 l 226 204 q 263 168 240 182 q 313 154 286 154 m 228 1038 q 222 1043 221 1038 l 333 1283 q 340 1289 335 1289 l 499 1289 q 504 1283 507 1289 l 375 1043 q 367 1038 372 1038 l 228 1038 z "},"Õ":{"ha":636,"x_min":39,"x_max":585,"o":"m 421 1046 q 349 1060 382 1046 q 290 1090 317 1075 q 240 1104 264 1104 q 200 1091 214 1104 q 186 1058 186 1078 q 181 1053 186 1053 l 56 1053 q 50 1058 50 1053 q 72 1133 50 1094 q 133 1197 93 1171 q 228 1224 172 1224 q 299 1210 268 1224 q 353 1183 329 1197 q 396 1169 378 1169 q 430 1182 415 1169 q 444 1221 444 1194 q 450 1226 444 1226 l 575 1226 q 581 1221 581 1226 q 558 1125 581 1164 q 498 1066 535 1086 q 421 1046 461 1046 m 313 -14 q 176 24 238 -14 q 76 126 114 63 q 39 265 39 189 l 40 706 q 77 844 40 782 q 176 944 114 907 q 313 982 239 982 q 449 944 388 982 q 547 844 510 907 q 583 706 583 782 l 585 265 q 548 126 585 189 q 449 24 511 63 q 313 -14 388 -14 m 313 154 q 385 188 354 154 q 417 265 417 222 l 415 706 q 386 783 415 751 q 313 815 357 815 q 239 784 269 815 q 208 706 208 753 l 208 265 q 239 187 208 219 q 313 154 269 154 z "},"Œ":{"ha":915,"x_min":39,"x_max":847,"o":"m 313 0 q 176 38 238 0 q 76 140 114 76 q 39 279 39 203 l 40 692 q 77 830 40 768 q 176 929 114 892 q 313 967 239 967 l 840 967 q 846 960 846 967 l 846 804 q 840 799 846 799 l 556 799 l 556 582 l 840 582 q 846 576 846 582 l 847 419 q 842 414 847 414 l 556 414 l 556 171 l 842 171 q 847 164 847 171 l 847 6 q 842 0 847 0 l 313 0 m 313 168 q 338 168 314 168 q 388 168 363 168 l 389 801 l 313 801 q 239 770 269 801 q 208 692 208 739 l 208 279 q 239 201 208 233 q 313 168 269 168 z "},"P":{"ha":635,"x_min":56,"x_max":607,"o":"m 63 0 q 56 7 56 0 l 58 961 q 64 967 58 967 l 331 967 q 533 889 458 967 q 607 678 607 811 q 568 507 607 579 q 467 396 529 435 q 331 357 404 357 l 225 357 l 225 7 q 218 0 225 0 l 63 0 m 225 525 l 331 525 q 408 567 375 525 q 440 678 440 610 q 411 767 440 732 q 331 801 382 801 l 225 800 l 225 525 z "},"Þ":{"ha":636,"x_min":56,"x_max":608,"o":"m 63 0 q 56 7 56 0 l 58 961 q 64 967 58 967 l 217 967 q 225 958 225 967 l 225 806 l 332 806 q 534 728 460 806 q 608 517 608 650 q 569 347 608 419 q 467 235 531 275 q 332 196 404 196 l 225 196 l 225 7 q 218 0 225 0 l 63 0 m 225 364 l 332 364 q 409 406 376 364 q 442 517 442 449 q 413 606 442 571 q 332 640 383 642 l 225 639 l 225 364 z "},"Q":{"ha":647,"x_min":39,"x_max":636,"o":"m 513 -89 l 417 8 q 313 -14 367 -14 q 176 24 239 -14 q 76 125 114 61 q 39 265 39 189 l 40 706 q 76 842 40 779 q 174 944 113 906 q 313 982 236 982 q 448 945 386 982 q 547 846 510 908 q 583 706 583 783 l 585 265 q 574 188 585 225 q 544 118 563 150 l 631 31 q 632 21 636 25 l 522 -89 q 513 -89 517 -93 m 313 154 q 388 190 360 154 q 417 265 417 225 l 415 706 q 386 783 415 750 q 313 815 357 815 q 237 782 265 815 q 208 706 208 749 l 208 265 q 241 185 208 215 q 313 154 274 154 z "},"R":{"ha":669,"x_min":56,"x_max":621,"o":"m 61 0 q 56 7 56 0 l 58 961 q 64 967 58 967 l 344 967 q 483 930 419 967 q 583 831 546 893 q 621 692 621 769 q 606 599 621 640 q 569 530 590 558 q 532 488 549 501 q 607 292 607 404 l 608 7 q 601 0 608 0 l 444 0 q 439 4 439 0 l 439 292 q 403 378 439 342 q 317 415 368 415 l 225 415 l 224 7 q 218 0 224 0 l 61 0 m 225 582 l 344 582 q 421 614 388 582 q 454 692 454 646 q 422 768 454 736 q 344 800 389 800 l 225 800 l 225 582 z "},"Ŕ":{"ha":669,"x_min":56,"x_max":621,"o":"m 61 0 q 56 7 56 0 l 58 961 q 64 967 58 967 l 344 967 q 483 930 419 967 q 583 831 546 893 q 621 692 621 769 q 606 599 621 640 q 569 530 590 558 q 532 488 549 501 q 607 292 607 404 l 608 7 q 601 0 608 0 l 444 0 q 439 4 439 0 l 439 292 q 403 378 439 342 q 317 415 368 415 l 225 415 l 224 7 q 218 0 224 0 l 61 0 m 225 582 l 344 582 q 421 614 388 582 q 454 692 454 646 q 422 768 454 736 q 344 800 389 800 l 225 800 l 225 582 m 239 1038 q 233 1043 232 1038 l 344 1283 q 351 1289 346 1289 l 510 1289 q 515 1283 518 1289 l 386 1043 q 378 1038 383 1038 l 239 1038 z "},"Ř":{"ha":669,"x_min":50,"x_max":621,"o":"m 61 0 q 56 7 56 0 l 58 961 q 64 967 58 967 l 344 967 q 483 930 419 967 q 583 831 546 893 q 621 692 621 769 q 606 599 621 640 q 569 530 590 558 q 532 488 549 501 q 607 292 607 404 l 608 7 q 601 0 608 0 l 444 0 q 439 4 439 0 l 439 292 q 403 378 439 342 q 317 415 368 415 l 225 415 l 224 7 q 218 0 224 0 l 61 0 m 225 582 l 344 582 q 421 614 388 582 q 454 692 454 646 q 422 768 454 736 q 344 800 389 800 l 225 800 l 225 582 m 242 1042 q 233 1047 236 1042 l 53 1260 q 58 1265 50 1265 l 217 1265 q 224 1260 222 1265 l 321 1139 l 419 1260 q 426 1265 421 1265 l 585 1265 q 590 1260 593 1265 l 410 1047 q 401 1042 407 1042 l 242 1042 z "},"Ŗ":{"ha":669,"x_min":56,"x_max":621,"o":"m 61 0 q 56 7 56 0 l 58 961 q 64 967 58 967 l 344 967 q 483 930 419 967 q 583 831 546 893 q 621 692 621 769 q 606 599 621 640 q 569 530 590 558 q 532 488 549 501 q 607 292 607 404 l 608 7 q 601 0 608 0 l 444 0 q 439 4 439 0 l 439 292 q 403 378 439 342 q 317 415 368 415 l 225 415 l 224 7 q 218 0 224 0 l 61 0 m 225 582 l 344 582 q 421 614 388 582 q 454 692 454 646 q 422 768 454 736 q 344 800 389 800 l 225 800 l 225 582 m 246 -410 l 246 -324 q 305 -297 281 -324 q 329 -235 329 -271 l 251 -235 q 246 -229 246 -235 l 246 -74 q 251 -68 246 -68 l 408 -68 q 414 -74 414 -68 l 414 -235 q 390 -324 414 -283 q 328 -387 367 -364 q 246 -410 290 -410 z "},"S":{"ha":606,"x_min":19,"x_max":564,"o":"m 292 -14 q 155 24 217 -14 q 56 126 93 63 q 19 265 19 189 l 19 329 q 26 336 19 336 l 182 336 q 188 329 188 336 l 188 265 q 218 187 188 219 q 292 154 249 154 q 365 188 335 154 q 396 265 396 221 q 329 354 396 317 q 260 393 307 367 q 171 443 213 419 q 58 555 94 488 q 21 707 21 622 q 58 847 21 785 q 158 944 96 908 q 292 981 219 981 q 427 944 365 981 q 526 845 489 907 q 563 707 563 783 l 563 593 q 557 588 563 588 l 401 588 q 396 593 396 588 l 394 707 q 364 786 394 756 q 292 817 333 817 q 218 784 249 817 q 188 707 188 751 q 207 631 188 661 q 278 572 226 600 q 305 558 285 568 q 349 534 325 547 q 391 511 372 521 q 414 499 410 501 q 524 403 483 460 q 564 265 564 347 q 527 123 564 186 q 428 23 490 60 q 292 -14 367 -14 z "},"Ś":{"ha":606,"x_min":19,"x_max":564,"o":"m 292 -14 q 155 24 217 -14 q 56 126 93 63 q 19 265 19 189 l 19 329 q 26 336 19 336 l 182 336 q 188 329 188 336 l 188 265 q 218 187 188 219 q 292 154 249 154 q 365 188 335 154 q 396 265 396 221 q 329 354 396 317 q 260 393 307 367 q 171 443 213 419 q 58 555 94 488 q 21 707 21 622 q 58 847 21 785 q 158 944 96 908 q 292 981 219 981 q 427 944 365 981 q 526 845 489 907 q 563 707 563 783 l 563 593 q 557 588 563 588 l 401 588 q 396 593 396 588 l 394 707 q 364 786 394 756 q 292 817 333 817 q 218 784 249 817 q 188 707 188 751 q 207 631 188 661 q 278 572 226 600 q 305 558 285 568 q 349 534 325 547 q 391 511 372 521 q 414 499 410 501 q 524 403 483 460 q 564 265 564 347 q 527 123 564 186 q 428 23 490 60 q 292 -14 367 -14 m 207 1038 q 201 1043 200 1038 l 313 1283 q 319 1289 314 1289 l 478 1289 q 483 1283 486 1289 l 354 1043 q 346 1038 351 1038 l 207 1038 z "},"Š":{"ha":606,"x_min":18,"x_max":564,"o":"m 292 -14 q 155 24 217 -14 q 56 126 93 63 q 19 265 19 189 l 19 329 q 26 336 19 336 l 182 336 q 188 329 188 336 l 188 265 q 218 187 188 219 q 292 154 249 154 q 365 188 335 154 q 396 265 396 221 q 329 354 396 317 q 260 393 307 367 q 171 443 213 419 q 58 555 94 488 q 21 707 21 622 q 58 847 21 785 q 158 944 96 908 q 292 981 219 981 q 427 944 365 981 q 526 845 489 907 q 563 707 563 783 l 563 593 q 557 588 563 588 l 401 588 q 396 593 396 588 l 394 707 q 364 786 394 756 q 292 817 333 817 q 218 784 249 817 q 188 707 188 751 q 207 631 188 661 q 278 572 226 600 q 305 558 285 568 q 349 534 325 547 q 391 511 372 521 q 414 499 410 501 q 524 403 483 460 q 564 265 564 347 q 527 123 564 186 q 428 23 490 60 q 292 -14 367 -14 m 210 1042 q 201 1047 204 1042 l 21 1260 q 26 1265 18 1265 l 185 1265 q 192 1260 190 1265 l 289 1139 l 388 1260 q 394 1265 389 1265 l 553 1265 q 558 1260 561 1265 l 378 1047 q 369 1042 375 1042 l 210 1042 z "},"Ş":{"ha":606,"x_min":19,"x_max":564,"o":"m 292 -14 q 155 24 217 -14 q 56 126 93 63 q 19 265 19 189 l 19 329 q 26 336 19 336 l 182 336 q 188 329 188 336 l 188 265 q 218 187 188 219 q 292 154 249 154 q 365 188 335 154 q 396 265 396 221 q 329 354 396 317 q 260 393 307 367 q 171 443 213 419 q 58 555 94 488 q 21 707 21 622 q 58 847 21 785 q 158 944 96 908 q 292 981 219 981 q 427 944 365 981 q 526 845 489 907 q 563 707 563 783 l 563 593 q 557 588 563 588 l 401 588 q 396 593 396 588 l 394 707 q 364 786 394 756 q 292 817 333 817 q 218 784 249 817 q 188 707 188 751 q 207 631 188 661 q 278 572 226 600 q 305 558 285 568 q 349 534 325 547 q 391 511 372 521 q 414 499 410 501 q 524 403 483 460 q 564 265 564 347 q 527 123 564 186 q 428 23 490 60 q 292 -14 367 -14 m 154 -136 q 149 -131 146 -136 l 242 22 q 250 28 244 28 l 365 28 q 371 22 372 28 l 326 -57 q 442 -110 399 -68 q 485 -210 485 -151 q 455 -311 485 -265 q 375 -383 425 -357 q 261 -410 325 -410 q 185 -403 224 -410 q 128 -386 147 -397 q 125 -382 125 -383 l 121 -260 q 129 -254 121 -251 q 203 -273 171 -268 q 258 -278 236 -278 q 326 -261 303 -278 q 350 -217 350 -244 q 307 -158 350 -181 q 169 -136 264 -136 l 154 -136 z "},"Ŝ":{"ha":606,"x_min":18,"x_max":564,"o":"m 292 -14 q 155 24 217 -14 q 56 126 93 63 q 19 265 19 189 l 19 329 q 26 336 19 336 l 182 336 q 188 329 188 336 l 188 265 q 218 187 188 219 q 292 154 249 154 q 365 188 335 154 q 396 265 396 221 q 329 354 396 317 q 260 393 307 367 q 171 443 213 419 q 58 555 94 488 q 21 707 21 622 q 58 847 21 785 q 158 944 96 908 q 292 981 219 981 q 427 944 365 981 q 526 845 489 907 q 563 707 563 783 l 563 593 q 557 588 563 588 l 401 588 q 396 593 396 588 l 394 707 q 364 786 394 756 q 292 817 333 817 q 218 784 249 817 q 188 707 188 751 q 207 631 188 661 q 278 572 226 600 q 305 558 285 568 q 349 534 325 547 q 391 511 372 521 q 414 499 410 501 q 524 403 483 460 q 564 265 564 347 q 527 123 564 186 q 428 23 490 60 q 292 -14 367 -14 m 26 1039 q 21 1044 18 1039 l 201 1257 q 210 1263 204 1263 l 369 1263 q 378 1257 375 1263 l 558 1044 q 553 1039 561 1039 l 390 1039 q 383 1044 385 1039 l 286 1165 l 188 1044 q 181 1039 186 1039 l 26 1039 z "},"Ș":{"ha":606,"x_min":19,"x_max":564,"o":"m 292 -14 q 155 24 217 -14 q 56 126 93 63 q 19 265 19 189 l 19 329 q 26 336 19 336 l 182 336 q 188 329 188 336 l 188 265 q 218 187 188 219 q 292 154 249 154 q 365 188 335 154 q 396 265 396 221 q 329 354 396 317 q 260 393 307 367 q 171 443 213 419 q 58 555 94 488 q 21 707 21 622 q 58 847 21 785 q 158 944 96 908 q 292 981 219 981 q 427 944 365 981 q 526 845 489 907 q 563 707 563 783 l 563 593 q 557 588 563 588 l 401 588 q 396 593 396 588 l 394 707 q 364 786 394 756 q 292 817 333 817 q 218 784 249 817 q 188 707 188 751 q 207 631 188 661 q 278 572 226 600 q 305 558 285 568 q 349 534 325 547 q 391 511 372 521 q 414 499 410 501 q 524 403 483 460 q 564 265 564 347 q 527 123 564 186 q 428 23 490 60 q 292 -14 367 -14 m 217 -410 l 217 -324 q 276 -297 251 -324 q 300 -235 300 -271 l 222 -235 q 217 -229 217 -235 l 217 -74 q 222 -68 217 -68 l 379 -68 q 385 -74 385 -68 l 385 -235 q 361 -324 385 -283 q 299 -387 338 -364 q 217 -410 261 -410 z "},"T":{"ha":556,"x_min":1,"x_max":543,"o":"m 194 0 q 189 7 189 0 l 189 799 l 8 799 q 1 806 1 799 l 3 961 q 8 967 3 967 l 536 967 q 543 961 543 967 l 543 806 q 538 799 543 799 l 356 799 l 357 7 q 351 0 357 0 l 194 0 z "},"Ŧ":{"ha":556,"x_min":1,"x_max":543,"o":"m 194 0 q 189 7 189 0 l 189 431 l 72 431 q 67 438 67 431 l 67 582 q 74 589 67 589 l 189 589 l 189 799 l 8 799 q 1 806 1 799 l 3 961 q 8 967 3 967 l 536 967 q 543 961 543 967 l 543 806 q 538 799 543 799 l 356 799 l 356 589 l 476 589 q 482 582 482 589 l 482 438 q 476 431 482 431 l 356 431 l 357 7 q 351 0 357 0 l 194 0 z "},"Ť":{"ha":556,"x_min":-1,"x_max":543,"o":"m 194 0 q 189 7 189 0 l 189 799 l 8 799 q 1 806 1 799 l 3 961 q 8 967 3 967 l 536 967 q 543 961 543 967 l 543 806 q 538 799 543 799 l 356 799 l 357 7 q 351 0 357 0 l 194 0 m 190 1042 q 182 1047 185 1042 l 1 1260 q 7 1265 -1 1265 l 165 1265 q 172 1260 171 1265 l 269 1139 l 368 1260 q 375 1265 369 1265 l 533 1265 q 539 1260 542 1265 l 358 1047 q 350 1042 356 1042 l 190 1042 z "},"Ţ":{"ha":556,"x_min":1,"x_max":543,"o":"m 194 0 q 189 7 189 0 l 189 799 l 8 799 q 1 806 1 799 l 3 961 q 8 967 3 967 l 536 967 q 543 961 543 967 l 543 806 q 538 799 543 799 l 356 799 l 357 7 q 351 0 357 0 l 194 0 m 110 -136 q 104 -131 101 -136 l 197 22 q 206 28 200 28 l 321 28 q 326 22 328 28 l 282 -57 q 397 -110 354 -68 q 440 -210 440 -151 q 410 -311 440 -265 q 331 -383 381 -357 q 217 -410 281 -410 q 141 -403 179 -410 q 83 -386 103 -397 q 81 -382 81 -383 l 76 -260 q 85 -254 76 -251 q 159 -273 126 -268 q 214 -278 192 -278 q 282 -261 258 -278 q 306 -217 306 -244 q 263 -158 306 -181 q 125 -136 219 -136 l 110 -136 z "},"Ț":{"ha":556,"x_min":1,"x_max":543,"o":"m 194 0 q 189 7 189 0 l 189 799 l 8 799 q 1 806 1 799 l 3 961 q 8 967 3 967 l 536 967 q 543 961 543 967 l 543 806 q 538 799 543 799 l 356 799 l 357 7 q 351 0 357 0 l 194 0 m 190 -410 l 190 -324 q 249 -297 225 -324 q 274 -235 274 -271 l 196 -235 q 190 -229 190 -235 l 190 -74 q 196 -68 190 -68 l 353 -68 q 358 -74 358 -68 l 358 -235 q 335 -324 358 -283 q 273 -387 311 -364 q 190 -410 235 -410 z "},"U":{"ha":639,"x_min":39,"x_max":585,"o":"m 311 -14 q 175 24 238 -14 q 76 126 113 63 q 39 267 39 190 l 42 961 q 47 967 42 967 l 203 967 q 208 961 208 967 l 208 267 q 238 187 208 219 q 311 154 268 154 q 385 187 356 154 q 415 267 415 219 l 415 961 q 421 967 415 967 l 576 967 q 582 961 582 967 l 585 267 q 548 125 585 189 q 449 24 511 61 q 311 -14 388 -14 z "},"Ú":{"ha":639,"x_min":39,"x_max":585,"o":"m 311 -14 q 175 24 238 -14 q 76 126 113 63 q 39 267 39 190 l 42 961 q 47 967 42 967 l 203 967 q 208 961 208 967 l 208 267 q 238 187 208 219 q 311 154 268 154 q 385 187 356 154 q 415 267 415 219 l 415 961 q 421 967 415 967 l 576 967 q 582 961 582 967 l 585 267 q 548 125 585 189 q 449 24 511 61 q 311 -14 388 -14 m 225 1038 q 219 1043 218 1038 l 331 1283 q 338 1289 332 1289 l 496 1289 q 501 1283 504 1289 l 372 1043 q 364 1038 369 1038 l 225 1038 z "},"Ŭ":{"ha":639,"x_min":39,"x_max":585,"o":"m 311 -14 q 175 24 238 -14 q 76 126 113 63 q 39 267 39 190 l 42 961 q 47 967 42 967 l 203 967 q 208 961 208 967 l 208 267 q 238 187 208 219 q 311 154 268 154 q 385 187 356 154 q 415 267 415 219 l 415 961 q 421 967 415 967 l 576 967 q 582 961 582 967 l 585 267 q 548 125 585 189 q 449 24 511 61 q 311 -14 388 -14 m 307 1038 q 187 1067 240 1038 q 102 1143 133 1096 q 71 1244 71 1190 q 76 1250 68 1250 l 201 1250 q 233 1180 201 1211 q 311 1149 264 1149 q 391 1180 360 1149 q 422 1250 422 1211 l 547 1250 q 553 1244 553 1250 q 520 1142 553 1189 q 432 1066 488 1094 q 307 1038 376 1038 z "},"Û":{"ha":639,"x_min":36,"x_max":585,"o":"m 311 -14 q 175 24 238 -14 q 76 126 113 63 q 39 267 39 190 l 42 961 q 47 967 42 967 l 203 967 q 208 961 208 967 l 208 267 q 238 187 208 219 q 311 154 268 154 q 385 187 356 154 q 415 267 415 219 l 415 961 q 421 967 415 967 l 576 967 q 582 961 582 967 l 585 267 q 548 125 585 189 q 449 24 511 61 q 311 -14 388 -14 m 44 1039 q 39 1044 36 1039 l 219 1257 q 228 1263 222 1263 l 388 1263 q 396 1257 393 1263 l 576 1044 q 571 1039 579 1039 l 408 1039 q 401 1044 403 1039 l 304 1165 l 206 1044 q 199 1039 204 1039 l 44 1039 z "},"Ü":{"ha":639,"x_min":39,"x_max":585,"o":"m 311 -14 q 175 24 238 -14 q 76 126 113 63 q 39 267 39 190 l 42 961 q 47 967 42 967 l 203 967 q 208 961 208 967 l 208 267 q 238 187 208 219 q 311 154 268 154 q 385 187 356 154 q 415 267 415 219 l 415 961 q 421 967 415 967 l 576 967 q 582 961 582 967 l 585 267 q 548 125 585 189 q 449 24 511 61 q 311 -14 388 -14 m 375 1061 q 369 1067 369 1061 l 369 1224 q 375 1229 369 1229 l 532 1229 q 538 1224 538 1229 l 538 1067 q 532 1061 538 1061 l 375 1061 m 86 1061 q 81 1067 81 1061 l 81 1224 q 86 1229 81 1229 l 243 1229 q 249 1224 249 1229 l 249 1067 q 243 1061 249 1061 l 86 1061 z "},"Ù":{"ha":639,"x_min":39,"x_max":585,"o":"m 311 -14 q 175 24 238 -14 q 76 126 113 63 q 39 267 39 190 l 42 961 q 47 967 42 967 l 203 967 q 208 961 208 967 l 208 267 q 238 187 208 219 q 311 154 268 154 q 385 187 356 154 q 415 267 415 219 l 415 961 q 421 967 415 967 l 576 967 q 582 961 582 967 l 585 267 q 548 125 585 189 q 449 24 511 61 q 311 -14 388 -14 m 244 1038 q 236 1043 239 1038 l 107 1283 q 113 1289 104 1289 l 271 1289 q 278 1283 276 1289 l 389 1043 q 383 1038 390 1038 l 244 1038 z "},"Ű":{"ha":639,"x_min":39,"x_max":636,"o":"m 311 -14 q 175 24 238 -14 q 76 126 113 63 q 39 267 39 190 l 42 961 q 47 967 42 967 l 203 967 q 208 961 208 967 l 208 267 q 238 187 208 219 q 311 154 268 154 q 385 187 356 154 q 415 267 415 219 l 415 961 q 421 967 415 967 l 576 967 q 582 961 582 967 l 585 267 q 548 125 585 189 q 449 24 511 61 q 311 -14 388 -14 m 374 1038 q 368 1043 367 1038 l 463 1283 q 469 1289 464 1289 l 628 1289 q 633 1283 636 1289 l 521 1043 q 513 1038 518 1038 l 374 1038 m 74 1038 q 68 1043 67 1038 l 158 1283 q 165 1289 160 1289 l 324 1289 q 329 1283 332 1289 l 221 1043 q 213 1038 218 1038 l 74 1038 z "},"Ū":{"ha":639,"x_min":39,"x_max":585,"o":"m 311 -14 q 175 24 238 -14 q 76 126 113 63 q 39 267 39 190 l 42 961 q 47 967 42 967 l 203 967 q 208 961 208 967 l 208 267 q 238 187 208 219 q 311 154 268 154 q 385 187 356 154 q 415 267 415 219 l 415 961 q 421 967 415 967 l 576 967 q 582 961 582 967 l 585 267 q 548 125 585 189 q 449 24 511 61 q 311 -14 388 -14 m 97 1072 q 92 1078 92 1072 l 92 1190 q 97 1196 92 1196 l 513 1196 q 518 1190 518 1196 l 518 1078 q 513 1072 518 1072 l 97 1072 z "},"Ų":{"ha":639,"x_min":39,"x_max":585,"o":"m 311 -14 q 175 24 238 -14 q 76 126 113 63 q 39 267 39 190 l 42 961 q 47 967 42 967 l 203 967 q 208 961 208 967 l 208 267 q 238 187 208 219 q 311 154 268 154 q 385 187 356 154 q 415 267 415 219 l 415 961 q 421 967 415 967 l 576 967 q 582 961 582 967 l 585 267 q 548 125 585 189 q 449 24 511 61 q 311 -14 388 -14 m 372 -411 q 213 -381 274 -411 q 123 -299 151 -350 q 94 -187 94 -247 q 159 -41 94 -101 q 326 60 224 19 l 378 -1 q 266 -78 293 -44 q 239 -151 239 -111 q 272 -220 239 -194 q 371 -246 306 -246 q 376 -249 375 -246 q 378 -264 378 -253 l 379 -400 q 372 -411 379 -411 z "},"Ů":{"ha":639,"x_min":39,"x_max":585,"o":"m 311 -14 q 175 24 238 -14 q 76 126 113 63 q 39 267 39 190 l 42 961 q 47 967 42 967 l 203 967 q 208 961 208 967 l 208 267 q 238 187 208 219 q 311 154 268 154 q 385 187 356 154 q 415 267 415 219 l 415 961 q 421 967 415 967 l 576 967 q 582 961 582 967 l 585 267 q 548 125 585 189 q 449 24 511 61 q 311 -14 388 -14 m 310 1029 q 219 1069 258 1029 q 181 1160 181 1108 q 219 1253 181 1214 q 310 1292 258 1292 q 399 1253 360 1292 q 438 1160 438 1214 q 398 1067 438 1104 q 310 1029 358 1029 m 308 1094 q 351 1114 333 1094 q 369 1160 369 1133 q 351 1207 369 1188 q 308 1226 333 1226 q 264 1207 282 1226 q 246 1160 246 1188 q 264 1114 246 1133 q 308 1094 282 1094 z "},"Ũ":{"ha":639,"x_min":39,"x_max":593,"o":"m 311 -14 q 175 24 238 -14 q 76 126 113 63 q 39 267 39 190 l 42 961 q 47 967 42 967 l 203 967 q 208 961 208 967 l 208 267 q 238 187 208 219 q 311 154 268 154 q 385 187 356 154 q 415 267 415 219 l 415 961 q 421 967 415 967 l 576 967 q 582 961 582 967 l 585 267 q 548 125 585 189 q 449 24 511 61 q 311 -14 388 -14 m 433 1046 q 362 1060 394 1046 q 303 1090 329 1075 q 253 1104 276 1104 q 213 1091 226 1104 q 199 1058 199 1078 q 193 1053 199 1053 l 68 1053 q 63 1058 63 1053 q 84 1133 63 1094 q 145 1197 106 1171 q 240 1224 185 1224 q 311 1210 281 1224 q 366 1183 342 1197 q 408 1169 390 1169 q 442 1182 428 1169 q 457 1221 457 1194 q 463 1226 457 1226 l 588 1226 q 593 1221 593 1226 q 570 1125 593 1164 q 510 1066 547 1086 q 433 1046 474 1046 z "},"V":{"ha":601,"x_min":11,"x_max":576,"o":"m 211 0 q 204 7 206 0 l 13 961 q 18 967 11 967 l 175 967 q 182 961 181 967 l 296 325 l 407 961 q 414 967 408 967 l 569 967 q 575 961 576 967 l 386 7 q 379 0 385 0 l 211 0 z "},"W":{"ha":874,"x_min":11,"x_max":849,"o":"m 183 0 q 176 7 178 0 l 13 961 q 17 967 11 967 l 172 967 q 179 961 178 967 l 268 333 l 360 961 q 368 967 361 967 l 493 967 q 500 961 499 967 l 590 333 l 681 961 q 688 967 682 967 l 842 967 q 847 961 849 967 l 682 7 q 678 2 681 4 q 675 0 675 0 l 507 0 q 500 7 503 0 l 429 506 l 358 7 q 351 0 357 0 l 183 0 z "},"Ẃ":{"ha":874,"x_min":11,"x_max":849,"o":"m 183 0 q 176 7 178 0 l 13 961 q 17 967 11 967 l 172 967 q 179 961 178 967 l 268 333 l 360 961 q 368 967 361 967 l 493 967 q 500 961 499 967 l 590 333 l 681 961 q 688 967 682 967 l 842 967 q 847 961 849 967 l 682 7 q 678 2 681 4 q 675 0 675 0 l 507 0 q 500 7 503 0 l 429 506 l 358 7 q 351 0 357 0 l 183 0 m 347 1038 q 342 1043 340 1038 l 453 1283 q 460 1289 454 1289 l 618 1289 q 624 1283 626 1289 l 494 1043 q 486 1038 492 1038 l 347 1038 z "},"Ŵ":{"ha":874,"x_min":11,"x_max":849,"o":"m 183 0 q 176 7 178 0 l 13 961 q 17 967 11 967 l 172 967 q 179 961 178 967 l 268 333 l 360 961 q 368 967 361 967 l 493 967 q 500 961 499 967 l 590 333 l 681 961 q 688 967 682 967 l 842 967 q 847 961 849 967 l 682 7 q 678 2 681 4 q 675 0 675 0 l 507 0 q 500 7 503 0 l 429 506 l 358 7 q 351 0 357 0 l 183 0 m 167 1039 q 161 1044 158 1039 l 342 1257 q 350 1263 344 1263 l 510 1263 q 518 1257 515 1263 l 699 1044 q 693 1039 701 1039 l 531 1039 q 524 1044 525 1039 l 426 1165 l 328 1044 q 321 1039 326 1039 l 167 1039 z "},"Ẅ":{"ha":874,"x_min":11,"x_max":849,"o":"m 183 0 q 176 7 178 0 l 13 961 q 17 967 11 967 l 172 967 q 179 961 178 967 l 268 333 l 360 961 q 368 967 361 967 l 493 967 q 500 961 499 967 l 590 333 l 681 961 q 688 967 682 967 l 842 967 q 847 961 849 967 l 682 7 q 678 2 681 4 q 675 0 675 0 l 507 0 q 500 7 503 0 l 429 506 l 358 7 q 351 0 357 0 l 183 0 m 497 1061 q 492 1067 492 1061 l 492 1224 q 497 1229 492 1229 l 654 1229 q 660 1224 660 1229 l 660 1067 q 654 1061 660 1061 l 497 1061 m 208 1061 q 203 1067 203 1061 l 203 1224 q 208 1229 203 1229 l 365 1229 q 371 1224 371 1229 l 371 1067 q 365 1061 371 1061 l 208 1061 z "},"Ẁ":{"ha":874,"x_min":11,"x_max":849,"o":"m 183 0 q 176 7 178 0 l 13 961 q 17 967 11 967 l 172 967 q 179 961 178 967 l 268 333 l 360 961 q 368 967 361 967 l 493 967 q 500 961 499 967 l 590 333 l 681 961 q 688 967 682 967 l 842 967 q 847 961 849 967 l 682 7 q 678 2 681 4 q 675 0 675 0 l 507 0 q 500 7 503 0 l 429 506 l 358 7 q 351 0 357 0 l 183 0 m 367 1038 q 358 1043 361 1038 l 229 1283 q 235 1289 226 1289 l 393 1289 q 400 1283 399 1289 l 511 1043 q 506 1038 513 1038 l 367 1038 z "},"X":{"ha":561,"x_min":7,"x_max":538,"o":"m 13 0 q 8 7 7 0 l 167 503 l 11 961 q 15 967 10 967 l 171 967 q 179 961 178 967 l 272 631 l 367 961 q 375 967 368 967 l 529 967 q 533 961 535 967 l 378 504 l 535 7 q 531 0 538 0 l 375 0 q 367 7 369 0 l 272 365 l 176 7 q 168 0 175 0 l 13 0 z "},"Y":{"ha":557,"x_min":-6,"x_max":538,"o":"m 185 0 q 181 6 181 0 l 182 400 l -4 961 q 0 967 -6 967 l 154 967 q 163 961 161 967 l 265 588 l 369 961 q 376 967 371 967 l 532 967 q 536 961 538 967 l 349 406 l 350 6 q 344 0 350 0 l 185 0 z "},"Ý":{"ha":557,"x_min":-6,"x_max":538,"o":"m 185 0 q 181 6 181 0 l 182 400 l -4 961 q 0 967 -6 967 l 154 967 q 163 961 161 967 l 265 588 l 369 961 q 376 967 371 967 l 532 967 q 536 961 538 967 l 349 406 l 350 6 q 344 0 350 0 l 185 0 m 181 1038 q 175 1043 174 1038 l 286 1283 q 293 1289 288 1289 l 451 1289 q 457 1283 460 1289 l 328 1043 q 319 1038 325 1038 l 181 1038 z "},"Ŷ":{"ha":557,"x_min":-8,"x_max":538,"o":"m 185 0 q 181 6 181 0 l 182 400 l -4 961 q 0 967 -6 967 l 154 967 q 163 961 161 967 l 265 588 l 369 961 q 376 967 371 967 l 532 967 q 536 961 538 967 l 349 406 l 350 6 q 344 0 350 0 l 185 0 m 0 1039 q -6 1044 -8 1039 l 175 1257 q 183 1263 178 1263 l 343 1263 q 351 1257 349 1263 l 532 1044 q 526 1039 535 1039 l 364 1039 q 357 1044 358 1039 l 260 1165 l 161 1044 q 154 1039 160 1039 l 0 1039 z "},"Ÿ":{"ha":557,"x_min":-6,"x_max":538,"o":"m 185 0 q 181 6 181 0 l 182 400 l -4 961 q 0 967 -6 967 l 154 967 q 163 961 161 967 l 265 588 l 369 961 q 376 967 371 967 l 532 967 q 536 961 538 967 l 349 406 l 350 6 q 344 0 350 0 l 185 0 m 331 1061 q 325 1067 325 1061 l 325 1224 q 331 1229 325 1229 l 488 1229 q 493 1224 493 1229 l 493 1067 q 488 1061 493 1061 l 331 1061 m 42 1061 q 36 1067 36 1061 l 36 1224 q 42 1229 36 1229 l 199 1229 q 204 1224 204 1229 l 204 1067 q 199 1061 204 1061 l 42 1061 z "},"Ỳ":{"ha":557,"x_min":-6,"x_max":538,"o":"m 185 0 q 181 6 181 0 l 182 400 l -4 961 q 0 967 -6 967 l 154 967 q 163 961 161 967 l 265 588 l 369 961 q 376 967 371 967 l 532 967 q 536 961 538 967 l 349 406 l 350 6 q 344 0 350 0 l 185 0 m 200 1038 q 192 1043 194 1038 l 63 1283 q 68 1289 60 1289 l 226 1289 q 233 1283 232 1289 l 344 1043 q 339 1038 346 1038 l 200 1038 z "},"Z":{"ha":575,"x_min":11,"x_max":543,"o":"m 18 0 q 11 7 11 0 l 13 158 l 353 808 l 31 808 q 25 814 25 808 l 25 960 q 31 967 25 967 l 533 967 q 540 960 540 967 l 540 810 l 201 163 l 536 163 q 542 156 542 163 l 543 7 q 536 0 543 0 l 18 0 z "},"Ź":{"ha":575,"x_min":11,"x_max":543,"o":"m 18 0 q 11 7 11 0 l 13 158 l 353 808 l 31 808 q 25 814 25 808 l 25 960 q 31 967 25 967 l 533 967 q 540 960 540 967 l 540 810 l 201 163 l 536 163 q 542 156 542 163 l 543 7 q 536 0 543 0 l 18 0 m 197 1038 q 192 1043 190 1038 l 303 1283 q 310 1289 304 1289 l 468 1289 q 474 1283 476 1289 l 344 1043 q 336 1038 342 1038 l 197 1038 z "},"Ž":{"ha":575,"x_min":8,"x_max":551,"o":"m 18 0 q 11 7 11 0 l 13 158 l 353 808 l 31 808 q 25 814 25 808 l 25 960 q 31 967 25 967 l 533 967 q 540 960 540 967 l 540 810 l 201 163 l 536 163 q 542 156 542 163 l 543 7 q 536 0 543 0 l 18 0 m 200 1042 q 192 1047 194 1042 l 11 1260 q 17 1265 8 1265 l 175 1265 q 182 1260 181 1265 l 279 1139 l 378 1260 q 385 1265 379 1265 l 543 1265 q 549 1260 551 1265 l 368 1047 q 360 1042 365 1042 l 200 1042 z "},"Ż":{"ha":575,"x_min":11,"x_max":543,"o":"m 18 0 q 11 7 11 0 l 13 158 l 353 808 l 31 808 q 25 814 25 808 l 25 960 q 31 967 25 967 l 533 967 q 540 960 540 967 l 540 810 l 201 163 l 536 163 q 542 156 542 163 l 543 7 q 536 0 543 0 l 18 0 m 200 1061 q 194 1067 194 1061 l 194 1224 q 200 1229 194 1229 l 357 1229 q 363 1224 363 1229 l 363 1067 q 357 1061 363 1061 l 200 1061 z "},"a":{"ha":593,"x_min":8,"x_max":563,"o":"m 8 7 l 181 961 q 188 967 182 967 l 389 967 q 396 961 394 967 l 561 7 q 556 0 563 0 l 401 0 q 394 7 396 0 l 379 108 l 190 108 l 175 7 q 168 0 174 0 l 14 0 q 8 7 8 0 m 218 257 l 351 257 l 294 647 l 286 699 l 281 647 l 218 257 z "},"á":{"ha":593,"x_min":8,"x_max":563,"o":"m 8 7 l 181 961 q 188 967 182 967 l 389 967 q 396 961 394 967 l 561 7 q 556 0 563 0 l 401 0 q 394 7 396 0 l 379 108 l 190 108 l 175 7 q 168 0 174 0 l 14 0 q 8 7 8 0 m 218 257 l 351 257 l 294 647 l 286 699 l 281 647 l 218 257 m 201 1038 q 196 1043 194 1038 l 307 1283 q 314 1289 308 1289 l 472 1289 q 478 1283 481 1289 l 349 1043 q 340 1038 346 1038 l 201 1038 z "},"ă":{"ha":593,"x_min":8,"x_max":563,"o":"m 8 7 l 181 961 q 188 967 182 967 l 389 967 q 396 961 394 967 l 561 7 q 556 0 563 0 l 401 0 q 394 7 396 0 l 379 108 l 190 108 l 175 7 q 168 0 174 0 l 14 0 q 8 7 8 0 m 218 257 l 351 257 l 294 647 l 286 699 l 281 647 l 218 257 m 283 1038 q 163 1067 217 1038 q 78 1143 110 1096 q 47 1244 47 1190 q 53 1250 44 1250 l 178 1250 q 209 1180 178 1211 q 288 1149 240 1149 q 367 1180 336 1149 q 399 1250 399 1211 l 524 1250 q 529 1244 529 1250 q 497 1142 529 1189 q 408 1066 464 1094 q 283 1038 353 1038 z "},"â":{"ha":593,"x_min":8,"x_max":563,"o":"m 8 7 l 181 961 q 188 967 182 967 l 389 967 q 396 961 394 967 l 561 7 q 556 0 563 0 l 401 0 q 394 7 396 0 l 379 108 l 190 108 l 175 7 q 168 0 174 0 l 14 0 q 8 7 8 0 m 218 257 l 351 257 l 294 647 l 286 699 l 281 647 l 218 257 m 21 1039 q 15 1044 13 1039 l 196 1257 q 204 1263 199 1263 l 364 1263 q 372 1257 369 1263 l 553 1044 q 547 1039 556 1039 l 385 1039 q 378 1044 379 1039 l 281 1165 l 182 1044 q 175 1039 181 1039 l 21 1039 z "},"ä":{"ha":593,"x_min":8,"x_max":563,"o":"m 8 7 l 181 961 q 188 967 182 967 l 389 967 q 396 961 394 967 l 561 7 q 556 0 563 0 l 401 0 q 394 7 396 0 l 379 108 l 190 108 l 175 7 q 168 0 174 0 l 14 0 q 8 7 8 0 m 218 257 l 351 257 l 294 647 l 286 699 l 281 647 l 218 257 m 351 1061 q 346 1067 346 1061 l 346 1224 q 351 1229 346 1229 l 508 1229 q 514 1224 514 1229 l 514 1067 q 508 1061 514 1061 l 351 1061 m 63 1061 q 57 1067 57 1061 l 57 1224 q 63 1229 57 1229 l 219 1229 q 225 1224 225 1229 l 225 1067 q 219 1061 225 1061 l 63 1061 z "},"à":{"ha":593,"x_min":8,"x_max":563,"o":"m 8 7 l 181 961 q 188 967 182 967 l 389 967 q 396 961 394 967 l 561 7 q 556 0 563 0 l 401 0 q 394 7 396 0 l 379 108 l 190 108 l 175 7 q 168 0 174 0 l 14 0 q 8 7 8 0 m 218 257 l 351 257 l 294 647 l 286 699 l 281 647 l 218 257 m 221 1038 q 213 1043 215 1038 l 83 1283 q 89 1289 81 1289 l 247 1289 q 254 1283 253 1289 l 365 1043 q 360 1038 367 1038 l 221 1038 z "},"ā":{"ha":593,"x_min":8,"x_max":563,"o":"m 8 7 l 181 961 q 188 967 182 967 l 389 967 q 396 961 394 967 l 561 7 q 556 0 563 0 l 401 0 q 394 7 396 0 l 379 108 l 190 108 l 175 7 q 168 0 174 0 l 14 0 q 8 7 8 0 m 218 257 l 351 257 l 294 647 l 286 699 l 281 647 l 218 257 m 74 1072 q 68 1078 68 1072 l 68 1190 q 74 1196 68 1196 l 489 1196 q 494 1190 494 1196 l 494 1078 q 489 1072 494 1072 l 74 1072 z "},"ą":{"ha":593,"x_min":8,"x_max":563,"o":"m 8 7 l 181 961 q 188 967 182 967 l 389 967 q 396 961 394 967 l 561 7 q 556 0 563 0 l 401 0 q 394 7 396 0 l 379 108 l 190 108 l 175 7 q 168 0 174 0 l 14 0 q 8 7 8 0 m 218 257 l 351 257 l 294 647 l 286 699 l 281 647 l 218 257 m 550 -410 q 390 -379 451 -410 q 301 -297 329 -349 q 272 -186 272 -246 q 337 -40 272 -100 q 504 61 401 21 l 556 0 q 444 -76 471 -43 q 417 -150 417 -110 q 450 -219 417 -193 q 549 -244 483 -244 q 554 -248 553 -244 q 556 -262 556 -251 l 557 -399 q 550 -410 557 -410 z "},"å":{"ha":593,"x_min":8,"x_max":563,"o":"m 8 7 l 181 961 q 188 967 182 967 l 389 967 q 396 961 394 967 l 561 7 q 556 0 563 0 l 401 0 q 394 7 396 0 l 379 108 l 190 108 l 175 7 q 168 0 174 0 l 14 0 q 8 7 8 0 m 218 257 l 351 257 l 294 647 l 286 699 l 281 647 l 218 257 m 286 1029 q 196 1069 235 1029 q 157 1160 157 1108 q 196 1253 157 1214 q 286 1292 235 1292 q 375 1253 336 1292 q 414 1160 414 1214 q 374 1067 414 1104 q 286 1029 335 1029 m 285 1094 q 328 1114 310 1094 q 346 1160 346 1133 q 328 1207 346 1188 q 285 1226 310 1226 q 240 1207 258 1226 q 222 1160 222 1188 q 240 1114 222 1133 q 285 1094 258 1094 z "},"ǻ":{"ha":593,"x_min":8,"x_max":563,"o":"m 288 1028 q 197 1067 236 1028 q 158 1158 158 1107 q 179 1230 158 1197 q 233 1278 200 1263 l 286 1392 q 292 1397 288 1397 l 422 1397 q 426 1392 429 1397 l 358 1267 q 399 1220 383 1249 q 415 1158 415 1192 q 376 1065 415 1103 q 288 1028 336 1028 m 286 1093 q 329 1113 311 1093 q 347 1158 347 1132 q 329 1206 347 1186 q 286 1225 311 1225 q 242 1206 260 1225 q 224 1158 224 1186 q 242 1113 224 1132 q 286 1093 260 1093 m 8 7 l 181 961 q 188 967 182 967 l 389 967 q 396 961 394 967 l 561 7 q 556 0 563 0 l 401 0 q 394 7 396 0 l 379 108 l 190 108 l 175 7 q 168 0 174 0 l 14 0 q 8 7 8 0 m 218 257 l 351 257 l 294 647 l 286 699 l 281 647 l 218 257 z "},"ã":{"ha":593,"x_min":8,"x_max":569,"o":"m 8 7 l 181 961 q 188 967 182 967 l 389 967 q 396 961 394 967 l 561 7 q 556 0 563 0 l 401 0 q 394 7 396 0 l 379 108 l 190 108 l 175 7 q 168 0 174 0 l 14 0 q 8 7 8 0 m 218 257 l 351 257 l 294 647 l 286 699 l 281 647 l 218 257 m 410 1046 q 338 1060 371 1046 q 279 1090 306 1075 q 229 1104 253 1104 q 189 1091 203 1104 q 175 1058 175 1078 q 169 1053 175 1053 l 44 1053 q 39 1058 39 1053 q 60 1133 39 1094 q 122 1197 82 1171 q 217 1224 161 1224 q 288 1210 257 1224 q 342 1183 318 1197 q 385 1169 367 1169 q 419 1182 404 1169 q 433 1221 433 1194 q 439 1226 433 1226 l 564 1226 q 569 1221 569 1226 q 547 1125 569 1164 q 487 1066 524 1086 q 410 1046 450 1046 z "},"æ":{"ha":967,"x_min":0,"x_max":899,"o":"m 8 0 q 3 8 0 0 l 390 963 q 399 967 393 967 l 892 967 q 897 960 897 967 l 897 804 q 892 799 897 799 l 607 799 l 607 582 l 892 582 q 897 576 897 582 l 899 419 q 893 414 899 414 l 607 414 l 607 171 l 893 171 q 899 164 899 171 l 899 6 q 893 0 899 0 l 444 0 q 439 7 439 0 l 439 108 l 219 108 l 178 3 q 174 0 178 0 l 8 0 m 276 257 l 439 257 l 440 678 l 421 626 l 276 257 z "},"ǽ":{"ha":967,"x_min":0,"x_max":899,"o":"m 8 0 q 3 8 0 0 l 390 963 q 399 967 393 967 l 892 967 q 897 960 897 967 l 897 804 q 892 799 897 799 l 607 799 l 607 582 l 892 582 q 897 576 897 582 l 899 419 q 893 414 899 414 l 607 414 l 607 171 l 893 171 q 899 164 899 171 l 899 6 q 893 0 899 0 l 444 0 q 439 7 439 0 l 439 108 l 219 108 l 178 3 q 174 0 178 0 l 8 0 m 276 257 l 439 257 l 440 678 l 421 626 l 276 257 m 426 1038 q 421 1043 419 1038 l 532 1283 q 539 1289 533 1289 l 697 1289 q 703 1283 706 1289 l 574 1043 q 565 1038 571 1038 l 426 1038 z "},"b":{"ha":644,"x_min":56,"x_max":607,"o":"m 61 0 q 56 7 56 0 l 58 961 q 64 967 58 967 l 331 967 q 472 928 410 967 q 571 828 535 890 q 607 692 607 765 q 580 581 607 632 q 515 497 553 529 q 578 404 556 457 q 600 293 600 351 q 561 146 600 213 q 456 40 522 79 q 310 0 390 0 l 61 0 m 225 583 l 331 583 q 409 617 379 583 q 439 692 439 651 q 407 769 439 736 q 331 801 375 801 l 225 801 l 225 583 m 224 169 l 310 169 q 396 206 360 169 q 432 293 432 243 q 396 379 432 343 q 310 415 360 415 l 225 415 l 224 169 z "},"c":{"ha":629,"x_min":39,"x_max":583,"o":"m 311 -14 q 173 24 235 -14 q 75 126 111 63 q 39 269 39 190 l 40 703 q 76 842 40 779 q 173 944 111 906 q 311 982 235 982 q 449 944 388 982 q 546 844 510 907 q 582 703 582 781 l 582 639 q 576 633 582 633 l 421 633 q 415 639 415 633 l 415 703 q 385 782 415 749 q 311 815 356 815 q 235 781 261 815 q 208 703 208 747 l 208 269 q 238 186 208 218 q 311 154 268 154 q 385 190 356 154 q 415 269 415 225 l 415 333 q 421 339 415 339 l 578 339 q 583 333 583 339 l 583 269 q 547 126 583 190 q 449 24 510 63 q 311 -14 388 -14 z "},"ć":{"ha":629,"x_min":39,"x_max":583,"o":"m 311 -14 q 173 24 235 -14 q 75 126 111 63 q 39 269 39 190 l 40 703 q 76 842 40 779 q 173 944 111 906 q 311 982 235 982 q 449 944 388 982 q 546 844 510 907 q 582 703 582 781 l 582 639 q 576 633 582 633 l 421 633 q 415 639 415 633 l 415 703 q 385 782 415 749 q 311 815 356 815 q 235 781 261 815 q 208 703 208 747 l 208 269 q 238 186 208 218 q 311 154 268 154 q 385 190 356 154 q 415 269 415 225 l 415 333 q 421 339 415 339 l 578 339 q 583 333 583 339 l 583 269 q 547 126 583 190 q 449 24 510 63 q 311 -14 388 -14 m 229 1038 q 224 1043 222 1038 l 335 1283 q 342 1289 336 1289 l 500 1289 q 506 1283 508 1289 l 376 1043 q 368 1038 374 1038 l 229 1038 z "},"č":{"ha":629,"x_min":39,"x_max":583,"o":"m 311 -14 q 173 24 235 -14 q 75 126 111 63 q 39 269 39 190 l 40 703 q 76 842 40 779 q 173 944 111 906 q 311 982 235 982 q 449 944 388 982 q 546 844 510 907 q 582 703 582 781 l 582 639 q 576 633 582 633 l 421 633 q 415 639 415 633 l 415 703 q 385 782 415 749 q 311 815 356 815 q 235 781 261 815 q 208 703 208 747 l 208 269 q 238 186 208 218 q 311 154 268 154 q 385 190 356 154 q 415 269 415 225 l 415 333 q 421 339 415 339 l 578 339 q 583 333 583 339 l 583 269 q 547 126 583 190 q 449 24 510 63 q 311 -14 388 -14 m 232 1042 q 224 1047 226 1042 l 43 1260 q 49 1265 40 1265 l 207 1265 q 214 1260 213 1265 l 311 1139 l 410 1260 q 417 1265 411 1265 l 575 1265 q 581 1260 583 1265 l 400 1047 q 392 1042 397 1042 l 232 1042 z "},"ç":{"ha":629,"x_min":39,"x_max":583,"o":"m 311 -14 q 173 24 235 -14 q 75 126 111 63 q 39 269 39 190 l 40 703 q 76 842 40 779 q 173 944 111 906 q 311 982 235 982 q 449 944 388 982 q 546 844 510 907 q 582 703 582 781 l 582 639 q 576 633 582 633 l 421 633 q 415 639 415 633 l 415 703 q 385 782 415 749 q 311 815 356 815 q 235 781 261 815 q 208 703 208 747 l 208 269 q 238 186 208 218 q 311 154 268 154 q 385 190 356 154 q 415 269 415 225 l 415 333 q 421 339 415 339 l 578 339 q 583 333 583 339 l 583 269 q 547 126 583 190 q 449 24 510 63 q 311 -14 388 -14 m 168 -136 q 163 -131 160 -136 l 256 22 q 264 28 258 28 l 379 28 q 385 22 386 28 l 340 -57 q 456 -110 413 -68 q 499 -210 499 -151 q 469 -311 499 -265 q 389 -383 439 -357 q 275 -410 339 -410 q 199 -403 238 -410 q 142 -386 161 -397 q 139 -382 139 -383 l 135 -260 q 143 -254 135 -251 q 217 -273 185 -268 q 272 -278 250 -278 q 340 -261 317 -278 q 364 -217 364 -244 q 321 -158 364 -181 q 183 -136 278 -136 l 168 -136 z "},"ĉ":{"ha":629,"x_min":39,"x_max":583,"o":"m 311 -14 q 173 24 235 -14 q 75 126 111 63 q 39 269 39 190 l 40 703 q 76 842 40 779 q 173 944 111 906 q 311 982 235 982 q 449 944 388 982 q 546 844 510 907 q 582 703 582 781 l 582 639 q 576 633 582 633 l 421 633 q 415 639 415 633 l 415 703 q 385 782 415 749 q 311 815 356 815 q 235 781 261 815 q 208 703 208 747 l 208 269 q 238 186 208 218 q 311 154 268 154 q 385 190 356 154 q 415 269 415 225 l 415 333 q 421 339 415 339 l 578 339 q 583 333 583 339 l 583 269 q 547 126 583 190 q 449 24 510 63 q 311 -14 388 -14 m 49 1039 q 43 1044 40 1039 l 224 1257 q 232 1263 226 1263 l 392 1263 q 400 1257 397 1263 l 581 1044 q 575 1039 583 1039 l 413 1039 q 406 1044 407 1039 l 308 1165 l 210 1044 q 203 1039 208 1039 l 49 1039 z "},"ċ":{"ha":629,"x_min":39,"x_max":583,"o":"m 311 -14 q 173 24 235 -14 q 75 126 111 63 q 39 269 39 190 l 40 703 q 76 842 40 779 q 173 944 111 906 q 311 982 235 982 q 449 944 388 982 q 546 844 510 907 q 582 703 582 781 l 582 639 q 576 633 582 633 l 421 633 q 415 639 415 633 l 415 703 q 385 782 415 749 q 311 815 356 815 q 235 781 261 815 q 208 703 208 747 l 208 269 q 238 186 208 218 q 311 154 268 154 q 385 190 356 154 q 415 269 415 225 l 415 333 q 421 339 415 339 l 578 339 q 583 333 583 339 l 583 269 q 547 126 583 190 q 449 24 510 63 q 311 -14 388 -14 m 232 1061 q 226 1067 226 1061 l 226 1224 q 232 1229 226 1229 l 389 1229 q 394 1224 394 1229 l 394 1067 q 389 1061 394 1061 l 232 1061 z "},"d":{"ha":656,"x_min":56,"x_max":601,"o":"m 63 0 q 56 7 56 0 l 58 961 q 64 967 58 967 l 324 968 q 463 932 400 969 q 564 831 526 894 q 601 692 601 768 l 601 293 q 563 147 601 213 q 458 42 524 81 q 311 1 393 3 l 63 0 m 225 171 l 311 171 q 398 207 363 171 q 433 293 433 243 l 433 693 q 401 770 433 738 q 324 801 368 803 l 226 800 l 225 171 z "},"ð":{"ha":656,"x_min":-19,"x_max":601,"o":"m 63 0 q 56 7 56 0 l 57 431 l -14 431 q -19 438 -19 431 l -19 582 q -12 589 -19 589 l 57 589 l 58 961 q 64 967 58 967 l 324 968 q 463 932 400 969 q 564 831 526 894 q 601 692 601 768 l 601 293 q 563 147 601 213 q 458 42 524 81 q 311 1 393 3 l 63 0 m 225 171 l 311 171 q 398 207 363 171 q 433 293 433 243 l 433 693 q 401 770 433 738 q 324 801 368 803 l 226 800 l 226 589 l 335 589 q 340 582 340 589 l 340 438 q 335 431 340 431 l 225 431 l 225 171 z "},"ď":{"ha":656,"x_min":35,"x_max":601,"o":"m 63 0 q 56 7 56 0 l 58 961 q 64 967 58 967 l 324 968 q 463 932 400 969 q 564 831 526 894 q 601 692 601 768 l 601 293 q 563 147 601 213 q 458 42 524 81 q 311 1 393 3 l 63 0 m 225 171 l 311 171 q 398 207 363 171 q 433 293 433 243 l 433 693 q 401 770 433 738 q 324 801 368 803 l 226 800 l 225 171 m 226 1042 q 218 1047 221 1042 l 38 1260 q 43 1265 35 1265 l 201 1265 q 208 1260 207 1265 l 306 1139 l 404 1260 q 411 1265 406 1265 l 569 1265 q 575 1260 578 1265 l 394 1047 q 386 1042 392 1042 l 226 1042 z "},"đ":{"ha":656,"x_min":-19,"x_max":601,"o":"m 63 0 q 56 7 56 0 l 57 431 l -14 431 q -19 438 -19 431 l -19 582 q -12 589 -19 589 l 57 589 l 58 961 q 64 967 58 967 l 324 968 q 463 932 400 969 q 564 831 526 894 q 601 692 601 768 l 601 293 q 563 147 601 213 q 458 42 524 81 q 311 1 393 3 l 63 0 m 225 171 l 311 171 q 398 207 363 171 q 433 293 433 243 l 433 693 q 401 770 433 738 q 324 801 368 803 l 226 800 l 226 589 l 335 589 q 340 582 340 589 l 340 438 q 335 431 340 431 l 225 431 l 225 171 z "},"e":{"ha":583,"x_min":56,"x_max":515,"o":"m 61 0 q 56 7 56 0 l 57 961 q 63 967 57 967 l 508 967 q 514 960 514 967 l 514 804 q 508 799 514 799 l 224 799 l 224 582 l 508 582 q 514 576 514 582 l 515 419 q 510 414 515 414 l 224 414 l 224 171 l 510 171 q 515 164 515 171 l 515 6 q 510 0 515 0 l 61 0 z "},"é":{"ha":583,"x_min":56,"x_max":515,"o":"m 61 0 q 56 7 56 0 l 57 961 q 63 967 57 967 l 508 967 q 514 960 514 967 l 514 804 q 508 799 514 799 l 224 799 l 224 582 l 508 582 q 514 576 514 582 l 515 419 q 510 414 515 414 l 224 414 l 224 171 l 510 171 q 515 164 515 171 l 515 6 q 510 0 515 0 l 61 0 m 199 1038 q 193 1043 192 1038 l 304 1283 q 311 1289 306 1289 l 469 1289 q 475 1283 478 1289 l 346 1043 q 338 1038 343 1038 l 199 1038 z "},"ĕ":{"ha":583,"x_min":42,"x_max":526,"o":"m 61 0 q 56 7 56 0 l 57 961 q 63 967 57 967 l 508 967 q 514 960 514 967 l 514 804 q 508 799 514 799 l 224 799 l 224 582 l 508 582 q 514 576 514 582 l 515 419 q 510 414 515 414 l 224 414 l 224 171 l 510 171 q 515 164 515 171 l 515 6 q 510 0 515 0 l 61 0 z "},"ě":{"ha":583,"x_min":10,"x_max":553,"o":"m 61 0 q 56 7 56 0 l 57 961 q 63 967 57 967 l 508 967 q 514 960 514 967 l 514 804 q 508 799 514 799 l 224 799 l 224 582 l 508 582 q 514 576 514 582 l 515 419 q 510 414 515 414 l 224 414 l 224 171 l 510 171 q 515 164 515 171 l 515 6 q 510 0 515 0 l 61 0 m 201 1042 q 193 1047 196 1042 l 13 1260 q 18 1265 10 1265 l 176 1265 q 183 1260 182 1265 l 281 1139 l 379 1260 q 386 1265 381 1265 l 544 1265 q 550 1260 553 1265 l 369 1047 q 361 1042 367 1042 l 201 1042 z "},"ê":{"ha":583,"x_min":10,"x_max":553,"o":"m 61 0 q 56 7 56 0 l 57 961 q 63 967 57 967 l 508 967 q 514 960 514 967 l 514 804 q 508 799 514 799 l 224 799 l 224 582 l 508 582 q 514 576 514 582 l 515 419 q 510 414 515 414 l 224 414 l 224 171 l 510 171 q 515 164 515 171 l 515 6 q 510 0 515 0 l 61 0 m 18 1039 q 13 1044 10 1039 l 193 1257 q 201 1263 196 1263 l 361 1263 q 369 1257 367 1263 l 550 1044 q 544 1039 553 1039 l 382 1039 q 375 1044 376 1039 l 278 1165 l 179 1044 q 172 1039 178 1039 l 18 1039 z "},"ë":{"ha":583,"x_min":54,"x_max":515,"o":"m 61 0 q 56 7 56 0 l 57 961 q 63 967 57 967 l 508 967 q 514 960 514 967 l 514 804 q 508 799 514 799 l 224 799 l 224 582 l 508 582 q 514 576 514 582 l 515 419 q 510 414 515 414 l 224 414 l 224 171 l 510 171 q 515 164 515 171 l 515 6 q 510 0 515 0 l 61 0 m 349 1061 q 343 1067 343 1061 l 343 1224 q 349 1229 343 1229 l 506 1229 q 511 1224 511 1229 l 511 1067 q 506 1061 511 1061 l 349 1061 m 60 1061 q 54 1067 54 1061 l 54 1224 q 60 1229 54 1229 l 217 1229 q 222 1224 222 1229 l 222 1067 q 217 1061 222 1061 l 60 1061 z "},"ė":{"ha":583,"x_min":56,"x_max":515,"o":"m 61 0 q 56 7 56 0 l 57 961 q 63 967 57 967 l 508 967 q 514 960 514 967 l 514 804 q 508 799 514 799 l 224 799 l 224 582 l 508 582 q 514 576 514 582 l 515 419 q 510 414 515 414 l 224 414 l 224 171 l 510 171 q 515 164 515 171 l 515 6 q 510 0 515 0 l 61 0 m 201 1061 q 196 1067 196 1061 l 196 1224 q 201 1229 196 1229 l 358 1229 q 364 1224 364 1229 l 364 1067 q 358 1061 364 1061 l 201 1061 z "},"è":{"ha":583,"x_min":56,"x_max":515,"o":"m 61 0 q 56 7 56 0 l 57 961 q 63 967 57 967 l 508 967 q 514 960 514 967 l 514 804 q 508 799 514 799 l 224 799 l 224 582 l 508 582 q 514 576 514 582 l 515 419 q 510 414 515 414 l 224 414 l 224 171 l 510 171 q 515 164 515 171 l 515 6 q 510 0 515 0 l 61 0 m 218 1038 q 210 1043 213 1038 l 81 1283 q 86 1289 78 1289 l 244 1289 q 251 1283 250 1289 l 363 1043 q 357 1038 364 1038 l 218 1038 z "},"ē":{"ha":583,"x_min":56,"x_max":515,"o":"m 61 0 q 56 7 56 0 l 57 961 q 63 967 57 967 l 508 967 q 514 960 514 967 l 514 804 q 508 799 514 799 l 224 799 l 224 582 l 508 582 q 514 576 514 582 l 515 419 q 510 414 515 414 l 224 414 l 224 171 l 510 171 q 515 164 515 171 l 515 6 q 510 0 515 0 l 61 0 m 71 1072 q 65 1078 65 1072 l 65 1190 q 71 1196 65 1196 l 486 1196 q 492 1190 492 1196 l 492 1078 q 486 1072 492 1072 l 71 1072 z "},"ę":{"ha":583,"x_min":56,"x_max":515,"o":"m 61 0 q 56 7 56 0 l 57 961 q 63 967 57 967 l 508 967 q 514 960 514 967 l 514 804 q 508 799 514 799 l 224 799 l 224 582 l 508 582 q 514 576 514 582 l 515 419 q 510 414 515 414 l 224 414 l 224 171 l 510 171 q 515 164 515 171 l 515 6 q 510 0 515 0 l 61 0 m 506 -410 q 346 -379 407 -410 q 256 -297 285 -349 q 228 -186 228 -246 q 292 -40 228 -100 q 460 61 357 21 l 511 0 q 399 -76 426 -43 q 372 -150 372 -110 q 406 -219 372 -193 q 504 -244 439 -244 q 510 -248 508 -244 q 511 -262 511 -251 l 513 -399 q 506 -410 513 -410 z "},"f":{"ha":585,"x_min":56,"x_max":517,"o":"m 63 0 q 56 7 56 0 l 58 961 q 64 967 58 967 l 508 967 q 515 961 515 967 l 515 804 q 510 799 515 799 l 225 799 l 225 583 l 510 583 q 515 576 515 583 l 517 419 q 510 414 517 414 l 225 414 l 225 7 q 218 0 225 0 l 63 0 z "},"g":{"ha":625,"x_min":39,"x_max":582,"o":"m 310 -14 q 174 24 235 -14 q 76 124 113 61 q 39 265 39 188 l 39 706 q 76 844 39 781 q 174 944 113 907 q 310 982 236 982 q 448 945 386 982 q 546 846 510 908 q 582 706 582 783 l 582 642 q 575 636 582 636 l 419 636 q 414 642 414 636 l 414 694 q 384 782 414 747 q 310 817 354 817 q 238 783 269 817 q 207 706 207 750 l 207 265 q 238 187 207 219 q 310 154 268 154 q 384 186 354 154 q 414 265 414 218 l 414 333 l 317 333 q 310 340 310 333 l 310 496 q 317 503 310 503 l 576 503 q 582 496 582 503 l 582 265 q 545 124 582 188 q 447 24 508 61 q 310 -14 386 -14 z "},"ğ":{"ha":625,"x_min":39,"x_max":582,"o":"m 310 -14 q 174 24 235 -14 q 76 124 113 61 q 39 265 39 188 l 39 706 q 76 844 39 781 q 174 944 113 907 q 310 982 236 982 q 448 945 386 982 q 546 846 510 908 q 582 706 582 783 l 582 642 q 575 636 582 636 l 419 636 q 414 642 414 636 l 414 694 q 384 782 414 747 q 310 817 354 817 q 238 783 269 817 q 207 706 207 750 l 207 265 q 238 187 207 219 q 310 154 268 154 q 384 186 354 154 q 414 265 414 218 l 414 333 l 317 333 q 310 340 310 333 l 310 496 q 317 503 310 503 l 576 503 q 582 496 582 503 l 582 265 q 545 124 582 188 q 447 24 508 61 q 310 -14 386 -14 m 311 1038 q 191 1067 244 1038 q 106 1143 138 1096 q 75 1244 75 1190 q 81 1250 72 1250 l 206 1250 q 237 1180 206 1211 q 315 1149 268 1149 q 395 1180 364 1149 q 426 1250 426 1211 l 551 1250 q 557 1244 557 1250 q 524 1142 557 1189 q 436 1066 492 1094 q 311 1038 381 1038 z "},"ĝ":{"ha":625,"x_min":39,"x_max":583,"o":"m 310 -14 q 174 24 235 -14 q 76 124 113 61 q 39 265 39 188 l 39 706 q 76 844 39 781 q 174 944 113 907 q 310 982 236 982 q 448 945 386 982 q 546 846 510 908 q 582 706 582 783 l 582 642 q 575 636 582 636 l 419 636 q 414 642 414 636 l 414 694 q 384 782 414 747 q 310 817 354 817 q 238 783 269 817 q 207 706 207 750 l 207 265 q 238 187 207 219 q 310 154 268 154 q 384 186 354 154 q 414 265 414 218 l 414 333 l 317 333 q 310 340 310 333 l 310 496 q 317 503 310 503 l 576 503 q 582 496 582 503 l 582 265 q 545 124 582 188 q 447 24 508 61 q 310 -14 386 -14 m 49 1039 q 43 1044 40 1039 l 224 1257 q 232 1263 226 1263 l 392 1263 q 400 1257 397 1263 l 581 1044 q 575 1039 583 1039 l 413 1039 q 406 1044 407 1039 l 308 1165 l 210 1044 q 203 1039 208 1039 l 49 1039 z "},"ģ":{"ha":625,"x_min":39,"x_max":582,"o":"m 310 -14 q 174 24 235 -14 q 76 124 113 61 q 39 265 39 188 l 39 706 q 76 844 39 781 q 174 944 113 907 q 310 982 236 982 q 448 945 386 982 q 546 846 510 908 q 582 706 582 783 l 582 642 q 575 636 582 636 l 419 636 q 414 642 414 636 l 414 694 q 384 782 414 747 q 310 817 354 817 q 238 783 269 817 q 207 706 207 750 l 207 265 q 238 187 207 219 q 310 154 268 154 q 384 186 354 154 q 414 265 414 218 l 414 333 l 317 333 q 310 340 310 333 l 310 496 q 317 503 310 503 l 576 503 q 582 496 582 503 l 582 265 q 545 124 582 188 q 447 24 508 61 q 310 -14 386 -14 m 231 -410 l 231 -324 q 290 -297 265 -324 q 314 -235 314 -271 l 236 -235 q 231 -229 231 -235 l 231 -74 q 236 -68 231 -68 l 393 -68 q 399 -74 399 -68 l 399 -235 q 375 -324 399 -283 q 313 -387 351 -364 q 231 -410 275 -410 z "},"ġ":{"ha":625,"x_min":39,"x_max":582,"o":"m 310 -14 q 174 24 235 -14 q 76 124 113 61 q 39 265 39 188 l 39 706 q 76 844 39 781 q 174 944 113 907 q 310 982 236 982 q 448 945 386 982 q 546 846 510 908 q 582 706 582 783 l 582 642 q 575 636 582 636 l 419 636 q 414 642 414 636 l 414 694 q 384 782 414 747 q 310 817 354 817 q 238 783 269 817 q 207 706 207 750 l 207 265 q 238 187 207 219 q 310 154 268 154 q 384 186 354 154 q 414 265 414 218 l 414 333 l 317 333 q 310 340 310 333 l 310 496 q 317 503 310 503 l 576 503 q 582 496 582 503 l 582 265 q 545 124 582 188 q 447 24 508 61 q 310 -14 386 -14 m 232 1061 q 226 1067 226 1061 l 226 1224 q 232 1229 226 1229 l 389 1229 q 394 1224 394 1229 l 394 1067 q 389 1061 394 1061 l 232 1061 z "},"h":{"ha":660,"x_min":56,"x_max":601,"o":"m 61 0 q 56 7 56 0 l 57 961 q 64 967 57 967 l 218 967 q 225 961 225 967 l 224 583 l 432 583 l 432 961 q 438 967 432 967 l 592 967 q 599 961 599 967 l 601 7 q 594 0 601 0 l 439 0 q 432 7 432 0 l 432 415 l 224 415 l 224 7 q 218 0 224 0 l 61 0 z "},"ħ":{"ha":660,"x_min":-18,"x_max":672,"o":"m 61 0 q 56 7 56 0 l 57 711 l -12 711 q -18 718 -18 711 l -18 850 q -11 857 -18 857 l 57 857 l 57 961 q 64 967 57 967 l 218 967 q 225 961 225 967 l 225 857 l 432 857 l 432 961 q 438 967 432 967 l 592 967 q 599 961 599 967 l 599 857 l 667 857 q 672 850 672 857 l 672 718 q 667 711 672 711 l 600 711 l 601 7 q 594 0 601 0 l 439 0 q 432 7 432 0 l 432 415 l 224 415 l 224 7 q 218 0 224 0 l 61 0 m 224 583 l 432 583 l 432 711 l 224 711 l 224 583 z "},"ȟ":{"ha":660,"x_min":53,"x_max":601,"o":"m 61 0 q 56 7 56 0 l 57 961 q 64 967 57 967 l 218 967 q 225 961 225 967 l 224 583 l 432 583 l 432 961 q 438 967 432 967 l 592 967 q 599 961 599 967 l 601 7 q 594 0 601 0 l 439 0 q 432 7 432 0 l 432 415 l 224 415 l 224 7 q 218 0 224 0 l 61 0 m 244 1042 q 236 1047 239 1042 l 56 1260 q 61 1265 53 1265 l 219 1265 q 226 1260 225 1265 l 324 1139 l 422 1260 q 429 1265 424 1265 l 588 1265 q 593 1260 596 1265 l 413 1047 q 404 1042 410 1042 l 244 1042 z "},"ĥ":{"ha":660,"x_min":53,"x_max":601,"o":"m 61 0 q 56 7 56 0 l 57 961 q 64 967 57 967 l 218 967 q 225 961 225 967 l 224 583 l 432 583 l 432 961 q 438 967 432 967 l 592 967 q 599 961 599 967 l 601 7 q 594 0 601 0 l 439 0 q 432 7 432 0 l 432 415 l 224 415 l 224 7 q 218 0 224 0 l 61 0 m 61 1039 q 56 1044 53 1039 l 236 1257 q 244 1263 239 1263 l 404 1263 q 413 1257 410 1263 l 593 1044 q 588 1039 596 1039 l 425 1039 q 418 1044 419 1039 l 321 1165 l 222 1044 q 215 1039 221 1039 l 61 1039 z "},"i":{"ha":292,"x_min":56,"x_max":225,"o":"m 63 0 q 56 7 56 0 l 57 961 q 63 967 57 967 l 218 967 q 224 961 224 967 l 225 7 q 219 0 225 0 l 63 0 z "},"ı":{"ha":292,"x_min":56,"x_max":225,"o":"m 63 0 q 56 7 56 0 l 57 961 q 63 967 57 967 l 218 967 q 224 961 224 967 l 225 7 q 219 0 225 0 l 63 0 z "},"í":{"ha":292,"x_min":54,"x_max":340,"o":"m 63 0 q 56 7 56 0 l 57 961 q 63 967 57 967 l 218 967 q 224 961 224 967 l 225 7 q 219 0 225 0 l 63 0 m 61 1038 q 56 1043 54 1038 l 167 1283 q 174 1289 168 1289 l 332 1289 q 338 1283 340 1289 l 208 1043 q 200 1038 206 1038 l 61 1038 z "},"ĭ":{"ha":292,"x_min":-96,"x_max":389,"o":"m 63 0 q 56 7 56 0 l 57 961 q 63 967 57 967 l 218 967 q 224 961 224 967 l 225 7 q 219 0 225 0 l 63 0 m 143 1038 q 23 1067 76 1038 q -62 1143 -31 1096 q -93 1244 -93 1190 q -87 1250 -96 1250 l 38 1250 q 69 1180 38 1211 q 147 1149 100 1149 q 227 1180 196 1149 q 258 1250 258 1211 l 383 1250 q 389 1244 389 1250 q 356 1142 389 1189 q 268 1066 324 1094 q 143 1038 213 1038 z "},"î":{"ha":292,"x_min":-128,"x_max":415,"o":"m 63 0 q 56 7 56 0 l 57 961 q 63 967 57 967 l 218 967 q 224 961 224 967 l 225 7 q 219 0 225 0 l 63 0 m -119 1039 q -125 1044 -128 1039 l 56 1257 q 64 1263 58 1263 l 224 1263 q 232 1257 229 1263 l 413 1044 q 407 1039 415 1039 l 244 1039 q 238 1044 239 1039 l 140 1165 l 42 1044 q 35 1039 40 1039 l -119 1039 z "},"ï":{"ha":292,"x_min":-83,"x_max":374,"o":"m 63 0 q 56 7 56 0 l 57 961 q 63 967 57 967 l 218 967 q 224 961 224 967 l 225 7 q 219 0 225 0 l 63 0 m 211 1061 q 206 1067 206 1061 l 206 1224 q 211 1229 206 1229 l 368 1229 q 374 1224 374 1229 l 374 1067 q 368 1061 374 1061 l 211 1061 m -78 1061 q -83 1067 -83 1061 l -83 1224 q -78 1229 -83 1229 l 79 1229 q 85 1224 85 1229 l 85 1067 q 79 1061 85 1061 l -78 1061 z "},"ì":{"ha":292,"x_min":-60,"x_max":226,"o":"m 63 0 q 56 7 56 0 l 57 961 q 63 967 57 967 l 218 967 q 224 961 224 967 l 225 7 q 219 0 225 0 l 63 0 m 81 1038 q 72 1043 75 1038 l -57 1283 q -51 1289 -60 1289 l 107 1289 q 114 1283 113 1289 l 225 1043 q 219 1038 226 1038 l 81 1038 z "},"ĳ":{"ha":828,"x_min":56,"x_max":778,"o":"m 63 0 q 56 7 56 0 l 57 961 q 63 967 57 967 l 218 967 q 224 961 224 967 l 225 7 q 219 0 225 0 l 63 0 m 539 -14 q 405 23 461 -14 q 319 124 349 60 q 290 269 290 189 l 290 333 q 296 339 290 339 l 453 339 q 458 332 458 339 l 458 269 q 475 186 458 218 q 538 154 492 154 q 594 189 579 154 q 610 269 610 224 l 610 960 q 615 965 610 965 l 771 965 q 776 958 776 965 l 778 269 q 712 63 778 140 q 539 -14 646 -14 z "},"ī":{"ha":292,"x_min":-72,"x_max":354,"o":"m 63 0 q 56 7 56 0 l 57 961 q 63 967 57 967 l 218 967 q 224 961 224 967 l 225 7 q 219 0 225 0 l 63 0 m -67 1072 q -72 1078 -72 1072 l -72 1190 q -67 1196 -72 1196 l 349 1196 q 354 1190 354 1196 l 354 1078 q 349 1072 354 1072 l -67 1072 z "},"į":{"ha":292,"x_min":-62,"x_max":225,"o":"m 63 0 q 56 7 56 0 l 57 961 q 63 967 57 967 l 218 967 q 224 961 224 967 l 225 7 q 219 0 225 0 l 63 0 m 215 -410 q 56 -379 117 -410 q -34 -297 -6 -349 q -62 -186 -62 -246 q 2 -40 -62 -100 q 169 61 67 21 l 221 0 q 109 -76 136 -43 q 82 -150 82 -110 q 115 -219 82 -193 q 214 -244 149 -244 q 219 -248 218 -244 q 221 -262 221 -251 l 222 -399 q 215 -410 222 -410 z "},"ĩ":{"ha":293,"x_min":-121,"x_max":410,"o":"m 250 1046 q 178 1060 211 1046 q 119 1090 146 1075 q 69 1104 93 1104 q 29 1091 43 1104 q 15 1058 15 1078 q 10 1053 15 1053 l -115 1053 q -121 1058 -121 1053 q -99 1133 -121 1094 q -38 1197 -78 1171 q 57 1224 1 1224 q 128 1210 97 1224 q 183 1183 158 1197 q 225 1169 207 1169 q 259 1182 244 1169 q 274 1221 274 1194 q 279 1226 274 1226 l 404 1226 q 410 1221 410 1226 q 387 1125 410 1164 q 327 1066 364 1086 q 250 1046 290 1046 m 63 0 q 56 7 56 0 l 57 961 q 63 967 57 967 l 218 967 q 224 961 224 967 l 225 7 q 219 0 225 0 l 63 0 z "},"j":{"ha":604,"x_min":11,"x_max":554,"o":"m 283 -14 q 144 23 206 -14 q 47 124 82 60 q 11 269 11 189 l 11 333 q 17 339 11 339 l 174 339 q 179 332 179 339 l 179 269 q 208 186 179 218 q 283 154 238 154 q 356 189 325 154 q 386 269 386 224 l 386 960 q 392 965 386 965 l 547 965 q 553 958 553 965 l 554 269 q 517 128 554 193 q 419 25 481 64 q 283 -14 358 -14 z "},"ĵ":{"ha":604,"x_min":11,"x_max":746,"o":"m 283 -14 q 144 23 206 -14 q 47 124 82 60 q 11 269 11 189 l 11 333 q 17 339 11 339 l 174 339 q 179 332 179 339 l 179 269 q 208 186 179 218 q 283 154 238 154 q 356 189 325 154 q 386 269 386 224 l 386 960 q 392 965 386 965 l 547 965 q 553 958 553 965 l 554 269 q 517 128 554 193 q 419 25 481 64 q 283 -14 358 -14 z "},"k":{"ha":651,"x_min":56,"x_max":647,"o":"m 61 0 q 56 7 56 0 l 58 960 q 64 967 58 967 l 219 967 q 225 960 225 967 l 225 631 l 443 961 q 453 967 447 967 l 613 967 q 615 961 618 967 l 375 578 l 644 6 q 638 0 647 0 l 468 0 q 460 6 461 0 l 272 414 l 224 338 l 224 7 q 218 0 224 0 l 61 0 z "},"ķ":{"ha":651,"x_min":56,"x_max":647,"o":"m 61 0 q 56 7 56 0 l 58 960 q 64 967 58 967 l 219 967 q 225 960 225 967 l 225 631 l 443 961 q 453 967 447 967 l 613 967 q 615 961 618 967 l 375 578 l 644 6 q 638 0 647 0 l 468 0 q 460 6 461 0 l 272 414 l 224 338 l 224 7 q 218 0 224 0 l 61 0 m 240 -410 l 240 -324 q 299 -297 275 -324 q 324 -235 324 -271 l 246 -235 q 240 -229 240 -235 l 240 -74 q 246 -68 240 -68 l 403 -68 q 408 -74 408 -68 l 408 -235 q 385 -324 408 -283 q 323 -387 361 -364 q 240 -410 285 -410 z "},"l":{"ha":551,"x_min":56,"x_max":517,"o":"m 61 0 q 56 7 56 0 l 57 960 q 64 967 57 967 l 218 967 q 225 960 225 967 l 224 171 l 510 171 q 517 164 517 171 l 517 7 q 510 0 517 0 l 61 0 z "},"ĺ":{"ha":551,"x_min":56,"x_max":517,"o":"m 61 0 q 56 7 56 0 l 57 960 q 64 967 57 967 l 218 967 q 225 960 225 967 l 224 171 l 510 171 q 517 164 517 171 l 517 7 q 510 0 517 0 l 61 0 m 63 1038 q 57 1043 56 1038 l 168 1283 q 175 1289 169 1289 l 333 1289 q 339 1283 342 1289 l 210 1043 q 201 1038 207 1038 l 63 1038 z "},"ľ":{"ha":551,"x_min":-126,"x_max":517,"o":"m 61 0 q 56 7 56 0 l 57 960 q 64 967 57 967 l 218 967 q 225 960 225 967 l 224 171 l 510 171 q 517 164 517 171 l 517 7 q 510 0 517 0 l 61 0 m 65 1042 q 57 1047 60 1042 l -124 1260 q -118 1265 -126 1265 l 40 1265 q 47 1260 46 1265 l 144 1139 l 243 1260 q 250 1265 244 1265 l 408 1265 q 414 1260 417 1265 l 233 1047 q 225 1042 231 1042 l 65 1042 z "},"ļ":{"ha":551,"x_min":56,"x_max":517,"o":"m 61 0 q 56 7 56 0 l 57 960 q 64 967 57 967 l 218 967 q 225 960 225 967 l 224 171 l 510 171 q 517 164 517 171 l 517 7 q 510 0 517 0 l 61 0 m 206 -410 l 206 -324 q 265 -297 240 -324 q 289 -235 289 -271 l 211 -235 q 206 -229 206 -235 l 206 -74 q 211 -68 206 -68 l 368 -68 q 374 -74 374 -68 l 374 -235 q 350 -324 374 -283 q 288 -387 326 -364 q 206 -410 250 -410 z "},"ŀ":{"ha":551,"x_min":56,"x_max":517,"o":"m 61 0 q 56 7 56 0 l 57 960 q 64 967 57 967 l 218 967 q 225 960 225 967 l 224 171 l 510 171 q 517 164 517 171 l 517 7 q 510 0 517 0 l 61 0 z "},"ł":{"ha":551,"x_min":-56,"x_max":517,"o":"m 61 0 q 56 7 56 0 l 56 419 l -3 399 q -11 403 -8 397 l -53 522 q -49 532 -56 529 l 57 568 l 57 960 q 64 967 57 967 l 218 967 q 225 960 225 967 l 225 625 l 365 674 q 374 669 371 676 l 414 549 q 411 540 417 542 l 224 476 l 224 171 l 510 171 q 517 164 517 171 l 517 7 q 510 0 517 0 l 61 0 z "},"m":{"ha":746,"x_min":56,"x_max":685,"o":"m 61 0 q 56 7 56 0 l 58 961 q 64 967 58 967 l 233 967 q 243 961 239 967 l 369 778 l 496 961 q 506 967 500 967 l 676 967 q 682 961 682 967 l 685 7 q 679 0 685 0 l 522 0 q 517 7 517 0 l 515 715 l 369 504 l 225 715 l 224 7 q 218 0 224 0 l 61 0 z "},"n":{"ha":644,"x_min":56,"x_max":579,"o":"m 68 0 q 57 10 57 0 l 56 956 q 67 967 56 967 l 192 967 l 426 419 l 419 956 q 432 967 419 967 l 569 967 q 578 956 578 967 l 579 8 q 572 0 579 0 l 450 0 l 210 511 l 219 11 q 207 0 219 0 l 68 0 z "},"ń":{"ha":644,"x_min":56,"x_max":579,"o":"m 68 0 q 57 10 57 0 l 56 956 q 67 967 56 967 l 192 967 l 426 419 l 419 956 q 432 967 419 967 l 569 967 q 578 956 578 967 l 579 8 q 572 0 579 0 l 450 0 l 210 511 l 219 11 q 207 0 219 0 l 68 0 m 215 1038 q 210 1043 208 1038 l 321 1283 q 328 1289 322 1289 l 486 1289 q 492 1283 494 1289 l 363 1043 q 354 1038 360 1038 l 215 1038 z "},"ň":{"ha":644,"x_min":26,"x_max":579,"o":"m 68 0 q 57 10 57 0 l 56 956 q 67 967 56 967 l 192 967 l 426 419 l 419 956 q 432 967 419 967 l 569 967 q 578 956 578 967 l 579 8 q 572 0 579 0 l 450 0 l 210 511 l 219 11 q 207 0 219 0 l 68 0 m 218 1042 q 210 1047 213 1042 l 29 1260 q 35 1265 26 1265 l 193 1265 q 200 1260 199 1265 l 297 1139 l 396 1260 q 403 1265 397 1265 l 561 1265 q 567 1260 569 1265 l 386 1047 q 378 1042 383 1042 l 218 1042 z "},"ņ":{"ha":644,"x_min":56,"x_max":579,"o":"m 68 0 q 57 10 57 0 l 56 956 q 67 967 56 967 l 192 967 l 426 419 l 419 956 q 432 967 419 967 l 569 967 q 578 956 578 967 l 579 8 q 572 0 579 0 l 450 0 l 210 511 l 219 11 q 207 0 219 0 l 68 0 m 244 -410 l 244 -324 q 303 -297 279 -324 q 328 -235 328 -271 l 250 -235 q 244 -229 244 -235 l 244 -74 q 250 -68 244 -68 l 407 -68 q 413 -74 413 -68 l 413 -235 q 389 -324 413 -283 q 327 -387 365 -364 q 244 -410 289 -410 z "},"ŋ":{"ha":644,"x_min":56,"x_max":579,"o":"m 68 0 q 57 10 57 0 l 56 956 q 67 967 56 967 l 192 967 l 426 419 l 419 956 q 432 967 419 967 l 569 967 q 578 956 578 967 l 579 42 l 579 42 l 579 -112 q 552 -274 579 -215 q 475 -358 525 -333 q 353 -382 425 -382 l 313 -382 q 307 -376 307 -382 l 307 -225 q 313 -219 307 -219 l 349 -219 q 417 -199 400 -219 q 435 -117 435 -178 l 435 32 l 210 511 l 219 11 q 207 0 219 0 l 68 0 z "},"ñ":{"ha":644,"x_min":53,"x_max":583,"o":"m 68 0 q 57 10 57 0 l 56 956 q 67 967 56 967 l 192 967 l 426 419 l 419 956 q 432 967 419 967 l 569 967 q 578 956 578 967 l 579 8 q 572 0 579 0 l 450 0 l 210 511 l 219 11 q 207 0 219 0 l 68 0 m 424 1046 q 352 1060 385 1046 q 293 1090 319 1075 q 243 1104 267 1104 q 203 1091 217 1104 q 189 1058 189 1078 q 183 1053 189 1053 l 58 1053 q 53 1058 53 1053 q 74 1133 53 1094 q 135 1197 96 1171 q 231 1224 175 1224 q 301 1210 271 1224 q 356 1183 332 1197 q 399 1169 381 1169 q 433 1182 418 1169 q 447 1221 447 1194 q 453 1226 447 1226 l 578 1226 q 583 1221 583 1226 q 560 1125 583 1164 q 501 1066 538 1086 q 424 1046 464 1046 z "},"o":{"ha":635,"x_min":39,"x_max":585,"o":"m 313 -14 q 176 24 238 -14 q 76 126 114 63 q 39 265 39 189 l 40 706 q 77 844 40 782 q 176 944 114 907 q 313 982 239 982 q 449 944 388 982 q 547 844 510 907 q 583 706 583 782 l 585 265 q 548 126 585 189 q 449 24 511 63 q 313 -14 388 -14 m 313 154 q 385 188 354 154 q 417 265 417 222 l 415 706 q 386 783 415 751 q 313 815 357 815 q 239 784 269 815 q 208 706 208 753 l 208 265 q 239 187 208 219 q 313 154 269 154 z "},"ó":{"ha":635,"x_min":39,"x_max":585,"o":"m 313 -14 q 176 24 238 -14 q 76 126 114 63 q 39 265 39 189 l 40 706 q 77 844 40 782 q 176 944 114 907 q 313 982 239 982 q 449 944 388 982 q 547 844 510 907 q 583 706 583 782 l 585 265 q 548 126 585 189 q 449 24 511 63 q 313 -14 388 -14 m 313 154 q 385 188 354 154 q 417 265 417 222 l 415 706 q 386 783 415 751 q 313 815 357 815 q 239 784 269 815 q 208 706 208 753 l 208 265 q 239 187 208 219 q 313 154 269 154 m 228 1038 q 222 1043 221 1038 l 333 1283 q 340 1289 335 1289 l 499 1289 q 504 1283 507 1289 l 375 1043 q 367 1038 372 1038 l 228 1038 z "},"ŏ":{"ha":635,"x_min":39,"x_max":585,"o":"m 313 -14 q 176 24 238 -14 q 76 126 114 63 q 39 265 39 189 l 40 706 q 77 844 40 782 q 176 944 114 907 q 313 982 239 982 q 449 944 388 982 q 547 844 510 907 q 583 706 583 782 l 585 265 q 548 126 585 189 q 449 24 511 63 q 313 -14 388 -14 m 313 154 q 385 188 354 154 q 417 265 417 222 l 415 706 q 386 783 415 751 q 313 815 357 815 q 239 784 269 815 q 208 706 208 753 l 208 265 q 239 187 208 219 q 313 154 269 154 m 310 1038 q 190 1067 243 1038 q 105 1143 136 1096 q 74 1244 74 1190 q 79 1250 71 1250 l 204 1250 q 235 1180 204 1211 q 314 1149 267 1149 q 394 1180 363 1149 q 425 1250 425 1211 l 550 1250 q 556 1244 556 1250 q 523 1142 556 1189 q 435 1066 490 1094 q 310 1038 379 1038 z "},"ô":{"ha":635,"x_min":39,"x_max":585,"o":"m 313 -14 q 176 24 238 -14 q 76 126 114 63 q 39 265 39 189 l 40 706 q 77 844 40 782 q 176 944 114 907 q 313 982 239 982 q 449 944 388 982 q 547 844 510 907 q 583 706 583 782 l 585 265 q 548 126 585 189 q 449 24 511 63 q 313 -14 388 -14 m 313 154 q 385 188 354 154 q 417 265 417 222 l 415 706 q 386 783 415 751 q 313 815 357 815 q 239 784 269 815 q 208 706 208 753 l 208 265 q 239 187 208 219 q 313 154 269 154 m 47 1039 q 42 1044 39 1039 l 222 1257 q 231 1263 225 1263 l 390 1263 q 399 1257 396 1263 l 579 1044 q 574 1039 582 1039 l 411 1039 q 404 1044 406 1039 l 307 1165 l 208 1044 q 201 1039 207 1039 l 47 1039 z "},"ö":{"ha":635,"x_min":39,"x_max":585,"o":"m 313 -14 q 176 24 238 -14 q 76 126 114 63 q 39 265 39 189 l 40 706 q 77 844 40 782 q 176 944 114 907 q 313 982 239 982 q 449 944 388 982 q 547 844 510 907 q 583 706 583 782 l 585 265 q 548 126 585 189 q 449 24 511 63 q 313 -14 388 -14 m 313 154 q 385 188 354 154 q 417 265 417 222 l 415 706 q 386 783 415 751 q 313 815 357 815 q 239 784 269 815 q 208 706 208 753 l 208 265 q 239 187 208 219 q 313 154 269 154 m 378 1061 q 372 1067 372 1061 l 372 1224 q 378 1229 372 1229 l 535 1229 q 540 1224 540 1229 l 540 1067 q 535 1061 540 1061 l 378 1061 m 89 1061 q 83 1067 83 1061 l 83 1224 q 89 1229 83 1229 l 246 1229 q 251 1224 251 1229 l 251 1067 q 246 1061 251 1061 l 89 1061 z "},"ò":{"ha":635,"x_min":39,"x_max":585,"o":"m 313 -14 q 176 24 238 -14 q 76 126 114 63 q 39 265 39 189 l 40 706 q 77 844 40 782 q 176 944 114 907 q 313 982 239 982 q 449 944 388 982 q 547 844 510 907 q 583 706 583 782 l 585 265 q 548 126 585 189 q 449 24 511 63 q 313 -14 388 -14 m 313 154 q 385 188 354 154 q 417 265 417 222 l 415 706 q 386 783 415 751 q 313 815 357 815 q 239 784 269 815 q 208 706 208 753 l 208 265 q 239 187 208 219 q 313 154 269 154 m 247 1038 q 239 1043 242 1038 l 110 1283 q 115 1289 107 1289 l 274 1289 q 281 1283 279 1289 l 392 1043 q 386 1038 393 1038 l 247 1038 z "},"ő":{"ha":635,"x_min":39,"x_max":639,"o":"m 313 -14 q 176 24 238 -14 q 76 126 114 63 q 39 265 39 189 l 40 706 q 77 844 40 782 q 176 944 114 907 q 313 982 239 982 q 449 944 388 982 q 547 844 510 907 q 583 706 583 782 l 585 265 q 548 126 585 189 q 449 24 511 63 q 313 -14 388 -14 m 313 154 q 385 188 354 154 q 417 265 417 222 l 415 706 q 386 783 415 751 q 313 815 357 815 q 239 784 269 815 q 208 706 208 753 l 208 265 q 239 187 208 219 q 313 154 269 154 m 376 1038 q 371 1043 369 1038 l 465 1283 q 472 1289 467 1289 l 631 1289 q 636 1283 639 1289 l 524 1043 q 515 1038 521 1038 l 376 1038 m 76 1038 q 71 1043 69 1038 l 161 1283 q 168 1289 163 1289 l 326 1289 q 332 1283 335 1289 l 224 1043 q 215 1038 221 1038 l 76 1038 z "},"ō":{"ha":635,"x_min":39,"x_max":585,"o":"m 313 -14 q 176 24 238 -14 q 76 126 114 63 q 39 265 39 189 l 40 706 q 77 844 40 782 q 176 944 114 907 q 313 982 239 982 q 449 944 388 982 q 547 844 510 907 q 583 706 583 782 l 585 265 q 548 126 585 189 q 449 24 511 63 q 313 -14 388 -14 m 313 154 q 385 188 354 154 q 417 265 417 222 l 415 706 q 386 783 415 751 q 313 815 357 815 q 239 784 269 815 q 208 706 208 753 l 208 265 q 239 187 208 219 q 313 154 269 154 m 100 1072 q 94 1078 94 1072 l 94 1190 q 100 1196 94 1196 l 515 1196 q 521 1190 521 1196 l 521 1078 q 515 1072 521 1072 l 100 1072 z "},"ø":{"ha":636,"x_min":-36,"x_max":669,"o":"m -29 -51 q -34 -49 -32 -51 q -35 -43 -36 -46 l 67 143 q 39 265 39 200 l 40 706 q 77 844 40 782 q 176 944 114 907 q 313 982 239 982 q 409 964 364 982 q 490 914 454 946 l 544 1013 q 553 1017 547 1017 l 658 1017 q 664 1006 669 1017 l 561 817 q 583 706 583 764 l 585 265 q 548 126 585 189 q 449 24 511 63 q 313 -14 388 -14 q 220 3 264 -14 q 140 49 176 19 l 88 -49 q 81 -51 85 -51 l -29 -51 m 208 706 l 208 400 l 404 757 q 367 799 392 783 q 313 815 343 815 q 239 784 269 815 q 208 706 208 753 m 313 154 q 385 188 354 154 q 417 265 417 222 l 415 551 l 226 204 q 263 168 240 182 q 313 154 286 154 z "},"ǿ":{"ha":636,"x_min":-36,"x_max":669,"o":"m -29 -51 q -34 -49 -32 -51 q -35 -43 -36 -46 l 67 143 q 39 265 39 200 l 40 706 q 77 844 40 782 q 176 944 114 907 q 313 982 239 982 q 409 964 364 982 q 490 914 454 946 l 544 1013 q 553 1017 547 1017 l 658 1017 q 664 1006 669 1017 l 561 817 q 583 706 583 764 l 585 265 q 548 126 585 189 q 449 24 511 63 q 313 -14 388 -14 q 220 3 264 -14 q 140 49 176 19 l 88 -49 q 81 -51 85 -51 l -29 -51 m 208 706 l 208 400 l 404 757 q 367 799 392 783 q 313 815 343 815 q 239 784 269 815 q 208 706 208 753 m 313 154 q 385 188 354 154 q 417 265 417 222 l 415 551 l 226 204 q 263 168 240 182 q 313 154 286 154 m 228 1038 q 222 1043 221 1038 l 333 1283 q 340 1289 335 1289 l 499 1289 q 504 1283 507 1289 l 375 1043 q 367 1038 372 1038 l 228 1038 z "},"õ":{"ha":636,"x_min":39,"x_max":585,"o":"m 421 1046 q 349 1060 382 1046 q 290 1090 317 1075 q 240 1104 264 1104 q 200 1091 214 1104 q 186 1058 186 1078 q 181 1053 186 1053 l 56 1053 q 50 1058 50 1053 q 72 1133 50 1094 q 133 1197 93 1171 q 228 1224 172 1224 q 299 1210 268 1224 q 353 1183 329 1197 q 396 1169 378 1169 q 430 1182 415 1169 q 444 1221 444 1194 q 450 1226 444 1226 l 575 1226 q 581 1221 581 1226 q 558 1125 581 1164 q 498 1066 535 1086 q 421 1046 461 1046 m 313 -14 q 176 24 238 -14 q 76 126 114 63 q 39 265 39 189 l 40 706 q 77 844 40 782 q 176 944 114 907 q 313 982 239 982 q 449 944 388 982 q 547 844 510 907 q 583 706 583 782 l 585 265 q 548 126 585 189 q 449 24 511 63 q 313 -14 388 -14 m 313 154 q 385 188 354 154 q 417 265 417 222 l 415 706 q 386 783 415 751 q 313 815 357 815 q 239 784 269 815 q 208 706 208 753 l 208 265 q 239 187 208 219 q 313 154 269 154 z "},"œ":{"ha":915,"x_min":39,"x_max":847,"o":"m 313 0 q 176 38 238 0 q 76 140 114 76 q 39 279 39 203 l 40 692 q 77 830 40 768 q 176 929 114 892 q 313 967 239 967 l 840 967 q 846 960 846 967 l 846 804 q 840 799 846 799 l 556 799 l 556 582 l 840 582 q 846 576 846 582 l 847 419 q 842 414 847 414 l 556 414 l 556 171 l 842 171 q 847 164 847 171 l 847 6 q 842 0 847 0 l 313 0 m 313 168 q 338 168 314 168 q 388 168 363 168 l 389 801 l 313 801 q 239 770 269 801 q 208 692 208 739 l 208 279 q 239 201 208 233 q 313 168 269 168 z "},"p":{"ha":646,"x_min":56,"x_max":607,"o":"m 63 0 q 56 7 56 0 l 58 961 q 64 967 58 967 l 331 967 q 533 889 458 967 q 607 678 607 811 q 568 507 607 579 q 467 396 529 435 q 331 357 404 357 l 225 357 l 225 7 q 218 0 225 0 l 63 0 m 225 525 l 331 525 q 408 567 375 525 q 440 678 440 610 q 411 767 440 732 q 331 801 382 801 l 225 800 l 225 525 z "},"þ":{"ha":636,"x_min":56,"x_max":608,"o":"m 63 0 q 56 7 56 0 l 58 961 q 64 967 58 967 l 217 967 q 225 958 225 967 l 225 806 l 332 806 q 534 728 460 806 q 608 517 608 650 q 569 347 608 419 q 467 235 531 275 q 332 196 404 196 l 225 196 l 225 7 q 218 0 225 0 l 63 0 m 225 364 l 332 364 q 409 406 376 364 q 442 517 442 449 q 413 606 442 571 q 332 640 383 642 l 225 639 l 225 364 z "},"q":{"ha":647,"x_min":39,"x_max":636,"o":"m 513 -89 l 417 8 q 313 -14 367 -14 q 176 24 239 -14 q 76 125 114 61 q 39 265 39 189 l 40 706 q 76 842 40 779 q 174 944 113 906 q 313 982 236 982 q 448 945 386 982 q 547 846 510 908 q 583 706 583 783 l 585 265 q 574 188 585 225 q 544 118 563 150 l 631 31 q 632 21 636 25 l 522 -89 q 513 -89 517 -93 m 313 154 q 388 190 360 154 q 417 265 417 225 l 415 706 q 386 783 415 750 q 313 815 357 815 q 237 782 265 815 q 208 706 208 749 l 208 265 q 241 185 208 215 q 313 154 274 154 z "},"r":{"ha":669,"x_min":56,"x_max":621,"o":"m 61 0 q 56 7 56 0 l 58 961 q 64 967 58 967 l 344 967 q 483 930 419 967 q 583 831 546 893 q 621 692 621 769 q 606 599 621 640 q 569 530 590 558 q 532 488 549 501 q 607 292 607 404 l 608 7 q 601 0 608 0 l 444 0 q 439 4 439 0 l 439 292 q 403 378 439 342 q 317 415 368 415 l 225 415 l 224 7 q 218 0 224 0 l 61 0 m 225 582 l 344 582 q 421 614 388 582 q 454 692 454 646 q 422 768 454 736 q 344 800 389 800 l 225 800 l 225 582 z "},"ŕ":{"ha":669,"x_min":56,"x_max":621,"o":"m 61 0 q 56 7 56 0 l 58 961 q 64 967 58 967 l 344 967 q 483 930 419 967 q 583 831 546 893 q 621 692 621 769 q 606 599 621 640 q 569 530 590 558 q 532 488 549 501 q 607 292 607 404 l 608 7 q 601 0 608 0 l 444 0 q 439 4 439 0 l 439 292 q 403 378 439 342 q 317 415 368 415 l 225 415 l 224 7 q 218 0 224 0 l 61 0 m 225 582 l 344 582 q 421 614 388 582 q 454 692 454 646 q 422 768 454 736 q 344 800 389 800 l 225 800 l 225 582 m 239 1038 q 233 1043 232 1038 l 344 1283 q 351 1289 346 1289 l 510 1289 q 515 1283 518 1289 l 386 1043 q 378 1038 383 1038 l 239 1038 z "},"ř":{"ha":669,"x_min":50,"x_max":621,"o":"m 61 0 q 56 7 56 0 l 58 961 q 64 967 58 967 l 344 967 q 483 930 419 967 q 583 831 546 893 q 621 692 621 769 q 606 599 621 640 q 569 530 590 558 q 532 488 549 501 q 607 292 607 404 l 608 7 q 601 0 608 0 l 444 0 q 439 4 439 0 l 439 292 q 403 378 439 342 q 317 415 368 415 l 225 415 l 224 7 q 218 0 224 0 l 61 0 m 225 582 l 344 582 q 421 614 388 582 q 454 692 454 646 q 422 768 454 736 q 344 800 389 800 l 225 800 l 225 582 m 242 1042 q 233 1047 236 1042 l 53 1260 q 58 1265 50 1265 l 217 1265 q 224 1260 222 1265 l 321 1139 l 419 1260 q 426 1265 421 1265 l 585 1265 q 590 1260 593 1265 l 410 1047 q 401 1042 407 1042 l 242 1042 z "},"ŗ":{"ha":669,"x_min":56,"x_max":621,"o":"m 61 0 q 56 7 56 0 l 58 961 q 64 967 58 967 l 344 967 q 483 930 419 967 q 583 831 546 893 q 621 692 621 769 q 606 599 621 640 q 569 530 590 558 q 532 488 549 501 q 607 292 607 404 l 608 7 q 601 0 608 0 l 444 0 q 439 4 439 0 l 439 292 q 403 378 439 342 q 317 415 368 415 l 225 415 l 224 7 q 218 0 224 0 l 61 0 m 225 582 l 344 582 q 421 614 388 582 q 454 692 454 646 q 422 768 454 736 q 344 800 389 800 l 225 800 l 225 582 m 246 -410 l 246 -324 q 305 -297 281 -324 q 329 -235 329 -271 l 251 -235 q 246 -229 246 -235 l 246 -74 q 251 -68 246 -68 l 408 -68 q 414 -74 414 -68 l 414 -235 q 390 -324 414 -283 q 328 -387 367 -364 q 246 -410 290 -410 z "},"s":{"ha":606,"x_min":19,"x_max":564,"o":"m 292 -14 q 155 24 217 -14 q 56 126 93 63 q 19 265 19 189 l 19 329 q 26 336 19 336 l 182 336 q 188 329 188 336 l 188 265 q 218 187 188 219 q 292 154 249 154 q 365 188 335 154 q 396 265 396 221 q 329 354 396 317 q 260 393 307 367 q 171 443 213 419 q 58 555 94 488 q 21 707 21 622 q 58 847 21 785 q 158 944 96 908 q 292 981 219 981 q 427 944 365 981 q 526 845 489 907 q 563 707 563 783 l 563 593 q 557 588 563 588 l 401 588 q 396 593 396 588 l 394 707 q 364 786 394 756 q 292 817 333 817 q 218 784 249 817 q 188 707 188 751 q 207 631 188 661 q 278 572 226 600 q 305 558 285 568 q 349 534 325 547 q 391 511 372 521 q 414 499 410 501 q 524 403 483 460 q 564 265 564 347 q 527 123 564 186 q 428 23 490 60 q 292 -14 367 -14 z "},"ś":{"ha":606,"x_min":19,"x_max":564,"o":"m 292 -14 q 155 24 217 -14 q 56 126 93 63 q 19 265 19 189 l 19 329 q 26 336 19 336 l 182 336 q 188 329 188 336 l 188 265 q 218 187 188 219 q 292 154 249 154 q 365 188 335 154 q 396 265 396 221 q 329 354 396 317 q 260 393 307 367 q 171 443 213 419 q 58 555 94 488 q 21 707 21 622 q 58 847 21 785 q 158 944 96 908 q 292 981 219 981 q 427 944 365 981 q 526 845 489 907 q 563 707 563 783 l 563 593 q 557 588 563 588 l 401 588 q 396 593 396 588 l 394 707 q 364 786 394 756 q 292 817 333 817 q 218 784 249 817 q 188 707 188 751 q 207 631 188 661 q 278 572 226 600 q 305 558 285 568 q 349 534 325 547 q 391 511 372 521 q 414 499 410 501 q 524 403 483 460 q 564 265 564 347 q 527 123 564 186 q 428 23 490 60 q 292 -14 367 -14 m 207 1038 q 201 1043 200 1038 l 313 1283 q 319 1289 314 1289 l 478 1289 q 483 1283 486 1289 l 354 1043 q 346 1038 351 1038 l 207 1038 z "},"š":{"ha":606,"x_min":18,"x_max":564,"o":"m 292 -14 q 155 24 217 -14 q 56 126 93 63 q 19 265 19 189 l 19 329 q 26 336 19 336 l 182 336 q 188 329 188 336 l 188 265 q 218 187 188 219 q 292 154 249 154 q 365 188 335 154 q 396 265 396 221 q 329 354 396 317 q 260 393 307 367 q 171 443 213 419 q 58 555 94 488 q 21 707 21 622 q 58 847 21 785 q 158 944 96 908 q 292 981 219 981 q 427 944 365 981 q 526 845 489 907 q 563 707 563 783 l 563 593 q 557 588 563 588 l 401 588 q 396 593 396 588 l 394 707 q 364 786 394 756 q 292 817 333 817 q 218 784 249 817 q 188 707 188 751 q 207 631 188 661 q 278 572 226 600 q 305 558 285 568 q 349 534 325 547 q 391 511 372 521 q 414 499 410 501 q 524 403 483 460 q 564 265 564 347 q 527 123 564 186 q 428 23 490 60 q 292 -14 367 -14 m 210 1042 q 201 1047 204 1042 l 21 1260 q 26 1265 18 1265 l 185 1265 q 192 1260 190 1265 l 289 1139 l 388 1260 q 394 1265 389 1265 l 553 1265 q 558 1260 561 1265 l 378 1047 q 369 1042 375 1042 l 210 1042 z "},"ş":{"ha":606,"x_min":19,"x_max":564,"o":"m 292 -14 q 155 24 217 -14 q 56 126 93 63 q 19 265 19 189 l 19 329 q 26 336 19 336 l 182 336 q 188 329 188 336 l 188 265 q 218 187 188 219 q 292 154 249 154 q 365 188 335 154 q 396 265 396 221 q 329 354 396 317 q 260 393 307 367 q 171 443 213 419 q 58 555 94 488 q 21 707 21 622 q 58 847 21 785 q 158 944 96 908 q 292 981 219 981 q 427 944 365 981 q 526 845 489 907 q 563 707 563 783 l 563 593 q 557 588 563 588 l 401 588 q 396 593 396 588 l 394 707 q 364 786 394 756 q 292 817 333 817 q 218 784 249 817 q 188 707 188 751 q 207 631 188 661 q 278 572 226 600 q 305 558 285 568 q 349 534 325 547 q 391 511 372 521 q 414 499 410 501 q 524 403 483 460 q 564 265 564 347 q 527 123 564 186 q 428 23 490 60 q 292 -14 367 -14 m 154 -136 q 149 -131 146 -136 l 242 22 q 250 28 244 28 l 365 28 q 371 22 372 28 l 326 -57 q 442 -110 399 -68 q 485 -210 485 -151 q 455 -311 485 -265 q 375 -383 425 -357 q 261 -410 325 -410 q 185 -403 224 -410 q 128 -386 147 -397 q 125 -382 125 -383 l 121 -260 q 129 -254 121 -251 q 203 -273 171 -268 q 258 -278 236 -278 q 326 -261 303 -278 q 350 -217 350 -244 q 307 -158 350 -181 q 169 -136 264 -136 l 154 -136 z "},"ŝ":{"ha":606,"x_min":18,"x_max":564,"o":"m 292 -14 q 155 24 217 -14 q 56 126 93 63 q 19 265 19 189 l 19 329 q 26 336 19 336 l 182 336 q 188 329 188 336 l 188 265 q 218 187 188 219 q 292 154 249 154 q 365 188 335 154 q 396 265 396 221 q 329 354 396 317 q 260 393 307 367 q 171 443 213 419 q 58 555 94 488 q 21 707 21 622 q 58 847 21 785 q 158 944 96 908 q 292 981 219 981 q 427 944 365 981 q 526 845 489 907 q 563 707 563 783 l 563 593 q 557 588 563 588 l 401 588 q 396 593 396 588 l 394 707 q 364 786 394 756 q 292 817 333 817 q 218 784 249 817 q 188 707 188 751 q 207 631 188 661 q 278 572 226 600 q 305 558 285 568 q 349 534 325 547 q 391 511 372 521 q 414 499 410 501 q 524 403 483 460 q 564 265 564 347 q 527 123 564 186 q 428 23 490 60 q 292 -14 367 -14 m 26 1039 q 21 1044 18 1039 l 201 1257 q 210 1263 204 1263 l 369 1263 q 378 1257 375 1263 l 558 1044 q 553 1039 561 1039 l 390 1039 q 383 1044 385 1039 l 286 1165 l 188 1044 q 181 1039 186 1039 l 26 1039 z "},"ș":{"ha":606,"x_min":19,"x_max":564,"o":"m 292 -14 q 155 24 217 -14 q 56 126 93 63 q 19 265 19 189 l 19 329 q 26 336 19 336 l 182 336 q 188 329 188 336 l 188 265 q 218 187 188 219 q 292 154 249 154 q 365 188 335 154 q 396 265 396 221 q 329 354 396 317 q 260 393 307 367 q 171 443 213 419 q 58 555 94 488 q 21 707 21 622 q 58 847 21 785 q 158 944 96 908 q 292 981 219 981 q 427 944 365 981 q 526 845 489 907 q 563 707 563 783 l 563 593 q 557 588 563 588 l 401 588 q 396 593 396 588 l 394 707 q 364 786 394 756 q 292 817 333 817 q 218 784 249 817 q 188 707 188 751 q 207 631 188 661 q 278 572 226 600 q 305 558 285 568 q 349 534 325 547 q 391 511 372 521 q 414 499 410 501 q 524 403 483 460 q 564 265 564 347 q 527 123 564 186 q 428 23 490 60 q 292 -14 367 -14 m 217 -410 l 217 -324 q 276 -297 251 -324 q 300 -235 300 -271 l 222 -235 q 217 -229 217 -235 l 217 -74 q 222 -68 217 -68 l 379 -68 q 385 -74 385 -68 l 385 -235 q 361 -324 385 -283 q 299 -387 338 -364 q 217 -410 261 -410 z "},"ß":{"ha":668,"x_min":56,"x_max":631,"o":"m 64 0 q 56 8 56 0 l 57 664 q 90 822 57 750 q 189 938 124 894 q 350 981 254 981 q 494 943 431 981 q 594 840 557 906 q 631 692 631 775 q 603 581 631 632 q 539 497 576 529 q 601 404 579 457 q 624 293 624 351 q 585 146 624 213 q 480 40 546 79 q 333 0 414 0 l 314 0 q 306 8 306 0 l 308 161 q 317 169 308 169 l 333 169 q 419 206 383 169 q 456 293 456 243 q 422 377 456 342 q 342 415 389 413 q 333 424 333 415 l 333 575 q 342 583 333 583 l 354 583 q 433 617 403 583 q 463 692 463 651 q 431 781 463 747 q 342 814 399 814 q 253 769 281 814 q 225 665 225 725 l 225 8 q 217 0 225 0 l 64 0 z "},"t":{"ha":556,"x_min":1,"x_max":543,"o":"m 194 0 q 189 7 189 0 l 189 799 l 8 799 q 1 806 1 799 l 3 961 q 8 967 3 967 l 536 967 q 543 961 543 967 l 543 806 q 538 799 543 799 l 356 799 l 357 7 q 351 0 357 0 l 194 0 z "},"ŧ":{"ha":556,"x_min":1,"x_max":543,"o":"m 194 0 q 189 7 189 0 l 189 431 l 72 431 q 67 438 67 431 l 67 582 q 74 589 67 589 l 189 589 l 189 799 l 8 799 q 1 806 1 799 l 3 961 q 8 967 3 967 l 536 967 q 543 961 543 967 l 543 806 q 538 799 543 799 l 356 799 l 356 589 l 476 589 q 482 582 482 589 l 482 438 q 476 431 482 431 l 356 431 l 357 7 q 351 0 357 0 l 194 0 z "},"ť":{"ha":556,"x_min":-1,"x_max":543,"o":"m 194 0 q 189 7 189 0 l 189 799 l 8 799 q 1 806 1 799 l 3 961 q 8 967 3 967 l 536 967 q 543 961 543 967 l 543 806 q 538 799 543 799 l 356 799 l 357 7 q 351 0 357 0 l 194 0 m 190 1042 q 182 1047 185 1042 l 1 1260 q 7 1265 -1 1265 l 165 1265 q 172 1260 171 1265 l 269 1139 l 368 1260 q 375 1265 369 1265 l 533 1265 q 539 1260 542 1265 l 358 1047 q 350 1042 356 1042 l 190 1042 z "},"ţ":{"ha":556,"x_min":1,"x_max":543,"o":"m 194 0 q 189 7 189 0 l 189 799 l 8 799 q 1 806 1 799 l 3 961 q 8 967 3 967 l 536 967 q 543 961 543 967 l 543 806 q 538 799 543 799 l 356 799 l 357 7 q 351 0 357 0 l 194 0 m 110 -136 q 104 -131 101 -136 l 197 22 q 206 28 200 28 l 321 28 q 326 22 328 28 l 282 -57 q 397 -110 354 -68 q 440 -210 440 -151 q 410 -311 440 -265 q 331 -383 381 -357 q 217 -410 281 -410 q 141 -403 179 -410 q 83 -386 103 -397 q 81 -382 81 -383 l 76 -260 q 85 -254 76 -251 q 159 -273 126 -268 q 214 -278 192 -278 q 282 -261 258 -278 q 306 -217 306 -244 q 263 -158 306 -181 q 125 -136 219 -136 l 110 -136 z "},"ț":{"ha":556,"x_min":1,"x_max":543,"o":"m 194 0 q 189 7 189 0 l 189 799 l 8 799 q 1 806 1 799 l 3 961 q 8 967 3 967 l 536 967 q 543 961 543 967 l 543 806 q 538 799 543 799 l 356 799 l 357 7 q 351 0 357 0 l 194 0 m 190 -425 l 190 -339 q 249 -312 225 -339 q 274 -250 274 -286 l 196 -250 q 190 -244 190 -250 l 190 -89 q 196 -83 190 -83 l 353 -83 q 358 -89 358 -83 l 358 -250 q 335 -339 358 -299 q 273 -402 311 -379 q 190 -425 235 -425 z "},"u":{"ha":639,"x_min":39,"x_max":585,"o":"m 311 -14 q 175 24 238 -14 q 76 126 113 63 q 39 267 39 190 l 42 961 q 47 967 42 967 l 203 967 q 208 961 208 967 l 208 267 q 238 187 208 219 q 311 154 268 154 q 385 187 356 154 q 415 267 415 219 l 415 961 q 421 967 415 967 l 576 967 q 582 961 582 967 l 585 267 q 548 125 585 189 q 449 24 511 61 q 311 -14 388 -14 z "},"ú":{"ha":639,"x_min":39,"x_max":585,"o":"m 311 -14 q 175 24 238 -14 q 76 126 113 63 q 39 267 39 190 l 42 961 q 47 967 42 967 l 203 967 q 208 961 208 967 l 208 267 q 238 187 208 219 q 311 154 268 154 q 385 187 356 154 q 415 267 415 219 l 415 961 q 421 967 415 967 l 576 967 q 582 961 582 967 l 585 267 q 548 125 585 189 q 449 24 511 61 q 311 -14 388 -14 m 225 1038 q 219 1043 218 1038 l 331 1283 q 338 1289 332 1289 l 496 1289 q 501 1283 504 1289 l 372 1043 q 364 1038 369 1038 l 225 1038 z "},"ŭ":{"ha":639,"x_min":39,"x_max":585,"o":"m 311 -14 q 175 24 238 -14 q 76 126 113 63 q 39 267 39 190 l 42 961 q 47 967 42 967 l 203 967 q 208 961 208 967 l 208 267 q 238 187 208 219 q 311 154 268 154 q 385 187 356 154 q 415 267 415 219 l 415 961 q 421 967 415 967 l 576 967 q 582 961 582 967 l 585 267 q 548 125 585 189 q 449 24 511 61 q 311 -14 388 -14 m 307 1038 q 187 1067 240 1038 q 102 1143 133 1096 q 71 1244 71 1190 q 76 1250 68 1250 l 201 1250 q 233 1180 201 1211 q 311 1149 264 1149 q 391 1180 360 1149 q 422 1250 422 1211 l 547 1250 q 553 1244 553 1250 q 520 1142 553 1189 q 432 1066 488 1094 q 307 1038 376 1038 z "},"û":{"ha":639,"x_min":36,"x_max":585,"o":"m 311 -14 q 175 24 238 -14 q 76 126 113 63 q 39 267 39 190 l 42 961 q 47 967 42 967 l 203 967 q 208 961 208 967 l 208 267 q 238 187 208 219 q 311 154 268 154 q 385 187 356 154 q 415 267 415 219 l 415 961 q 421 967 415 967 l 576 967 q 582 961 582 967 l 585 267 q 548 125 585 189 q 449 24 511 61 q 311 -14 388 -14 m 44 1039 q 39 1044 36 1039 l 219 1257 q 228 1263 222 1263 l 388 1263 q 396 1257 393 1263 l 576 1044 q 571 1039 579 1039 l 408 1039 q 401 1044 403 1039 l 304 1165 l 206 1044 q 199 1039 204 1039 l 44 1039 z "},"ü":{"ha":639,"x_min":39,"x_max":585,"o":"m 311 -14 q 175 24 238 -14 q 76 126 113 63 q 39 267 39 190 l 42 961 q 47 967 42 967 l 203 967 q 208 961 208 967 l 208 267 q 238 187 208 219 q 311 154 268 154 q 385 187 356 154 q 415 267 415 219 l 415 961 q 421 967 415 967 l 576 967 q 582 961 582 967 l 585 267 q 548 125 585 189 q 449 24 511 61 q 311 -14 388 -14 m 375 1061 q 369 1067 369 1061 l 369 1224 q 375 1229 369 1229 l 532 1229 q 538 1224 538 1229 l 538 1067 q 532 1061 538 1061 l 375 1061 m 86 1061 q 81 1067 81 1061 l 81 1224 q 86 1229 81 1229 l 243 1229 q 249 1224 249 1229 l 249 1067 q 243 1061 249 1061 l 86 1061 z "},"ù":{"ha":639,"x_min":39,"x_max":585,"o":"m 311 -14 q 175 24 238 -14 q 76 126 113 63 q 39 267 39 190 l 42 961 q 47 967 42 967 l 203 967 q 208 961 208 967 l 208 267 q 238 187 208 219 q 311 154 268 154 q 385 187 356 154 q 415 267 415 219 l 415 961 q 421 967 415 967 l 576 967 q 582 961 582 967 l 585 267 q 548 125 585 189 q 449 24 511 61 q 311 -14 388 -14 m 244 1038 q 236 1043 239 1038 l 107 1283 q 113 1289 104 1289 l 271 1289 q 278 1283 276 1289 l 389 1043 q 383 1038 390 1038 l 244 1038 z "},"ű":{"ha":639,"x_min":39,"x_max":636,"o":"m 311 -14 q 175 24 238 -14 q 76 126 113 63 q 39 267 39 190 l 42 961 q 47 967 42 967 l 203 967 q 208 961 208 967 l 208 267 q 238 187 208 219 q 311 154 268 154 q 385 187 356 154 q 415 267 415 219 l 415 961 q 421 967 415 967 l 576 967 q 582 961 582 967 l 585 267 q 548 125 585 189 q 449 24 511 61 q 311 -14 388 -14 m 374 1038 q 368 1043 367 1038 l 463 1283 q 469 1289 464 1289 l 628 1289 q 633 1283 636 1289 l 521 1043 q 513 1038 518 1038 l 374 1038 m 74 1038 q 68 1043 67 1038 l 158 1283 q 165 1289 160 1289 l 324 1289 q 329 1283 332 1289 l 221 1043 q 213 1038 218 1038 l 74 1038 z "},"ū":{"ha":639,"x_min":39,"x_max":585,"o":"m 311 -14 q 175 24 238 -14 q 76 126 113 63 q 39 267 39 190 l 42 961 q 47 967 42 967 l 203 967 q 208 961 208 967 l 208 267 q 238 187 208 219 q 311 154 268 154 q 385 187 356 154 q 415 267 415 219 l 415 961 q 421 967 415 967 l 576 967 q 582 961 582 967 l 585 267 q 548 125 585 189 q 449 24 511 61 q 311 -14 388 -14 m 97 1072 q 92 1078 92 1072 l 92 1190 q 97 1196 92 1196 l 513 1196 q 518 1190 518 1196 l 518 1078 q 513 1072 518 1072 l 97 1072 z "},"ų":{"ha":639,"x_min":39,"x_max":585,"o":"m 311 -14 q 175 24 238 -14 q 76 126 113 63 q 39 267 39 190 l 42 961 q 47 967 42 967 l 203 967 q 208 961 208 967 l 208 267 q 238 187 208 219 q 311 154 268 154 q 385 187 356 154 q 415 267 415 219 l 415 961 q 421 967 415 967 l 576 967 q 582 961 582 967 l 585 267 q 548 125 585 189 q 449 24 511 61 q 311 -14 388 -14 m 372 -411 q 213 -381 274 -411 q 123 -299 151 -350 q 94 -187 94 -247 q 159 -41 94 -101 q 326 60 224 19 l 378 -1 q 266 -78 293 -44 q 239 -151 239 -111 q 272 -220 239 -194 q 371 -246 306 -246 q 376 -249 375 -246 q 378 -264 378 -253 l 379 -400 q 372 -411 379 -411 z "},"ů":{"ha":639,"x_min":39,"x_max":585,"o":"m 311 -14 q 175 24 238 -14 q 76 126 113 63 q 39 267 39 190 l 42 961 q 47 967 42 967 l 203 967 q 208 961 208 967 l 208 267 q 238 187 208 219 q 311 154 268 154 q 385 187 356 154 q 415 267 415 219 l 415 961 q 421 967 415 967 l 576 967 q 582 961 582 967 l 585 267 q 548 125 585 189 q 449 24 511 61 q 311 -14 388 -14 m 310 1029 q 219 1069 258 1029 q 181 1160 181 1108 q 219 1253 181 1214 q 310 1292 258 1292 q 399 1253 360 1292 q 438 1160 438 1214 q 398 1067 438 1104 q 310 1029 358 1029 m 308 1094 q 351 1114 333 1094 q 369 1160 369 1133 q 351 1207 369 1188 q 308 1226 333 1226 q 264 1207 282 1226 q 246 1160 246 1188 q 264 1114 246 1133 q 308 1094 282 1094 z "},"v":{"ha":601,"x_min":11,"x_max":576,"o":"m 211 0 q 204 7 206 0 l 13 961 q 18 967 11 967 l 175 967 q 182 961 181 967 l 296 325 l 407 961 q 414 967 408 967 l 569 967 q 575 961 576 967 l 386 7 q 379 0 385 0 l 211 0 z "},"w":{"ha":874,"x_min":11,"x_max":849,"o":"m 183 0 q 176 7 178 0 l 13 961 q 17 967 11 967 l 172 967 q 179 961 178 967 l 268 333 l 360 961 q 368 967 361 967 l 493 967 q 500 961 499 967 l 590 333 l 681 961 q 688 967 682 967 l 842 967 q 847 961 849 967 l 682 7 q 678 2 681 4 q 675 0 675 0 l 507 0 q 500 7 503 0 l 429 506 l 358 7 q 351 0 357 0 l 183 0 z "},"ẃ":{"ha":874,"x_min":11,"x_max":849,"o":"m 183 0 q 176 7 178 0 l 13 961 q 17 967 11 967 l 172 967 q 179 961 178 967 l 268 333 l 360 961 q 368 967 361 967 l 493 967 q 500 961 499 967 l 590 333 l 681 961 q 688 967 682 967 l 842 967 q 847 961 849 967 l 682 7 q 678 2 681 4 q 675 0 675 0 l 507 0 q 500 7 503 0 l 429 506 l 358 7 q 351 0 357 0 l 183 0 m 347 1038 q 342 1043 340 1038 l 453 1283 q 460 1289 454 1289 l 618 1289 q 624 1283 626 1289 l 494 1043 q 486 1038 492 1038 l 347 1038 z "},"ŵ":{"ha":874,"x_min":11,"x_max":849,"o":"m 183 0 q 176 7 178 0 l 13 961 q 17 967 11 967 l 172 967 q 179 961 178 967 l 268 333 l 360 961 q 368 967 361 967 l 493 967 q 500 961 499 967 l 590 333 l 681 961 q 688 967 682 967 l 842 967 q 847 961 849 967 l 682 7 q 678 2 681 4 q 675 0 675 0 l 507 0 q 500 7 503 0 l 429 506 l 358 7 q 351 0 357 0 l 183 0 m 167 1039 q 161 1044 158 1039 l 342 1257 q 350 1263 344 1263 l 510 1263 q 518 1257 515 1263 l 699 1044 q 693 1039 701 1039 l 531 1039 q 524 1044 525 1039 l 426 1165 l 328 1044 q 321 1039 326 1039 l 167 1039 z "},"ẅ":{"ha":874,"x_min":11,"x_max":849,"o":"m 183 0 q 176 7 178 0 l 13 961 q 17 967 11 967 l 172 967 q 179 961 178 967 l 268 333 l 360 961 q 368 967 361 967 l 493 967 q 500 961 499 967 l 590 333 l 681 961 q 688 967 682 967 l 842 967 q 847 961 849 967 l 682 7 q 678 2 681 4 q 675 0 675 0 l 507 0 q 500 7 503 0 l 429 506 l 358 7 q 351 0 357 0 l 183 0 m 497 1061 q 492 1067 492 1061 l 492 1224 q 497 1229 492 1229 l 654 1229 q 660 1224 660 1229 l 660 1067 q 654 1061 660 1061 l 497 1061 m 208 1061 q 203 1067 203 1061 l 203 1224 q 208 1229 203 1229 l 365 1229 q 371 1224 371 1229 l 371 1067 q 365 1061 371 1061 l 208 1061 z "},"ẁ":{"ha":874,"x_min":11,"x_max":849,"o":"m 183 0 q 176 7 178 0 l 13 961 q 17 967 11 967 l 172 967 q 179 961 178 967 l 268 333 l 360 961 q 368 967 361 967 l 493 967 q 500 961 499 967 l 590 333 l 681 961 q 688 967 682 967 l 842 967 q 847 961 849 967 l 682 7 q 678 2 681 4 q 675 0 675 0 l 507 0 q 500 7 503 0 l 429 506 l 358 7 q 351 0 357 0 l 183 0 m 367 1038 q 358 1043 361 1038 l 229 1283 q 235 1289 226 1289 l 393 1289 q 400 1283 399 1289 l 511 1043 q 506 1038 513 1038 l 367 1038 z "},"x":{"ha":561,"x_min":7,"x_max":538,"o":"m 13 0 q 8 7 7 0 l 167 503 l 11 961 q 15 967 10 967 l 171 967 q 179 961 178 967 l 272 631 l 367 961 q 375 967 368 967 l 529 967 q 533 961 535 967 l 378 504 l 535 7 q 531 0 538 0 l 375 0 q 367 7 369 0 l 272 365 l 176 7 q 168 0 175 0 l 13 0 z "},"y":{"ha":557,"x_min":-6,"x_max":538,"o":"m 185 0 q 181 6 181 0 l 182 400 l -4 961 q 0 967 -6 967 l 154 967 q 163 961 161 967 l 265 588 l 369 961 q 376 967 371 967 l 532 967 q 536 961 538 967 l 349 406 l 350 6 q 344 0 350 0 l 185 0 z "},"ý":{"ha":557,"x_min":-6,"x_max":538,"o":"m 185 0 q 181 6 181 0 l 182 400 l -4 961 q 0 967 -6 967 l 154 967 q 163 961 161 967 l 265 588 l 369 961 q 376 967 371 967 l 532 967 q 536 961 538 967 l 349 406 l 350 6 q 344 0 350 0 l 185 0 m 181 1038 q 175 1043 174 1038 l 286 1283 q 293 1289 288 1289 l 451 1289 q 457 1283 460 1289 l 328 1043 q 319 1038 325 1038 l 181 1038 z "},"ŷ":{"ha":557,"x_min":-8,"x_max":538,"o":"m 185 0 q 181 6 181 0 l 182 400 l -4 961 q 0 967 -6 967 l 154 967 q 163 961 161 967 l 265 588 l 369 961 q 376 967 371 967 l 532 967 q 536 961 538 967 l 349 406 l 350 6 q 344 0 350 0 l 185 0 m 0 1039 q -6 1044 -8 1039 l 175 1257 q 183 1263 178 1263 l 343 1263 q 351 1257 349 1263 l 532 1044 q 526 1039 535 1039 l 364 1039 q 357 1044 358 1039 l 260 1165 l 161 1044 q 154 1039 160 1039 l 0 1039 z "},"ÿ":{"ha":557,"x_min":-6,"x_max":538,"o":"m 185 0 q 181 6 181 0 l 182 400 l -4 961 q 0 967 -6 967 l 154 967 q 163 961 161 967 l 265 588 l 369 961 q 376 967 371 967 l 532 967 q 536 961 538 967 l 349 406 l 350 6 q 344 0 350 0 l 185 0 m 331 1061 q 325 1067 325 1061 l 325 1224 q 331 1229 325 1229 l 488 1229 q 493 1224 493 1229 l 493 1067 q 488 1061 493 1061 l 331 1061 m 42 1061 q 36 1067 36 1061 l 36 1224 q 42 1229 36 1229 l 199 1229 q 204 1224 204 1229 l 204 1067 q 199 1061 204 1061 l 42 1061 z "},"ỳ":{"ha":557,"x_min":-6,"x_max":538,"o":"m 185 0 q 181 6 181 0 l 182 400 l -4 961 q 0 967 -6 967 l 154 967 q 163 961 161 967 l 265 588 l 369 961 q 376 967 371 967 l 532 967 q 536 961 538 967 l 349 406 l 350 6 q 344 0 350 0 l 185 0 m 200 1038 q 192 1043 194 1038 l 63 1283 q 68 1289 60 1289 l 226 1289 q 233 1283 232 1289 l 344 1043 q 339 1038 346 1038 l 200 1038 z "},"z":{"ha":575,"x_min":11,"x_max":543,"o":"m 18 0 q 11 7 11 0 l 13 158 l 353 808 l 31 808 q 25 814 25 808 l 25 960 q 31 967 25 967 l 533 967 q 540 960 540 967 l 540 810 l 201 163 l 536 163 q 542 156 542 163 l 543 7 q 536 0 543 0 l 18 0 z "},"ź":{"ha":575,"x_min":11,"x_max":543,"o":"m 18 0 q 11 7 11 0 l 13 158 l 353 808 l 31 808 q 25 814 25 808 l 25 960 q 31 967 25 967 l 533 967 q 540 960 540 967 l 540 810 l 201 163 l 536 163 q 542 156 542 163 l 543 7 q 536 0 543 0 l 18 0 m 197 1038 q 192 1043 190 1038 l 303 1283 q 310 1289 304 1289 l 468 1289 q 474 1283 476 1289 l 344 1043 q 336 1038 342 1038 l 197 1038 z "},"ž":{"ha":575,"x_min":8,"x_max":551,"o":"m 18 0 q 11 7 11 0 l 13 158 l 353 808 l 31 808 q 25 814 25 808 l 25 960 q 31 967 25 967 l 533 967 q 540 960 540 967 l 540 810 l 201 163 l 536 163 q 542 156 542 163 l 543 7 q 536 0 543 0 l 18 0 m 200 1042 q 192 1047 194 1042 l 11 1260 q 17 1265 8 1265 l 175 1265 q 182 1260 181 1265 l 279 1139 l 378 1260 q 385 1265 379 1265 l 543 1265 q 549 1260 551 1265 l 368 1047 q 360 1042 365 1042 l 200 1042 z "},"ż":{"ha":575,"x_min":11,"x_max":543,"o":"m 18 0 q 11 7 11 0 l 13 158 l 353 808 l 31 808 q 25 814 25 808 l 25 960 q 31 967 25 967 l 533 967 q 540 960 540 967 l 540 810 l 201 163 l 536 163 q 542 156 542 163 l 543 7 q 536 0 543 0 l 18 0 m 200 1061 q 194 1067 194 1061 l 194 1224 q 200 1229 194 1229 l 357 1229 q 363 1224 363 1229 l 363 1067 q 357 1061 363 1061 l 200 1061 z "},"ﬁ":{"ha":890,"x_min":56,"x_max":824,"o":"m 63 0 q 56 7 56 0 l 58 961 q 64 967 58 967 l 508 967 q 515 961 515 967 l 515 804 q 510 799 515 799 l 225 799 l 225 583 l 510 583 q 515 576 515 583 l 517 419 q 510 414 517 414 l 225 414 l 225 7 q 218 0 225 0 l 63 0 m 661 0 q 654 7 654 0 l 656 961 q 661 967 656 967 l 817 967 q 822 961 822 967 l 824 7 q 818 0 824 0 l 661 0 z "},"ﬂ":{"ha":1150,"x_min":56,"x_max":1115,"o":"m 63 0 q 56 7 56 0 l 58 961 q 64 967 58 967 l 508 967 q 515 961 515 967 l 515 804 q 510 799 515 799 l 225 799 l 225 583 l 510 583 q 515 576 515 583 l 517 419 q 510 414 517 414 l 225 414 l 225 7 q 218 0 225 0 l 63 0 m 660 0 q 654 7 654 0 l 656 960 q 663 967 656 967 l 817 967 q 824 960 824 967 l 822 171 l 1108 171 q 1115 164 1115 171 l 1115 7 q 1108 0 1115 0 l 660 0 z "},"ª":{"ha":593,"x_min":8,"x_max":563,"o":"m 8 315 l 181 963 q 188 967 183 967 l 389 967 q 396 963 394 967 l 561 315 q 556 310 563 310 l 401 310 q 394 315 396 310 l 379 383 l 190 383 l 175 315 q 168 310 174 310 l 14 310 q 8 315 8 310 m 218 485 l 351 485 l 294 750 l 286 785 l 281 750 l 218 485 z "},"º":{"ha":635,"x_min":39,"x_max":585,"o":"m 313 292 q 176 330 238 292 q 76 431 114 368 q 39 571 39 494 l 40 706 q 77 844 40 782 q 176 944 114 907 q 313 982 239 982 q 449 944 388 982 q 547 844 510 907 q 583 706 583 782 l 585 571 q 548 431 585 494 q 449 330 511 368 q 313 292 388 292 m 313 460 q 385 494 354 460 q 417 571 417 528 l 415 706 q 386 783 415 751 q 313 815 357 815 q 239 784 269 815 q 208 706 208 753 l 208 571 q 239 492 208 525 q 313 460 269 460 z "},"Δ":{"ha":833,"x_min":68,"x_max":746,"o":"m 78 0 q 68 6 68 0 l 68 125 q 72 146 68 138 l 331 672 q 340 681 335 681 l 468 681 q 481 672 479 681 l 742 146 q 746 124 746 136 l 746 6 q 743 2 746 4 q 740 0 740 0 l 78 0 m 211 132 l 597 132 l 403 521 l 211 132 z "},"π":{"ha":767,"x_min":60,"x_max":664,"o":"m 167 0 q 161 6 161 0 l 161 482 l 68 482 q 60 489 60 482 l 60 599 q 68 607 60 607 l 657 607 q 664 599 664 607 l 664 489 q 657 482 664 482 l 561 482 l 561 217 q 650 104 561 108 q 658 96 658 104 l 658 6 q 653 0 658 0 q 495 58 544 0 q 446 217 446 115 l 446 482 l 276 482 l 276 6 q 271 0 276 0 l 167 0 z "},"¹":{"ha":267,"x_min":69,"x_max":186,"o":"m 74 617 q 69 621 69 617 l 71 1165 q 74 1168 71 1168 l 182 1168 q 185 1165 185 1168 l 186 621 q 183 617 186 617 l 74 617 z "},"²":{"ha":394,"x_min":17,"x_max":363,"o":"m 25 619 q 21 624 21 619 l 21 717 q 24 719 21 719 l 233 975 q 245 995 239 982 q 251 1022 251 1008 q 237 1055 251 1036 q 190 1074 222 1074 q 145 1056 164 1074 q 126 1018 126 1039 l 126 979 q 121 975 126 975 l 19 975 q 17 979 17 975 l 17 1018 q 40 1097 17 1061 q 103 1156 64 1133 q 190 1178 143 1178 q 278 1156 239 1178 q 340 1097 317 1133 q 363 1018 363 1060 q 351 962 363 992 q 319 910 339 932 l 167 726 l 356 726 q 358 724 358 726 l 358 624 q 356 619 358 619 l 25 619 z "},"³":{"ha":399,"x_min":24,"x_max":354,"o":"m 188 601 q 101 625 139 601 q 44 685 64 649 q 24 758 24 722 l 24 801 q 24 802 24 801 q 26 803 25 803 l 135 803 l 136 801 l 136 761 q 151 723 136 739 q 188 707 167 707 q 224 723 207 707 q 242 769 242 739 q 226 834 242 815 q 193 853 211 853 l 161 853 q 156 856 156 853 l 156 944 q 161 947 156 947 l 193 947 q 226 967 211 947 q 242 1013 242 988 q 224 1058 242 1043 q 188 1074 207 1074 q 151 1058 167 1074 q 136 1021 136 1042 l 136 981 l 135 979 l 26 979 q 24 980 25 979 q 24 981 24 981 l 24 1024 q 44 1097 24 1061 q 101 1157 64 1133 q 188 1181 139 1181 q 303 1133 257 1181 q 350 1015 350 1085 q 336 949 350 983 q 294 900 322 915 q 338 852 322 883 q 354 767 354 821 q 331 683 354 721 q 271 624 308 646 q 188 601 233 601 z "},"⁴":{"ha":432,"x_min":21,"x_max":397,"o":"m 221 619 q 217 624 217 619 l 217 711 l 24 711 q 21 714 21 711 l 21 806 l 215 1165 q 221 1168 217 1168 l 326 1168 q 329 1165 329 1168 l 329 808 l 392 808 q 397 806 397 808 l 397 714 q 392 711 397 711 l 329 711 l 329 624 q 326 619 329 619 l 221 619 m 124 808 l 217 808 l 217 985 l 124 808 z "},"⁄":{"ha":869,"x_min":89,"x_max":744,"o":"m 96 -14 q 90 -10 92 -14 q 90 -4 89 -7 l 617 979 q 621 982 617 982 l 736 982 q 742 978 740 982 q 742 972 744 975 l 213 -11 q 208 -14 213 -14 l 96 -14 z "},"½":{"ha":989,"x_min":94,"x_max":907,"o":"m 101 -14 q 96 -10 97 -14 q 96 -4 94 -7 l 622 979 q 626 982 622 982 l 742 982 q 748 978 746 982 q 747 972 750 975 l 218 -11 q 214 -14 218 -14 l 101 -14 m 108 415 q 104 419 104 415 l 106 964 q 108 967 106 967 l 217 967 q 219 964 219 967 l 221 419 q 218 415 221 415 l 108 415 m 569 3 q 565 7 565 3 l 565 100 q 568 103 565 103 l 778 358 q 790 378 783 365 q 796 406 796 392 q 781 438 796 419 q 735 457 767 457 q 690 440 708 457 q 671 401 671 422 l 671 363 q 665 358 671 358 l 564 358 q 561 363 561 358 l 561 401 q 585 481 561 444 q 648 539 608 517 q 735 561 688 561 q 822 538 783 561 q 884 479 861 515 q 907 401 907 443 q 895 345 907 375 q 864 293 883 315 l 711 110 l 900 110 q 903 107 903 110 l 903 7 q 900 3 903 3 l 569 3 z "},"¼":{"ha":904,"x_min":94,"x_max":856,"o":"m 101 -14 q 96 -10 97 -14 q 96 -4 94 -7 l 622 979 q 626 982 622 982 l 742 982 q 748 978 746 982 q 747 972 750 975 l 218 -11 q 214 -14 218 -14 l 101 -14 m 115 439 q 111 443 111 439 l 113 979 q 115 982 113 982 l 224 982 q 226 979 226 982 l 228 443 q 225 439 228 439 l 115 439 m 679 0 q 675 4 675 0 l 675 92 l 482 92 q 479 94 479 92 l 479 186 l 674 546 q 679 549 675 549 l 785 549 q 788 546 788 549 l 788 189 l 850 189 q 856 186 856 189 l 856 94 q 850 92 856 92 l 788 92 l 788 4 q 785 0 788 0 l 679 0 m 582 189 l 675 189 l 675 365 l 582 189 z "},"¾":{"ha":1003,"x_min":46,"x_max":961,"o":"m 210 407 q 124 431 161 407 q 66 491 86 454 q 46 564 46 528 l 46 607 q 47 608 46 607 q 49 608 47 608 l 157 608 l 158 607 l 158 567 q 174 528 158 544 q 210 513 189 513 q 247 528 229 513 q 264 575 264 544 q 249 640 264 621 q 215 658 233 658 l 183 658 q 178 661 178 658 l 178 750 q 183 753 178 753 l 215 753 q 249 773 233 753 q 264 818 264 793 q 247 864 264 849 q 210 879 229 879 q 174 863 189 879 q 158 826 158 847 l 158 786 l 157 785 l 49 785 q 47 785 47 785 q 46 786 46 786 l 46 829 q 66 903 46 867 q 124 963 86 939 q 210 986 161 986 q 326 938 279 986 q 372 821 372 890 q 358 755 372 789 q 317 706 344 721 q 360 658 344 689 q 376 572 376 626 q 353 489 376 526 q 293 429 331 451 q 210 407 256 407 m 186 -14 q 181 -10 182 -14 q 181 -4 179 -7 l 707 979 q 711 982 707 982 l 831 982 q 837 978 835 982 q 836 972 839 975 l 307 -11 q 303 -14 307 -14 l 186 -14 m 785 0 q 781 4 781 0 l 781 92 l 588 92 q 585 94 585 92 l 585 186 l 779 546 q 785 549 781 549 l 890 549 q 893 546 893 549 l 893 189 l 956 189 q 961 186 961 189 l 961 94 q 956 92 961 92 l 893 92 l 893 4 q 890 0 893 0 l 785 0 m 688 189 l 781 189 l 781 365 l 688 189 z "},".":{"ha":282,"x_min":56,"x_max":224,"o":"m 61 0 q 56 6 56 0 l 56 163 q 61 168 56 168 l 218 168 q 224 163 224 168 l 224 6 q 218 0 224 0 l 61 0 z "},",":{"ha":282,"x_min":56,"x_max":224,"o":"m 56 -175 l 56 -89 q 115 -62 90 -89 q 139 0 139 -36 l 61 0 q 56 6 56 0 l 56 161 q 61 167 56 167 l 218 167 q 224 161 224 167 l 224 0 q 200 -89 224 -49 q 138 -152 176 -129 q 56 -175 100 -175 z "},":":{"ha":282,"x_min":56,"x_max":224,"o":"m 61 413 q 56 418 56 413 l 56 575 q 61 581 56 581 l 218 581 q 224 575 224 581 l 224 418 q 218 413 224 413 l 61 413 m 61 0 q 56 6 56 0 l 56 163 q 61 168 56 168 l 218 168 q 224 163 224 168 l 224 6 q 218 0 224 0 l 61 0 z "},";":{"ha":282,"x_min":56,"x_max":224,"o":"m 61 413 q 56 418 56 413 l 56 575 q 61 581 56 581 l 218 581 q 224 575 224 581 l 224 418 q 218 413 224 413 l 61 413 m 56 -175 l 56 -89 q 115 -62 90 -89 q 139 0 139 -36 l 61 0 q 56 6 56 0 l 56 161 q 61 167 56 167 l 218 167 q 224 161 224 167 l 224 0 q 200 -89 224 -49 q 138 -152 176 -129 q 56 -175 100 -175 z "},"…":{"ha":838,"x_min":56,"x_max":779,"o":"m 61 0 q 56 6 56 0 l 56 163 q 61 168 56 168 l 218 168 q 224 163 224 168 l 224 6 q 218 0 224 0 l 61 0 m 336 0 q 331 6 331 0 l 331 163 q 336 168 331 168 l 493 168 q 499 163 499 168 l 499 6 q 493 0 499 0 l 336 0 m 617 0 q 611 6 611 0 l 611 163 q 617 168 611 168 l 774 168 q 779 163 779 168 l 779 6 q 774 0 779 0 l 617 0 z "},"!":{"ha":282,"x_min":56,"x_max":224,"o":"m 92 256 q 85 263 86 256 l 56 582 l 56 960 q 61 967 56 967 l 217 967 q 224 960 224 967 l 222 582 l 193 263 q 186 256 192 256 l 92 256 m 61 0 q 56 7 56 0 l 56 158 q 61 164 56 164 l 217 164 q 222 158 222 164 l 222 7 q 217 0 222 0 l 61 0 z "},"¡":{"ha":281,"x_min":56,"x_max":222,"o":"m 61 803 q 56 808 56 803 l 56 960 q 61 967 56 967 l 217 967 q 222 960 222 967 l 222 808 q 217 803 222 803 l 61 803 m 63 0 q 56 7 56 0 l 57 385 l 85 704 q 92 711 86 711 l 186 711 q 193 704 192 711 l 222 385 l 222 7 q 217 0 222 0 l 63 0 z "},"?":{"ha":604,"x_min":19,"x_max":563,"o":"m 214 256 q 207 261 207 256 l 207 336 q 233 448 207 392 q 303 549 258 504 q 364 613 344 590 q 389 656 383 636 q 394 701 394 675 q 365 783 394 750 q 292 815 336 815 q 217 783 247 815 q 188 701 188 750 l 188 600 q 182 594 188 594 l 25 594 q 19 600 19 594 l 19 701 q 56 843 19 779 q 155 944 93 907 q 292 982 217 982 q 428 944 367 982 q 526 843 490 907 q 563 701 563 779 q 553 620 563 656 q 517 547 543 585 q 439 451 490 508 q 390 389 404 417 q 375 328 375 361 l 375 261 q 368 256 375 256 l 214 256 m 214 0 q 207 7 207 0 l 207 161 q 214 167 207 167 l 368 167 q 375 161 375 167 l 375 7 q 368 0 375 0 l 214 0 z "},"¿":{"ha":604,"x_min":19,"x_max":563,"o":"m 214 801 q 207 807 207 801 l 207 961 q 214 968 207 968 l 368 968 q 375 961 375 968 l 375 807 q 368 801 375 801 l 214 801 m 290 -14 q 154 24 215 -14 q 56 125 93 61 q 19 267 19 189 q 29 349 19 314 q 66 422 39 383 q 143 517 93 461 q 193 580 179 553 q 207 640 207 607 l 207 707 q 214 713 207 713 l 368 713 q 375 707 375 713 l 375 632 q 349 520 375 576 q 279 419 324 464 q 219 356 239 379 q 193 313 199 332 q 188 267 188 294 q 217 186 188 218 q 290 154 247 154 q 365 186 335 154 q 394 267 394 218 l 394 368 q 400 374 394 374 l 557 374 q 563 368 563 374 l 563 267 q 526 125 563 189 q 428 24 489 61 q 290 -14 367 -14 z "},"·":{"ha":282,"x_min":56,"x_max":224,"o":"m 61 413 q 56 418 56 413 l 56 575 q 61 581 56 581 l 218 581 q 224 575 224 581 l 224 418 q 218 413 224 413 l 61 413 z "},"•":{"ha":296,"x_min":31,"x_max":240,"o":"m 136 400 q 62 433 93 400 q 31 510 31 467 q 62 589 31 556 q 136 622 93 622 q 210 589 179 622 q 240 510 240 556 q 209 432 240 464 q 136 400 178 400 z "},"*":{"ha":489,"x_min":38,"x_max":425,"o":"m 181 549 l 186 669 l 99 601 l 39 682 l 154 753 l 38 825 l 99 906 l 188 838 l 181 965 l 283 965 l 275 838 l 365 903 l 425 822 l 310 754 l 425 685 l 364 604 l 276 671 l 282 549 l 181 549 z "},"#":{"ha":658,"x_min":29,"x_max":619,"o":"m 139 275 q 132 282 132 275 l 132 418 l 38 418 q 29 425 29 418 l 29 535 q 31 540 29 536 q 38 543 33 543 l 132 543 l 132 697 l 38 697 q 29 706 29 697 l 29 818 q 38 825 29 825 l 132 825 l 132 961 q 136 967 132 967 l 258 967 q 261 961 261 967 l 261 825 l 389 825 l 389 961 q 394 967 389 967 l 517 967 q 519 964 519 967 l 519 825 l 613 825 q 619 819 619 825 l 619 706 q 613 697 619 697 l 519 697 l 519 543 l 613 543 q 619 535 619 543 l 619 425 q 613 418 619 418 l 519 418 l 519 282 q 517 275 519 275 l 396 275 q 389 282 389 275 l 389 418 l 261 418 l 261 282 q 256 275 261 275 l 139 275 m 261 543 l 389 543 l 389 697 l 261 697 l 261 543 z "},"/":{"ha":415,"x_min":42,"x_max":374,"o":"m 49 0 q 43 7 42 0 l 215 961 q 222 967 217 967 l 367 967 q 372 961 374 967 l 197 7 q 190 0 196 0 l 49 0 z "},"\\":{"ha":418,"x_min":42,"x_max":376,"o":"m 224 0 q 217 7 218 0 l 43 961 q 49 967 42 967 l 193 967 q 200 961 199 967 l 375 7 q 369 0 376 0 l 224 0 z "},"(":{"ha":453,"x_min":51,"x_max":400,"o":"m 390 -14 l 315 -14 q 183 27 243 -11 q 88 128 124 65 q 51 265 51 190 l 53 706 q 88 841 53 779 q 183 941 124 903 q 315 982 243 979 l 317 982 l 393 982 q 400 976 400 982 l 400 819 q 393 814 400 814 l 314 814 q 246 782 274 814 q 218 706 218 750 l 218 265 q 247 190 218 222 q 314 154 275 158 l 389 154 q 396 149 396 154 l 397 -8 q 390 -14 397 -14 z "},")":{"ha":453,"x_min":53,"x_max":401,"o":"m 63 -14 q 56 -8 56 -14 l 56 149 q 63 154 56 154 l 136 154 q 206 190 178 158 q 235 265 235 222 l 235 706 q 207 782 235 750 q 136 814 179 814 l 60 814 q 53 819 53 814 l 53 976 q 60 982 53 982 l 136 982 l 138 982 q 269 941 210 979 q 365 841 329 903 q 400 706 400 779 l 401 265 q 365 128 401 190 q 269 27 329 65 q 136 -14 210 -11 l 63 -14 z "},"{":{"ha":564,"x_min":10,"x_max":511,"o":"m 157 0 q 151 6 151 0 l 151 413 l 17 413 q 10 418 10 413 l 10 569 q 17 575 10 575 l 151 575 l 151 961 q 157 967 151 967 l 504 967 q 511 961 511 967 l 511 810 q 504 804 511 804 l 313 804 l 313 163 l 504 163 q 511 157 511 163 l 511 6 q 504 0 511 0 l 157 0 z "},"}":{"ha":564,"x_min":53,"x_max":554,"o":"m 60 0 q 53 6 53 0 l 53 157 q 60 163 53 163 l 251 163 l 251 804 l 60 804 q 53 810 53 804 l 53 961 q 60 967 53 967 l 407 967 q 413 961 413 967 l 413 575 l 547 575 q 554 569 554 575 l 554 418 q 547 413 554 413 l 413 413 l 413 6 q 407 0 413 0 l 60 0 z "},"[":{"ha":464,"x_min":51,"x_max":411,"o":"m 57 0 q 51 6 51 0 l 51 961 q 57 967 51 967 l 404 967 q 411 961 411 967 l 411 810 q 404 804 411 804 l 213 804 l 213 163 l 404 163 q 411 157 411 163 l 411 6 q 404 0 411 0 l 57 0 z "},"]":{"ha":464,"x_min":53,"x_max":413,"o":"m 60 0 q 53 6 53 0 l 53 157 q 60 163 53 163 l 251 163 l 251 804 l 60 804 q 53 810 53 804 l 53 961 q 60 967 53 967 l 407 967 q 413 961 413 967 l 413 6 q 407 0 413 0 l 60 0 z "},"-":{"ha":421,"x_min":60,"x_max":342,"o":"m 67 401 q 60 407 60 401 l 60 558 q 67 564 60 564 l 335 564 q 342 558 342 564 l 342 407 q 335 401 342 401 l 67 401 z "},"­":{"ha":421,"x_min":60,"x_max":342,"o":"m 67 401 q 60 407 60 401 l 60 558 q 67 564 60 564 l 335 564 q 342 558 342 564 l 342 407 q 335 401 342 401 l 67 401 z "},"–":{"ha":792,"x_min":60,"x_max":713,"o":"m 76 401 q 60 407 60 401 l 60 558 q 76 564 60 564 l 696 564 q 713 558 713 564 l 713 407 q 696 401 713 401 l 76 401 z "},"—":{"ha":1250,"x_min":60,"x_max":1171,"o":"m 86 401 q 60 407 60 401 l 60 558 q 86 564 60 564 l 1144 564 q 1171 558 1171 564 l 1171 407 q 1144 401 1171 401 l 86 401 z "},"_":{"ha":760,"x_min":56,"x_max":701,"o":"m 61 -146 q 56 -140 56 -146 l 56 1 q 61 7 56 7 l 696 7 q 701 1 701 7 l 701 -140 q 696 -146 701 -146 l 61 -146 z "},"‚":{"ha":282,"x_min":56,"x_max":224,"o":"m 56 -175 l 56 -89 q 115 -62 90 -89 q 139 0 139 -36 l 61 0 q 56 6 56 0 l 56 161 q 61 167 56 167 l 218 167 q 224 161 224 167 l 224 0 q 200 -89 224 -49 q 138 -152 176 -129 q 56 -175 100 -175 z "},"„":{"ha":546,"x_min":61,"x_max":488,"o":"m 319 -174 l 319 -87 q 378 -61 354 -87 q 403 1 403 -35 l 325 1 q 319 7 319 1 l 319 163 q 325 168 319 168 l 482 168 q 488 163 488 168 l 488 1 q 464 -87 488 -47 q 402 -151 440 -128 q 319 -174 364 -174 m 61 -174 l 61 -87 q 120 -61 96 -87 q 144 1 144 -35 l 67 1 q 61 7 61 1 l 61 163 q 67 168 61 168 l 224 168 q 229 163 229 168 l 229 1 q 206 -87 229 -47 q 144 -151 182 -128 q 61 -174 106 -174 z "},"“":{"ha":546,"x_min":56,"x_max":482,"o":"m 319 640 q 314 646 314 640 l 314 807 q 338 897 314 857 q 399 959 361 936 q 482 982 438 982 l 482 896 q 423 869 447 896 q 399 807 399 843 l 476 807 q 482 801 482 807 l 482 646 q 476 640 482 640 l 319 640 m 61 640 q 56 646 56 640 l 56 807 q 79 897 56 857 q 141 959 103 936 q 224 982 179 982 l 224 896 q 165 869 189 896 q 140 807 140 843 l 218 807 q 224 801 224 807 l 224 646 q 218 640 224 640 l 61 640 z "},"”":{"ha":546,"x_min":61,"x_max":488,"o":"m 319 640 l 319 726 q 378 753 354 726 q 403 815 403 779 l 325 815 q 319 821 319 815 l 319 976 q 325 982 319 982 l 482 982 q 488 976 488 982 l 488 815 q 464 726 488 767 q 402 663 440 686 q 319 640 364 640 m 61 640 l 61 726 q 120 753 96 726 q 144 815 144 779 l 67 815 q 61 821 61 815 l 61 976 q 67 982 61 982 l 224 982 q 229 976 229 982 l 229 815 q 206 726 229 767 q 144 663 182 686 q 61 640 106 640 z "},"‘":{"ha":282,"x_min":56,"x_max":224,"o":"m 61 640 q 56 646 56 640 l 56 807 q 79 897 56 857 q 141 959 103 936 q 224 982 179 982 l 224 896 q 165 869 189 896 q 140 807 140 843 l 218 807 q 224 801 224 807 l 224 646 q 218 640 224 640 l 61 640 z "},"’":{"ha":282,"x_min":56,"x_max":224,"o":"m 56 640 l 56 726 q 115 753 90 726 q 139 815 139 779 l 61 815 q 56 821 56 815 l 56 976 q 61 982 56 982 l 218 982 q 224 976 224 982 l 224 815 q 200 726 224 767 q 138 663 176 686 q 56 640 100 640 z "},"«":{"ha":843,"x_min":33,"x_max":792,"o":"m 679 144 l 392 444 q 382 467 383 451 q 392 493 381 482 l 686 794 q 696 793 692 800 l 788 689 q 788 678 792 682 l 564 471 l 785 256 q 783 244 790 251 l 689 146 q 679 144 683 140 m 332 144 l 44 444 q 35 467 36 451 q 44 493 33 482 l 339 794 q 349 793 344 800 l 440 689 q 440 678 444 682 l 217 471 l 438 256 q 436 244 443 251 l 342 146 q 332 144 336 140 z "},"»":{"ha":843,"x_min":51,"x_max":810,"o":"m 504 144 q 494 146 499 139 l 403 250 q 403 261 399 257 l 626 468 l 406 683 q 407 694 400 688 l 501 793 q 511 794 507 799 l 799 494 q 808 472 807 488 q 799 446 810 457 l 504 144 m 157 144 q 147 146 151 139 l 56 250 q 56 261 51 257 l 279 468 l 58 683 q 60 694 53 688 l 154 793 q 164 794 160 799 l 451 494 q 461 472 460 488 q 451 446 463 457 l 157 144 z "},"‹":{"ha":506,"x_min":18,"x_max":429,"o":"m 317 144 l 29 444 q 19 467 21 451 q 29 493 18 482 l 324 794 q 333 793 329 800 l 425 689 q 425 678 429 682 l 201 471 l 422 256 q 421 244 428 251 l 326 146 q 317 144 321 140 z "},"›":{"ha":496,"x_min":51,"x_max":463,"o":"m 157 144 q 147 146 151 139 l 56 250 q 56 261 51 257 l 279 468 l 58 683 q 60 694 53 688 l 154 793 q 164 794 160 799 l 451 494 q 461 472 460 488 q 451 446 463 457 l 157 144 z "},"\"":{"ha":543,"x_min":60,"x_max":482,"o":"m 65 640 q 60 647 60 640 l 82 961 q 89 967 83 967 l 226 967 q 232 961 233 967 l 206 644 q 201 640 206 640 l 65 640 m 314 640 q 308 647 308 640 l 331 961 q 338 967 332 967 l 475 967 q 481 961 482 967 l 454 644 q 450 640 454 640 l 314 640 z "},"'":{"ha":294,"x_min":60,"x_max":233,"o":"m 65 640 q 60 647 60 640 l 82 961 q 89 967 83 967 l 226 967 q 232 961 233 967 l 206 644 q 201 640 206 640 l 65 640 z "}," ":{"ha":206,"x_min":0,"x_max":0,"o":""}," ":{"ha":206,"x_min":0,"x_max":0,"o":""},"\r":{"ha":833,"x_min":0,"x_max":0,"o":""},"¢":{"ha":539,"x_min":39,"x_max":481,"o":"m 206 0 q 200 6 200 0 l 200 86 q 85 166 131 106 q 39 307 39 226 l 39 664 q 83 801 39 740 q 197 882 128 861 l 197 961 q 203 967 197 967 l 324 967 q 331 961 331 967 l 331 879 q 439 797 397 856 q 481 664 481 739 l 481 613 q 475 607 481 607 l 349 607 q 344 613 344 607 l 344 664 q 320 728 344 701 q 260 756 296 756 q 198 728 219 756 q 176 664 176 700 l 176 307 q 201 240 176 267 q 260 214 225 214 q 320 242 296 214 q 344 307 344 271 l 344 360 q 349 364 344 364 l 476 364 q 481 360 481 364 l 481 307 q 440 172 481 231 q 333 90 399 114 l 333 6 q 326 0 333 0 l 206 0 z "},"$":{"ha":521,"x_min":26,"x_max":475,"o":"m 193 0 q 188 6 188 0 l 188 86 q 73 167 118 107 q 28 304 28 228 l 28 357 q 33 363 28 363 l 160 363 q 164 357 164 363 l 164 304 q 190 241 164 268 q 250 214 215 214 q 310 241 286 214 q 335 301 335 268 q 281 375 335 344 q 224 407 263 386 q 151 446 185 428 q 56 539 86 482 q 26 667 26 596 q 72 802 26 744 q 185 881 117 860 l 185 961 q 190 967 185 967 l 311 967 q 318 961 318 967 l 318 879 q 428 800 385 858 q 472 667 472 742 l 472 574 q 468 569 472 569 l 340 569 q 336 574 336 569 l 335 667 q 309 731 335 707 q 250 756 283 756 q 191 729 215 756 q 167 667 167 703 q 182 608 167 632 q 238 560 197 583 l 353 496 q 442 419 410 465 q 475 304 475 374 q 432 167 475 225 q 321 88 389 110 l 321 6 q 314 0 321 0 l 193 0 z "},"€":{"ha":650,"x_min":21,"x_max":607,"o":"m 396 -10 q 230 27 300 -10 q 122 125 160 64 q 83 261 83 186 l 83 286 l 28 286 q 22 292 22 286 l 22 419 q 29 426 22 426 l 83 426 l 85 518 l 26 518 q 21 525 21 518 l 21 653 q 28 658 21 658 l 85 658 l 85 694 q 122 822 85 760 q 229 926 160 885 q 393 967 299 967 q 505 960 456 967 q 592 944 554 954 q 596 935 596 943 l 596 801 q 589 797 596 794 q 504 813 554 806 q 393 821 454 821 q 279 781 319 821 q 239 694 239 742 l 239 658 l 439 658 q 444 653 444 658 l 444 525 q 439 518 444 518 l 239 518 l 239 426 l 440 426 q 446 419 446 426 l 446 292 q 440 286 446 286 l 239 286 l 239 261 q 280 176 239 215 q 397 136 321 136 q 503 147 457 136 q 600 174 549 157 q 607 169 607 176 l 607 39 q 603 33 607 36 q 396 -10 517 -10 z "},"ƒ":{"ha":590,"x_min":-97,"x_max":589,"o":"m -89 -275 q -97 -267 -97 -275 l -97 -111 q -89 -103 -97 -103 q 13 -88 -31 -103 q 86 -35 57 -74 q 130 73 115 3 q 144 256 144 143 l 144 403 l 36 403 q 31 410 31 403 l 31 538 q 38 543 31 543 l 144 543 l 144 696 q 180 837 144 776 q 275 932 215 897 q 406 967 335 967 q 586 897 508 967 q 586 888 589 893 l 522 783 q 513 782 519 778 q 462 809 486 800 q 404 818 438 818 q 329 781 361 818 q 297 696 297 744 l 297 543 l 492 543 q 497 538 497 543 l 497 410 q 492 403 497 403 l 296 403 l 296 258 q 267 1 296 104 q 187 -162 239 -101 q 65 -249 135 -224 q -89 -275 -6 -275 z "},"£":{"ha":672,"x_min":31,"x_max":608,"o":"m 71 0 q 63 8 63 0 l 63 164 q 141 298 122 240 q 156 403 160 356 l 36 403 q 31 410 31 403 l 31 538 q 38 543 31 543 l 110 543 q 85 615 96 578 q 74 697 74 653 q 110 835 74 774 q 208 931 147 896 q 342 967 269 967 q 472 931 414 967 q 566 836 531 896 q 601 703 601 776 q 596 697 601 697 l 454 697 q 449 703 449 697 q 419 783 449 747 q 342 818 389 818 q 263 783 294 818 q 232 700 232 749 q 244 617 232 656 q 271 543 257 579 l 533 543 q 539 538 539 543 l 539 410 q 533 403 539 403 l 315 403 q 306 297 321 354 q 238 164 290 239 l 603 164 q 608 157 608 164 l 608 6 q 603 0 608 0 l 71 0 z "},"¥":{"ha":544,"x_min":-6,"x_max":538,"o":"m 42 158 q 36 164 36 158 l 36 292 q 43 299 36 299 l 182 299 l 182 390 l 40 390 q 35 397 35 390 l 35 525 q 42 531 35 531 l 139 531 l -4 961 q 0 967 -6 967 l 154 967 q 163 961 161 967 l 265 588 l 369 961 q 376 967 371 967 l 532 967 q 536 961 538 967 l 390 531 l 493 531 q 499 525 499 531 l 499 397 q 493 390 499 390 l 349 390 l 349 299 l 494 299 q 500 292 500 299 l 500 164 q 494 158 500 158 l 350 158 l 350 6 q 344 0 350 0 l 185 0 q 181 6 181 0 l 181 158 l 42 158 z "},"∕":{"ha":869,"x_min":89,"x_max":744,"o":"m 96 -14 q 90 -10 92 -14 q 90 -4 89 -7 l 617 979 q 621 982 617 982 l 736 982 q 742 978 740 982 q 742 972 744 975 l 213 -11 q 208 -14 213 -14 l 96 -14 z "},"+":{"ha":614,"x_min":32,"x_max":581,"o":"m 244 178 q 238 185 238 178 l 238 433 l 40 433 q 32 440 32 433 l 32 550 q 34 555 32 551 q 40 558 36 558 l 238 558 l 238 811 q 244 814 238 814 l 361 814 q 367 811 367 814 l 367 558 l 574 558 q 581 550 581 558 l 581 440 q 578 435 581 438 q 574 433 575 433 l 367 433 l 367 185 q 361 178 367 178 l 244 178 z "},"−":{"ha":593,"x_min":32,"x_max":560,"o":"m 40 433 q 32 440 32 433 l 32 550 q 40 558 32 558 l 553 558 q 560 550 560 558 l 560 440 q 553 433 560 433 l 40 433 z "},"×":{"ha":551,"x_min":35,"x_max":508,"o":"m 121 239 l 38 307 q 39 317 35 310 l 190 489 l 42 654 q 44 660 40 656 l 124 733 q 128 736 128 738 l 271 579 l 410 736 q 413 735 410 738 l 499 663 q 500 658 500 658 l 353 489 l 504 322 q 508 317 508 318 q 506 314 507 315 l 426 240 q 424 237 425 239 q 418 240 422 235 l 271 401 l 129 240 q 125 236 126 235 q 121 239 124 238 z "},"÷":{"ha":614,"x_min":32,"x_max":581,"o":"m 244 668 q 238 674 238 668 l 238 808 q 243 814 238 814 l 361 814 q 367 808 367 814 l 367 674 q 360 668 367 668 l 244 668 m 40 433 q 32 440 32 433 l 32 550 q 40 558 32 558 l 574 558 q 581 550 581 558 l 581 440 q 574 433 581 433 l 40 433 m 244 178 q 238 185 238 178 l 238 318 q 243 324 238 324 l 361 324 q 367 318 367 324 l 367 185 q 360 178 367 178 l 244 178 z "},"=":{"ha":615,"x_min":32,"x_max":582,"o":"m 40 550 q 32 557 32 550 l 32 667 q 40 675 32 675 l 574 675 q 581 667 581 675 l 581 557 q 574 550 581 550 l 40 550 m 42 314 q 33 321 33 314 l 33 431 q 42 439 33 439 l 575 439 q 582 431 582 439 l 582 321 q 575 314 582 314 l 42 314 z "},"≠":{"ha":615,"x_min":32,"x_max":582,"o":"m 250 175 l 149 213 q 145 215 147 213 q 144 222 143 217 l 178 314 l 42 314 q 33 321 33 314 l 33 431 q 42 439 33 439 l 222 439 l 261 550 l 40 550 q 32 557 32 550 l 32 667 q 40 675 32 675 l 307 675 l 360 824 q 365 824 360 825 l 465 786 q 471 782 471 785 l 433 675 l 574 675 q 581 667 581 675 l 581 557 q 574 550 581 550 l 389 550 l 349 439 l 575 439 q 582 431 582 439 l 582 321 q 575 314 582 314 l 304 314 l 257 181 q 255 174 256 175 q 250 175 254 174 z "},">":{"ha":592,"x_min":51,"x_max":531,"o":"m 135 167 q 125 168 131 163 l 56 253 q 56 264 51 260 l 343 497 l 65 722 q 67 733 63 725 l 135 818 q 144 819 140 824 l 519 521 q 531 499 531 513 q 519 474 531 485 l 135 167 z "},"<":{"ha":592,"x_min":31,"x_max":510,"o":"m 426 167 l 42 474 q 31 499 31 485 q 42 521 31 513 l 417 819 q 426 818 421 824 l 494 733 q 496 722 499 725 l 218 497 l 506 264 q 506 253 510 260 l 436 168 q 426 167 431 163 z "},"≥":{"ha":614,"x_min":54,"x_max":553,"o":"m 157 208 q 147 210 153 204 l 78 294 q 78 306 74 301 l 365 539 l 88 764 q 89 775 85 767 l 158 860 q 168 861 164 865 l 542 563 q 553 540 553 554 q 542 515 553 526 l 157 208 m 63 0 q 54 6 54 0 l 54 104 q 56 108 54 106 q 63 111 58 111 l 540 111 q 546 104 546 111 l 546 6 q 543 2 546 4 q 540 0 540 0 l 63 0 z "},"≤":{"ha":615,"x_min":54,"x_max":546,"o":"m 454 208 l 69 515 q 58 540 58 526 q 69 563 58 554 l 443 861 q 453 860 447 865 l 522 775 q 524 764 526 767 l 246 539 l 533 306 q 533 294 538 301 l 464 210 q 454 208 458 204 m 63 0 q 54 6 54 0 l 54 104 q 56 108 54 106 q 63 111 58 111 l 540 111 q 546 104 546 111 l 546 6 q 543 2 546 4 q 540 0 540 0 l 63 0 z "},"±":{"ha":557,"x_min":32,"x_max":524,"o":"m 222 344 q 217 350 217 344 l 217 546 l 40 546 q 32 551 32 546 l 32 650 q 34 654 32 651 q 40 657 36 657 l 217 657 l 217 856 q 222 858 217 858 l 326 858 q 332 856 332 858 l 332 657 l 518 657 q 524 650 524 657 l 524 551 q 521 548 524 550 q 518 546 518 546 l 332 546 l 332 350 q 326 344 332 344 l 222 344 m 40 128 q 32 133 32 128 l 32 232 q 34 236 32 233 q 40 239 36 239 l 518 239 q 524 232 524 239 l 524 133 q 521 130 524 132 q 518 128 518 128 l 40 128 z "},"≈":{"ha":696,"x_min":42,"x_max":647,"o":"m 476 511 q 394 528 438 511 q 307 563 351 546 q 218 581 263 581 q 140 569 174 581 q 78 538 107 557 q 72 539 75 536 q 71 544 69 542 l 100 653 q 107 661 101 657 q 238 704 172 704 q 325 688 282 704 q 408 654 368 671 q 483 638 449 638 q 561 647 526 638 q 638 688 596 657 q 644 687 642 690 q 646 679 647 683 l 607 554 q 599 547 606 550 q 547 522 572 533 q 476 511 521 511 m 449 288 q 367 305 410 288 q 279 340 324 322 q 190 357 235 357 q 113 345 146 357 q 50 314 79 333 q 44 315 47 313 q 43 321 42 318 l 72 429 q 79 438 74 433 q 210 481 144 481 q 297 464 254 481 q 381 431 340 447 q 456 414 421 414 q 533 424 499 414 q 610 464 568 433 q 617 463 614 467 q 618 456 619 460 l 579 331 q 571 324 578 326 q 519 299 544 310 q 449 288 493 288 z "},"~":{"ha":660,"x_min":53,"x_max":583,"o":"m 424 424 q 352 438 385 424 q 293 467 319 453 q 243 482 267 482 q 203 469 217 482 q 189 436 189 456 q 183 431 189 431 l 58 431 q 53 436 53 431 q 74 510 53 472 q 135 575 96 549 q 231 601 175 601 q 301 588 271 601 q 356 560 332 574 q 399 547 381 547 q 433 560 418 547 q 447 599 447 572 q 453 604 447 604 l 578 604 q 583 599 583 604 q 560 503 583 542 q 501 444 538 464 q 424 424 464 424 z "},"¬":{"ha":614,"x_min":32,"x_max":581,"o":"m 471 286 q 465 292 465 286 l 465 492 l 40 492 q 32 499 32 492 l 32 608 q 40 617 32 617 l 574 617 q 581 608 581 617 l 581 292 q 575 286 581 286 l 471 286 z "},"^":{"ha":511,"x_min":26,"x_max":467,"o":"m 128 581 l 26 654 l 215 950 q 248 961 226 961 q 278 950 269 961 l 467 656 l 365 581 l 246 774 l 128 581 z "},"∞":{"ha":954,"x_min":39,"x_max":904,"o":"m 244 207 q 39 457 39 207 q 95 642 39 572 q 244 713 151 713 q 362 677 311 713 q 474 549 413 642 q 563 647 525 611 q 633 698 601 683 q 699 713 665 713 q 904 463 904 713 q 848 278 904 349 q 699 207 792 207 q 581 242 632 207 q 469 369 531 278 q 381 272 418 307 q 310 222 343 236 q 244 207 278 207 m 244 321 q 283 332 265 321 q 331 374 301 343 q 411 467 360 406 q 344 551 371 522 q 296 590 318 579 q 246 600 274 600 q 182 560 207 600 q 157 458 157 521 q 180 358 157 394 q 244 321 203 321 m 697 319 q 762 359 738 319 q 786 461 786 399 q 763 563 786 526 q 699 599 740 599 q 660 588 678 599 q 613 545 642 576 q 533 451 585 514 q 599 369 572 397 q 647 330 625 340 q 697 319 669 319 z "},"∏":{"ha":756,"x_min":58,"x_max":663,"o":"m 144 -71 q 139 -65 139 -71 l 139 843 l 67 843 q 58 850 58 843 l 58 960 q 67 968 58 968 l 656 968 q 663 960 663 968 l 663 850 q 656 843 663 843 l 581 843 l 581 -65 q 575 -71 581 -71 l 464 -71 q 458 -65 458 -71 l 458 843 l 260 843 l 260 -65 q 254 -71 260 -71 l 144 -71 z "},"√":{"ha":958,"x_min":1,"x_max":926,"o":"m 292 -7 l 1 317 l 94 404 l 257 232 l 567 1053 l 571 1051 l 919 1051 q 926 1043 926 1051 l 926 919 q 919 913 926 913 l 646 913 l 299 -4 q 292 -7 297 -10 z "},"%":{"ha":942,"x_min":22,"x_max":914,"o":"m 201 518 q 112 543 153 518 q 47 610 71 568 q 22 700 22 651 l 22 799 q 47 890 22 849 q 112 956 71 932 q 201 981 153 981 q 292 956 251 981 q 356 890 332 932 q 379 799 379 849 l 379 700 q 355 609 379 650 q 290 543 331 568 q 201 518 250 518 m 101 0 q 97 7 94 0 l 651 961 q 660 967 656 967 l 821 967 q 825 961 828 967 l 272 7 q 264 0 269 0 l 101 0 m 199 631 q 244 651 226 631 q 263 700 263 671 l 263 796 q 244 844 263 824 q 199 864 226 864 q 152 844 171 864 q 133 796 133 824 l 133 700 q 153 651 133 672 q 199 631 172 631 m 736 -14 q 647 11 688 -14 q 581 78 606 36 q 557 168 557 119 l 557 267 q 581 358 557 317 q 647 424 606 400 q 736 449 688 449 q 826 424 786 449 q 890 358 867 400 q 914 267 914 317 l 914 168 q 890 77 914 118 q 825 11 865 36 q 736 -14 785 -14 m 735 99 q 781 119 763 99 q 799 168 799 139 l 799 264 q 781 312 799 292 q 735 332 763 332 q 688 312 707 332 q 669 264 669 292 l 669 168 q 689 119 669 140 q 735 99 708 99 z "},"‰":{"ha":1413,"x_min":36,"x_max":1369,"o":"m 163 -14 q 157 -10 158 -14 q 157 -4 156 -7 l 683 979 q 688 982 685 982 l 803 982 q 809 978 807 982 q 808 972 811 975 l 279 -11 q 275 -14 278 -14 l 163 -14 m 206 403 q 126 424 165 403 q 62 483 88 446 q 36 565 36 519 l 36 821 q 60 901 36 864 q 124 960 85 938 q 206 982 163 982 q 291 960 253 982 q 352 903 329 939 q 375 821 375 867 l 375 565 q 352 483 375 519 q 291 424 329 446 q 206 403 253 403 m 271 692 l 271 821 q 253 866 271 847 q 206 885 236 885 q 156 865 172 885 q 139 821 139 846 l 139 804 l 271 692 m 206 500 q 254 522 238 500 q 271 565 271 543 l 271 576 l 139 689 l 139 565 q 159 518 139 536 q 206 500 179 500 m 781 0 q 701 22 740 0 q 635 80 661 43 q 610 163 610 117 l 610 418 q 635 498 610 461 q 700 557 661 535 q 781 579 739 579 q 866 558 828 579 q 927 500 904 536 q 950 418 950 464 l 950 163 q 927 80 950 117 q 866 22 904 43 q 781 0 828 0 m 1200 0 q 1120 22 1160 0 q 1055 80 1081 43 q 1029 163 1029 117 l 1029 418 q 1055 498 1029 461 q 1119 557 1081 535 q 1200 579 1158 579 q 1285 558 1247 579 q 1347 500 1324 536 q 1369 418 1369 464 l 1369 163 q 1347 80 1369 117 q 1285 22 1324 43 q 1200 0 1247 0 m 846 289 l 846 418 q 828 463 846 444 q 781 482 811 482 q 731 463 747 482 q 714 418 714 443 l 714 401 l 846 289 m 1265 289 l 1265 418 q 1248 463 1265 444 q 1200 482 1231 482 q 1150 463 1167 482 q 1133 418 1133 443 l 1133 401 l 1265 289 m 781 97 q 829 119 813 97 q 846 163 846 140 l 846 174 l 714 286 l 714 163 q 734 115 714 133 q 781 97 754 97 m 1200 97 q 1249 119 1232 97 q 1265 163 1265 140 l 1265 174 l 1133 286 l 1133 163 q 1153 115 1133 133 q 1200 97 1174 97 z "},"◊":{"ha":674,"x_min":29,"x_max":629,"o":"m 311 68 l 35 449 q 35 464 29 457 l 311 844 q 330 854 318 854 q 347 844 342 854 l 624 464 q 624 449 629 457 l 347 68 q 330 58 342 58 q 311 68 318 58 m 329 235 l 488 457 l 326 678 l 171 457 l 329 235 z "},"@":{"ha":751,"x_min":39,"x_max":701,"o":"m 313 -14 q 176 24 238 -14 q 76 126 114 63 q 39 265 39 189 l 40 706 q 77 844 40 782 q 176 944 114 906 q 311 982 238 982 l 400 982 q 541 943 479 982 q 638 840 603 904 q 672 701 674 776 l 671 500 q 650 367 671 426 q 583 272 629 307 q 460 238 538 238 q 319 312 367 238 q 271 500 271 386 l 271 682 q 276 686 271 686 l 426 686 q 431 682 431 686 l 431 496 q 438 411 431 436 q 465 386 446 386 q 495 409 489 386 q 501 496 501 432 l 503 706 q 474 783 503 751 q 400 815 444 815 l 311 815 q 238 783 268 814 q 208 706 208 751 l 208 265 q 239 197 208 219 q 313 174 269 174 q 497 176 393 174 q 694 186 600 178 q 701 179 701 186 l 701 7 q 694 0 701 1 q 640 -3 681 -1 q 542 -8 599 -6 q 426 -12 486 -11 q 313 -14 365 -14 z "},"&":{"ha":690,"x_min":17,"x_max":674,"o":"m 292 -1 q 148 39 210 -1 q 51 140 86 79 q 17 263 17 201 l 17 354 q 39 446 17 401 q 97 525 61 490 q 51 603 68 557 q 35 707 35 650 q 69 838 35 779 q 160 932 103 897 q 289 967 218 967 l 476 967 q 486 957 486 967 l 486 810 q 478 801 486 801 l 289 801 q 228 774 254 801 q 203 707 203 746 q 224 633 203 660 q 289 607 246 607 l 667 607 q 674 600 674 607 l 674 446 q 668 440 674 440 l 546 440 l 544 6 q 539 0 544 0 l 292 -1 m 292 165 l 382 167 l 383 440 l 288 440 q 234 426 258 440 q 196 392 210 411 q 182 354 182 372 l 182 263 q 195 219 182 242 q 233 181 208 196 q 292 165 258 165 z "},"¶":{"ha":688,"x_min":26,"x_max":624,"o":"m 311 0 q 303 4 303 0 l 303 413 l 226 413 q 122 449 167 413 q 52 547 78 485 q 26 686 26 610 q 51 822 26 758 q 122 926 76 886 q 226 967 167 967 l 421 967 q 426 963 426 967 l 426 4 q 421 0 426 0 l 311 0 m 506 0 q 500 6 500 0 l 500 961 q 506 967 500 967 l 618 967 q 624 961 624 967 l 624 6 q 618 0 624 0 l 506 0 z "},"§":{"ha":563,"x_min":32,"x_max":517,"o":"m 268 -117 q 149 -83 203 -117 q 63 5 94 -50 q 32 126 32 60 l 32 182 q 38 188 32 188 l 172 188 q 178 182 178 188 l 178 126 q 204 58 178 88 q 268 29 231 29 q 332 58 306 29 q 358 126 358 88 q 345 169 358 150 q 300 204 332 188 q 240 238 281 215 q 163 281 199 260 q 64 378 96 319 q 32 511 32 436 q 50 602 32 560 q 99 676 68 644 q 46 842 46 743 q 78 963 46 910 q 165 1048 111 1017 q 281 1079 218 1079 q 398 1048 344 1079 q 484 963 451 1017 q 517 842 517 908 l 517 743 q 511 738 517 738 l 376 738 q 371 743 371 738 l 369 842 q 343 911 369 885 q 281 938 317 938 q 217 909 243 938 q 190 842 190 881 q 207 775 190 803 q 268 725 224 747 q 292 713 275 722 q 331 692 310 703 q 367 672 351 681 q 388 661 383 664 q 483 578 449 626 q 517 458 517 529 q 497 358 517 404 q 442 279 476 313 q 488 213 472 250 q 504 126 504 175 q 472 2 504 57 q 387 -85 440 -53 q 268 -117 333 -117 m 315 363 q 357 401 343 375 q 371 458 371 426 q 314 535 371 503 l 217 589 q 178 511 178 561 q 194 444 178 471 q 256 393 211 417 l 315 363 z "},"©":{"ha":915,"x_min":79,"x_max":819,"o":"m 450 -14 q 176 77 274 -14 q 79 321 79 168 l 79 643 q 123 819 79 743 q 249 938 167 894 q 450 981 332 981 q 650 938 568 981 q 776 819 732 894 q 819 643 819 743 l 819 321 q 723 77 819 168 q 450 -14 626 -14 m 450 100 q 634 160 567 100 q 701 325 701 221 l 701 639 q 634 805 701 743 q 450 867 567 867 q 265 805 332 867 q 197 639 197 743 l 197 325 q 265 160 197 221 q 450 100 332 100 m 444 183 q 328 233 375 183 q 281 353 281 282 l 282 610 q 328 728 282 679 q 444 776 375 776 q 559 728 513 776 q 606 610 606 679 l 606 572 q 605 571 606 572 q 601 569 604 569 l 510 569 q 508 571 508 569 q 507 572 507 572 l 507 610 q 488 658 507 639 q 444 678 469 678 q 399 658 415 678 q 382 610 382 638 l 382 353 q 400 303 382 322 q 444 283 418 283 q 488 305 469 283 q 507 353 507 326 l 507 390 q 510 393 507 393 l 603 393 q 607 390 607 393 l 607 353 q 585 267 607 306 q 527 206 564 229 q 444 183 490 183 z "},"®":{"ha":549,"x_min":58,"x_max":465,"o":"m 261 372 q 112 428 165 372 q 58 578 58 483 l 58 774 q 115 924 58 865 q 261 982 172 982 q 410 924 356 982 q 465 774 465 865 l 465 578 q 406 428 465 483 q 261 372 347 372 m 261 443 q 363 480 329 443 q 397 581 397 517 l 397 772 q 361 876 397 836 q 261 915 325 915 q 158 876 192 915 q 125 772 125 836 l 125 581 q 159 480 125 517 q 261 443 193 443 m 169 531 q 167 531 168 531 q 167 532 167 532 l 168 835 q 169 836 168 836 l 267 836 q 330 811 303 836 q 357 750 357 786 q 346 709 357 726 q 328 686 335 692 q 351 622 351 656 l 351 532 q 350 531 351 531 l 299 531 q 296 532 296 531 l 296 622 q 285 651 296 639 q 258 663 274 663 l 224 663 l 222 532 q 221 531 222 531 l 169 531 m 224 714 l 267 714 q 291 725 281 714 q 301 750 301 736 q 292 774 301 764 q 267 783 282 783 l 224 783 l 224 714 z "},"™":{"ha":940,"x_min":7,"x_max":893,"o":"m 446 383 q 443 388 443 383 l 446 961 q 450 967 446 967 l 569 967 q 578 961 572 967 l 665 853 l 757 961 q 767 967 760 967 l 889 967 q 893 961 893 967 l 893 388 q 890 383 893 383 l 779 383 q 772 388 772 383 l 772 814 l 665 688 l 565 814 l 564 388 q 561 383 564 383 l 446 383 m 144 383 q 142 388 142 383 l 142 864 l 14 864 q 7 868 7 864 l 7 961 q 14 967 7 967 l 389 967 q 396 961 396 967 l 396 868 q 393 865 396 867 q 390 864 390 864 l 263 864 l 263 388 q 256 383 263 383 l 144 383 z "},"°":{"ha":510,"x_min":67,"x_max":404,"o":"m 236 640 q 153 664 192 640 q 90 727 114 688 q 67 811 67 767 q 90 899 67 860 q 153 961 114 938 q 236 985 192 985 q 319 961 281 985 q 381 899 357 938 q 404 811 404 860 q 380 725 404 764 q 317 663 356 686 q 236 640 279 640 m 235 726 q 291 751 267 726 q 315 811 315 776 q 291 873 315 847 q 235 899 267 899 q 176 873 200 899 q 153 811 153 847 q 176 752 153 778 q 235 726 200 726 z "},"|":{"ha":275,"x_min":56,"x_max":217,"o":"m 61 0 q 56 6 56 0 l 56 961 q 61 967 56 967 l 211 967 q 217 961 217 967 l 217 6 q 214 0 217 0 l 61 0 z "},"¦":{"ha":275,"x_min":56,"x_max":217,"o":"m 56 626 l 56 961 q 61 967 56 967 l 211 967 q 217 961 217 967 l 217 626 l 56 626 m 61 0 q 56 6 56 0 l 56 372 l 217 372 l 217 6 q 214 0 217 0 l 61 0 z "},"†":{"ha":588,"x_min":44,"x_max":538,"o":"m 229 40 q 222 47 222 40 l 222 568 l 53 568 q 44 575 44 568 l 44 685 q 47 690 44 686 q 53 693 49 693 l 222 693 l 222 896 q 229 899 222 899 l 346 899 q 351 896 351 899 l 351 693 l 531 693 q 538 685 538 693 l 538 575 q 535 570 538 572 q 531 568 532 568 l 351 568 l 351 47 q 346 40 351 40 l 229 40 z "},"‡":{"ha":672,"x_min":86,"x_max":579,"o":"m 271 40 q 264 47 264 40 l 264 367 l 94 367 q 86 374 86 367 l 86 483 q 88 488 86 485 q 94 492 90 492 l 264 492 l 264 615 l 94 615 q 86 622 86 615 l 86 732 q 88 737 86 733 q 94 740 90 740 l 264 740 l 264 896 q 271 899 264 899 l 388 899 q 393 896 393 899 l 393 740 l 572 740 q 579 732 579 740 l 579 622 q 576 617 579 619 q 572 615 574 615 l 393 615 l 393 492 l 572 492 q 579 483 579 492 l 579 374 q 576 369 579 371 q 572 367 574 367 l 393 367 l 393 47 q 388 40 393 40 l 271 40 z "},"̈":{"ha":0,"x_min":-226,"x_max":231,"o":"m 68 1064 q 63 1069 63 1064 l 63 1226 q 68 1232 63 1232 l 225 1232 q 231 1226 231 1232 l 231 1069 q 225 1064 231 1064 l 68 1064 m -221 1064 q -226 1069 -226 1064 l -226 1226 q -221 1232 -226 1232 l -64 1232 q -58 1226 -58 1232 l -58 1069 q -64 1064 -58 1064 l -221 1064 z "},"̇":{"ha":0,"x_min":-86,"x_max":82,"o":"m -81 1064 q -86 1069 -86 1064 l -86 1226 q -81 1232 -86 1232 l 76 1232 q 82 1226 82 1232 l 82 1069 q 76 1064 82 1064 l -81 1064 z "},"̀":{"ha":0,"x_min":-203,"x_max":83,"o":"m -62 1040 q -71 1046 -68 1040 l -200 1286 q -194 1292 -203 1292 l -36 1292 q -29 1286 -31 1292 l 82 1046 q 76 1040 83 1040 l -62 1040 z "},"́":{"ha":0,"x_min":-87,"x_max":199,"o":"m -81 1040 q -86 1046 -87 1040 l 25 1286 q 32 1292 26 1292 l 190 1292 q 196 1286 199 1292 l 67 1046 q 58 1040 64 1040 l -81 1040 z "},"̋":{"ha":0,"x_min":-240,"x_max":329,"o":"m 67 1040 q 61 1046 60 1040 l 156 1286 q 163 1292 157 1292 l 321 1292 q 326 1286 329 1292 l 214 1046 q 206 1040 211 1040 l 67 1040 m -233 1040 q -239 1046 -240 1040 l -149 1286 q -142 1292 -147 1292 l 17 1292 q 22 1286 25 1292 l -86 1046 q -94 1040 -89 1040 l -233 1040 z "},"̂":{"ha":0,"x_min":-271,"x_max":272,"o":"m -262 1042 q -268 1047 -271 1042 l -87 1260 q -79 1265 -85 1265 l 81 1265 q 89 1260 86 1265 l 269 1047 q 264 1042 272 1042 l 101 1042 q 94 1047 96 1042 l -3 1168 l -101 1047 q -108 1042 -103 1042 l -262 1042 z "},"̌":{"ha":0,"x_min":-269,"x_max":274,"o":"m -78 1044 q -86 1050 -83 1044 l -267 1263 q -261 1268 -269 1268 l -103 1268 q -96 1263 -97 1268 l 1 1142 l 100 1263 q 107 1268 101 1268 l 265 1268 q 271 1263 274 1268 l 90 1050 q 82 1044 88 1044 l -78 1044 z "},"̆":{"ha":0,"x_min":-237,"x_max":247,"o":"m 1 1040 q -119 1069 -65 1040 q -203 1146 -172 1099 q -235 1247 -235 1193 q -229 1253 -237 1253 l -104 1253 q -73 1183 -104 1214 q 6 1151 -42 1151 q 85 1183 54 1151 q 117 1253 117 1214 l 242 1253 q 247 1247 247 1253 q 215 1144 247 1192 q 126 1069 182 1097 q 1 1040 71 1040 z "},"̊":{"ha":0,"x_min":-125,"x_max":132,"o":"m 4 1028 q -86 1067 -47 1028 q -125 1158 -125 1107 q -86 1251 -125 1213 q 4 1290 -47 1290 q 93 1251 54 1290 q 132 1158 132 1213 q 92 1065 132 1103 q 4 1028 53 1028 m 3 1093 q 46 1113 28 1093 q 64 1158 64 1132 q 46 1206 64 1186 q 3 1225 28 1225 q -42 1206 -24 1225 q -60 1158 -60 1186 q -42 1113 -60 1132 q 3 1093 -24 1093 z "},"̃":{"ha":0,"x_min":-242,"x_max":289,"o":"m 129 1047 q 58 1062 90 1047 q -1 1091 25 1076 q -51 1106 -28 1106 q -92 1092 -78 1106 q -106 1060 -106 1079 q -111 1054 -106 1054 l -236 1054 q -242 1060 -242 1054 q -220 1134 -242 1096 q -159 1199 -199 1172 q -64 1225 -119 1225 q 7 1212 -24 1225 q 62 1185 38 1199 q 104 1171 86 1171 q 138 1183 124 1171 q 153 1222 153 1196 q 158 1228 153 1228 l 283 1228 q 289 1222 289 1228 q 266 1126 289 1165 q 206 1067 243 1088 q 129 1047 169 1047 z "},"̄":{"ha":0,"x_min":-214,"x_max":213,"o":"m -208 1071 q -214 1076 -214 1071 l -214 1189 q -208 1194 -214 1194 l 207 1194 q 213 1189 213 1194 l 213 1076 q 207 1071 213 1071 l -208 1071 z "},"̒":{"ha":0,"x_min":-85,"x_max":83,"o":"m -79 1056 q -85 1061 -85 1056 l -85 1222 q -61 1312 -85 1272 q 1 1374 -37 1351 q 83 1397 39 1397 l 83 1311 q 24 1285 49 1311 q 0 1222 0 1258 l 78 1222 q 83 1217 83 1222 l 83 1061 q 78 1056 83 1056 l -79 1056 z "},"̦":{"ha":0,"x_min":-82,"x_max":86,"o":"m -82 -411 l -82 -325 q -23 -299 -47 -325 q 1 -236 1 -272 l -76 -236 q -82 -231 -82 -236 l -82 -75 q -76 -69 -82 -69 l 81 -69 q 86 -75 86 -69 l 86 -236 q 63 -325 86 -285 q 1 -388 39 -365 q -82 -411 -37 -411 z "},"̧":{"ha":0,"x_min":-181,"x_max":183,"o":"m -147 -137 q -153 -132 -156 -137 l -60 21 q -51 26 -57 26 l 64 26 q 69 21 71 26 l 25 -58 q 140 -111 97 -69 q 183 -211 183 -153 q 153 -312 183 -267 q 74 -385 124 -358 q -40 -411 24 -411 q -116 -405 -78 -411 q -174 -387 -154 -399 q -176 -383 -176 -385 l -181 -261 q -172 -256 -181 -253 q -98 -274 -131 -269 q -43 -279 -65 -279 q 25 -262 1 -279 q 49 -218 49 -246 q 6 -160 49 -182 q -132 -137 -37 -137 l -147 -137 z "},"̨":{"ha":0,"x_min":-212,"x_max":72,"o":"m 65 -410 q -94 -379 -33 -410 q -184 -297 -156 -349 q -212 -186 -212 -246 q -148 -40 -212 -100 q 19 61 -83 21 l 71 0 q -41 -76 -14 -43 q -68 -150 -68 -110 q -35 -219 -68 -193 q 64 -244 -1 -244 q 69 -248 68 -244 q 71 -262 71 -251 l 72 -399 q 65 -410 72 -410 z "},"´":{"ha":396,"x_min":54,"x_max":340,"o":"m 61 1040 q 56 1046 54 1040 l 167 1286 q 174 1292 168 1292 l 332 1292 q 338 1286 340 1292 l 208 1046 q 200 1040 206 1040 l 61 1040 z "},"˘":{"ha":833,"x_min":-237,"x_max":247,"o":"m 1 1040 q -119 1069 -65 1040 q -203 1146 -172 1099 q -235 1247 -235 1193 q -229 1253 -237 1253 l -104 1253 q -73 1183 -104 1214 q 6 1151 -42 1151 q 85 1183 54 1151 q 117 1253 117 1214 l 242 1253 q 247 1247 247 1253 q 215 1144 247 1192 q 126 1069 182 1097 q 1 1040 71 1040 z "},"ˇ":{"ha":833,"x_min":-269,"x_max":274,"o":"m -78 1044 q -86 1050 -83 1044 l -267 1263 q -261 1268 -269 1268 l -103 1268 q -96 1263 -97 1268 l 1 1142 l 100 1263 q 107 1268 101 1268 l 265 1268 q 271 1263 274 1268 l 90 1050 q 82 1044 88 1044 l -78 1044 z "},"¸":{"ha":833,"x_min":-181,"x_max":183,"o":"m -147 -137 q -153 -132 -156 -137 l -60 21 q -51 26 -57 26 l 64 26 q 69 21 71 26 l 25 -58 q 140 -111 97 -69 q 183 -211 183 -153 q 153 -312 183 -267 q 74 -385 124 -358 q -40 -411 24 -411 q -116 -405 -78 -411 q -174 -387 -154 -399 q -176 -383 -176 -385 l -181 -261 q -172 -256 -181 -253 q -98 -274 -131 -269 q -43 -279 -65 -279 q 25 -262 1 -279 q 49 -218 49 -246 q 6 -160 49 -182 q -132 -137 -37 -137 l -147 -137 z "},"ˆ":{"ha":833,"x_min":-271,"x_max":272,"o":"m -262 1042 q -268 1047 -271 1042 l -87 1260 q -79 1265 -85 1265 l 81 1265 q 89 1260 86 1265 l 269 1047 q 264 1042 272 1042 l 101 1042 q 94 1047 96 1042 l -3 1168 l -101 1047 q -108 1042 -103 1042 l -262 1042 z "},"¨":{"ha":833,"x_min":-226,"x_max":231,"o":"m 68 1064 q 63 1069 63 1064 l 63 1226 q 68 1232 63 1232 l 225 1232 q 231 1226 231 1232 l 231 1069 q 225 1064 231 1064 l 68 1064 m -221 1064 q -226 1069 -226 1064 l -226 1226 q -221 1232 -226 1232 l -64 1232 q -58 1226 -58 1232 l -58 1069 q -64 1064 -58 1064 l -221 1064 z "},"˙":{"ha":833,"x_min":-86,"x_max":82,"o":"m -81 1064 q -86 1069 -86 1064 l -86 1226 q -81 1232 -86 1232 l 76 1232 q 82 1226 82 1232 l 82 1069 q 76 1064 82 1064 l -81 1064 z "},"`":{"ha":396,"x_min":53,"x_max":339,"o":"m 193 1040 q 185 1046 188 1040 l 56 1286 q 61 1292 53 1292 l 219 1292 q 226 1286 225 1292 l 338 1046 q 332 1040 339 1040 l 193 1040 z "},"˝":{"ha":833,"x_min":-240,"x_max":329,"o":"m 67 1040 q 61 1046 60 1040 l 156 1286 q 163 1292 157 1292 l 321 1292 q 326 1286 329 1292 l 214 1046 q 206 1040 211 1040 l 67 1040 m -233 1040 q -239 1046 -240 1040 l -149 1286 q -142 1292 -147 1292 l 17 1292 q 22 1286 25 1292 l -86 1046 q -94 1040 -89 1040 l -233 1040 z "},"¯":{"ha":833,"x_min":-214,"x_max":213,"o":"m -208 1071 q -214 1076 -214 1071 l -214 1189 q -208 1194 -214 1194 l 207 1194 q 213 1189 213 1194 l 213 1076 q 207 1071 213 1071 l -208 1071 z "},"˛":{"ha":833,"x_min":-212,"x_max":72,"o":"m 65 -410 q -94 -379 -33 -410 q -184 -297 -156 -349 q -212 -186 -212 -246 q -148 -40 -212 -100 q 19 61 -83 21 l 71 0 q -41 -76 -14 -43 q -68 -150 -68 -110 q -35 -219 -68 -193 q 64 -244 -1 -244 q 69 -248 68 -244 q 71 -262 71 -251 l 72 -399 q 65 -410 72 -410 z "},"˚":{"ha":833,"x_min":-125,"x_max":132,"o":"m 4 1028 q -86 1067 -47 1028 q -125 1158 -125 1107 q -86 1251 -125 1213 q 4 1290 -47 1290 q 93 1251 54 1290 q 132 1158 132 1213 q 92 1065 132 1103 q 4 1028 53 1028 m 3 1093 q 46 1113 28 1093 q 64 1158 64 1132 q 46 1206 64 1186 q 3 1225 28 1225 q -42 1206 -24 1225 q -60 1158 -60 1186 q -42 1113 -60 1132 q 3 1093 -24 1093 z "},"˜":{"ha":833,"x_min":-242,"x_max":289,"o":"m 129 1021 q 58 1035 90 1021 q -1 1065 25 1050 q -51 1079 -28 1079 q -92 1066 -78 1079 q -106 1033 -106 1053 q -111 1028 -106 1028 l -236 1028 q -242 1033 -242 1028 q -220 1108 -242 1069 q -159 1172 -199 1146 q -64 1199 -119 1199 q 7 1185 -24 1199 q 62 1158 38 1172 q 104 1144 86 1144 q 138 1157 124 1144 q 153 1196 153 1169 q 158 1201 153 1201 l 283 1201 q 289 1196 289 1201 q 266 1100 289 1139 q 206 1041 243 1061 q 129 1021 169 1021 z "}}}
